<svg xmlns="http://www.w3.org/2000/svg" width="204.541" height="139.089" viewBox="0 0 204.541 139.089"><g transform="translate(3418.776 2208.886)"><path d="M233.755,132.909a1.732,1.732,0,0,0,.4.069h.169a.254.254,0,0,0,.111.074h.053l.026-.048a.138.138,0,0,0-.037-.159.222.222,0,0,0-.238-.069l-.064.032a1.255,1.255,0,0,0-.609-.069l-.36.064.36.064Z" transform="translate(-3558.618 -2330.946)" fill="#fff"/><path d="M236.037,134.615h.122a.529.529,0,0,0,.185-.042h.106a.249.249,0,0,0,.212-.132l.032-.085h-.551a3.254,3.254,0,0,0-.461-.032h0a.159.159,0,0,0-.185.074l-.037.079h.09a1.612,1.612,0,0,1,.387.032h.228a.239.239,0,0,0-.053.1Z" transform="translate(-3559.677 -2331.694)" fill="#fff"/><path d="M271.532,138.7h-.106v.042a2,2,0,0,0,.127,1,.879.879,0,0,0,.222.371l.148.122-.053-.238c-.085-.413-.175-.842-.3-1.234A.09.09,0,0,0,271.532,138.7Z" transform="translate(-3576.591 -2333.756)" fill="#fff"/><path d="M272.1,138.913h0a1.5,1.5,0,0,0,.207.948l.127.164v-.3a5.18,5.18,0,0,0-.132-1.033l-.048-.191-.074.18a.589.589,0,0,0-.032.122.453.453,0,0,1-.048.111Z" transform="translate(-3576.912 -2333.662)" fill="#fff"/><path d="M273,140.047v-.535a1.779,1.779,0,0,0-.037-.593l-.048-.159-.074.148a1.133,1.133,0,0,0,.048,1Z" transform="translate(-3577.219 -2333.784)" fill="#fff"/><path d="M273.555,140.014a.121.121,0,0,0,.048.032h.037a2.187,2.187,0,0,0,.868-.445l.111-.106h-.154a1.218,1.218,0,0,0-.672.217l-.069.048a1.058,1.058,0,0,0,.117-.286v-.032a.09.09,0,0,0-.106-.064H273.7v.037h-.064a.714.714,0,0,1-.058.074.852.852,0,0,0-.212.529v.1l.1-.042A.381.381,0,0,0,273.555,140.014Z" transform="translate(-3577.514 -2334.074)" fill="#fff"/><path d="M226.37,150.053l-.18-.143.079.217a1.546,1.546,0,0,0,.2.339l.079.116.09.148a1.477,1.477,0,0,0,.212.312l.148.148-.037-.206A1.414,1.414,0,0,0,226.37,150.053Z" transform="translate(-3555.315 -2339.03)" fill="#fff"/><path d="M225.65,151.466v-.032l-.053-.048a1.1,1.1,0,0,0-.641-.3h-.026a.079.079,0,0,0-.079.074v.032h0a2.367,2.367,0,0,0,.339.244,1.814,1.814,0,0,0-.265-.032H224.8a1.011,1.011,0,0,0-.588.159l-.085.079.111.032a1.551,1.551,0,0,0,.4.042h.328a.764.764,0,0,1,.164-.026.461.461,0,0,0,.3-.1l.032-.037.138.053.079.026v-.069a.143.143,0,0,0-.042-.111Z" transform="translate(-3554.346 -2339.585)" fill="#fff"/><path d="M272.191,168.386h0a.266.266,0,0,1,.064-.074.27.27,0,0,0,.148-.35v-.042h-.122l-.1.09a1.7,1.7,0,0,0-.381.439l-.074.127.143-.032a.594.594,0,0,0,.217-.106A.709.709,0,0,1,272.191,168.386Z" transform="translate(-3576.742 -2347.504)" fill="#fff"/><path d="M231.129,168.57h-.169v.085a1.4,1.4,0,0,0,.588.757l.206.143-.106-.228A3.373,3.373,0,0,0,231.129,168.57Z" transform="translate(-3557.56 -2347.81)" fill="#fff"/><path d="M230.782,168.807l-.106-.217v.244a.314.314,0,0,1,0,.069.726.726,0,0,1,0,.1l-.032.026a.106.106,0,0,0,0,.053,2.6,2.6,0,0,0-.185.847v.09h0a.133.133,0,0,0,0,.037.105.105,0,0,0,.053,0h.064v-.037c.042-.175.079-.36.116-.53v-.064a.3.3,0,0,0,.122.159l.1.058v-.117A1.589,1.589,0,0,0,230.782,168.807Z" transform="translate(-3557.323 -2347.819)" fill="#fff"/><path d="M272.8,169.021c0-.042,0-.138-.1-.154h0a.27.27,0,0,0,.026-.154v-.132h-.042a.085.085,0,0,0-.048-.032H272.6l-.026.037-.064.1a3.414,3.414,0,0,0-.217.36l-.069.143.154-.053a.5.5,0,0,0,.254-.159.954.954,0,0,1,0,.222.773.773,0,0,0,.042.318l.058.127a.314.314,0,0,1,0,.074,2.317,2.317,0,0,0,.079.408l.169.466-.042-.492A7.5,7.5,0,0,0,272.8,169.021Z" transform="translate(-3576.972 -2347.8)" fill="#fff"/><path d="M252.361,173.164h0a.106.106,0,0,0-.074,0,.1.1,0,0,0-.053.053v.037a.758.758,0,0,0,0,.117h0v.032a1.3,1.3,0,0,0,.042.969l.085.122.032-.143a2.3,2.3,0,0,0,.032-.667.9.9,0,0,0,.233.212l.138.079-.042-.154a1.313,1.313,0,0,0-.392-.657Z" transform="translate(-3567.534 -2349.968)" fill="#fff"/><path d="M251.835,139.406a.233.233,0,0,0-.116.053.5.5,0,0,0,0-.233l-.042-.127-.074.111-.032.042-.042.058a1.53,1.53,0,0,0-.122-.572l-.074-.164-.048.175a.313.313,0,0,0,0,.069,1.361,1.361,0,0,0-.127-.339l-.1-.2v.217a1.4,1.4,0,0,0,0,.143,2.647,2.647,0,0,0-.217-.461l-.148-.259.026.3a2.456,2.456,0,0,0,.058.344.653.653,0,0,0-.053-.106l-.053-.117h0a.418.418,0,0,1-.042-.085c-.032-.064-.074-.164-.159-.132h-.053a1.348,1.348,0,0,1-.085-.148l-.148-.27.026.307h0c-.074-.138-.154-.275-.238-.424l-.159-.259.032.259-.069-.1-.212-.259.1.318a.825.825,0,0,0,.037.122l-.143-.148.069.244-.122-.2-.249-.4.132.455a.574.574,0,0,0,.026.09l-.032-.042-.2-.254.079.307v.058c-.037-.053-.069-.111-.106-.159l-.143-.217v.2h0a.753.753,0,0,0-.064-.111.559.559,0,0,1-.069-.138h0a.6.6,0,0,1-.079-.111.339.339,0,0,1-.032-.053.079.079,0,0,0-.074-.079c-.074-.005-.053,0-.074.058v.026h0l.106.233-.032-.048a.1.1,0,0,0-.1-.09.085.085,0,0,0-.069.064h0l.058.132c.048.1.09.2.132.3l-.18-.312h0a.093.093,0,0,0-.1-.085.069.069,0,0,0-.069.058h0l.127.291-.079-.132-.312-.487.2.529c.042.122.09.249.138.365h0v-.037c-.042-.074-.09-.159-.122-.206l-.085-.148c-.042-.074-.079-.138-.122-.2l-.307-.408.191.471c.058.143.117.286.18.429l-.064-.106a.965.965,0,0,0-.127-.185l-.249-.265.143.334c.09.222.185.455.286.678-.111-.206-.228-.4-.344-.582l-.312-.482.2.529c.053.148.117.3.175.439l-.053-.085a.456.456,0,0,1-.053-.085l-.079-.148a2.763,2.763,0,0,0-.127-.249l-.032-.042c-.069-.116-.138-.228-.217-.339a.09.09,0,0,0,0-.026.185.185,0,0,0-.048-.079.127.127,0,0,0-.032-.048.1.1,0,0,0,0-.048.074.074,0,0,0-.138.053h0a.216.216,0,0,1,.026.048h0c.106.185.2.381.286.572v.1c-.074-.132-.154-.265-.233-.392l-.312-.492.2.529a4,4,0,0,0,.18.429l.111.238a1.64,1.64,0,0,1-.09-.154l-.037-.079a.7.7,0,0,0-.111-.191.53.53,0,0,1-.053-.09.13.13,0,0,1,0-.037h0a1.923,1.923,0,0,0-.185-.275l-.318-.392.207.455c.1.217.207.455.323.688V138.1h-.026a.361.361,0,0,0,0-.053.2.2,0,0,0-.032-.069.19.19,0,0,0-.037-.053l-.032-.037-.058-.1-.058-.106h0c-.037-.074-.085-.1-.138-.079h-.064l.069.154c.032.064.058.132.09.2-.037-.069-.079-.132-.122-.2a.244.244,0,0,1,0-.053c-.042-.085-.069-.138-.122-.148h-.042l-.069.053.032.048c.037.069.069.148.106.222a.7.7,0,0,1,.042.1,1.06,1.06,0,0,0,.058.106.633.633,0,0,0,.042.085h0c-.079-.148-.185-.334-.259-.455l-.037-.032v-.053a.127.127,0,0,0-.154-.116l-.09.032.053.074a1.271,1.271,0,0,1,.122.222,1.091,1.091,0,0,0,.111.222h0a.927.927,0,0,0-.286-.011.244.244,0,0,0-.058-.1V137.9a.122.122,0,0,0-.074-.09.079.079,0,0,0-.074,0l-.053.037.032.053c.048.085.09.175.138.275h-.048a.461.461,0,0,0-.037-.053h0l-.064-.079-.048.09h0a3.674,3.674,0,0,0-.762-.09l-.032-.032-.042-.042-.064-.048-.037.069a.069.069,0,0,0,0,.032h-.191s-.042-.053-.085-.042a.069.069,0,0,0-.058.042h-.032a.169.169,0,0,1-.074,0l-.09-.079v.1h0a4.68,4.68,0,0,0-.916.122l-.286.058a.085.085,0,0,0-.079-.058.074.074,0,0,0-.069.053l-.085-.238a2.7,2.7,0,0,0-.122-.3,2.285,2.285,0,0,0,.207.244l.185.2-.079-.259a1.455,1.455,0,0,0-.074-.212l.1.116h.026a.1.1,0,0,0,.079.064h0a.079.079,0,0,0,.074-.048v-.058l-.074-.159.127.132.185.175-.079-.244a.393.393,0,0,0-.053-.143.954.954,0,0,0,.1.106l.2.2-.1-.27-.058-.159a.293.293,0,0,0,0,.042v.032h0s.037.064.085.064a.069.069,0,0,0,.069-.037V137.4c-.048-.1-.1-.2-.138-.3l.026.026a.686.686,0,0,0,.053.079l.032.042h0c0,.032.048.074.1.079a.1.1,0,0,0,.074-.032l.037-.042-.037-.042a.36.36,0,0,1-.048-.09l.106.111.222.212-.154-.371h0l.217.244-.058-.254a2.12,2.12,0,0,0-.079-.238l.032.037.032.042c.026.042.069.116.154.1h.085l-.042-.074a1.773,1.773,0,0,1-.09-.2.885.885,0,0,0,.164.18l.164.138-.058-.206a.993.993,0,0,0-.053-.132.853.853,0,0,0,.1.1l.154.132-.048-.2a1.865,1.865,0,0,0-.106-.275,1.936,1.936,0,0,1-.1-.244h0a2.166,2.166,0,0,0,.323.45l.164.164-.053-.228a.83.83,0,0,0-.074-.2,1.14,1.14,0,0,1-.053-.143h0a.941.941,0,0,0,.164.212l.069.074.206.249-.1-.307a.558.558,0,0,0-.069-.185c-.021-.058-.037-.09-.053-.132h0a1.174,1.174,0,0,0,.207.254l.164.143-.058-.212a1.589,1.589,0,0,0-.074-.191.964.964,0,0,1-.074-.207,1.709,1.709,0,0,0,.265.344l.175.169-.069-.238c0-.053-.037-.1-.053-.143l-.032-.085a.042.042,0,0,1,0-.026v.026a1.257,1.257,0,0,0,.18.2l.191.154-.085-.228-.064-.169-.032-.1a.1.1,0,0,0,.037-.042h0a.164.164,0,0,1,.048.064v.037h.042a.112.112,0,0,1,0,.037.138.138,0,0,0,.09.074.064.064,0,0,0,.069,0l.042-.032-.026-.048a1.2,1.2,0,0,1-.122-.312h0a.77.77,0,0,0,.053.069l.032.037a.085.085,0,0,0,0,.074.069.069,0,0,0,.069.042h0a.132.132,0,0,0,.1.079.09.09,0,0,0,.074-.032l.048-.053-.058-.042a.179.179,0,0,1,0-.042v-.032h0l.053-.058a.817.817,0,0,0,.1.122l.143.164-.032-.212a.641.641,0,0,0-.053-.169.159.159,0,0,1,0-.053h0a.19.19,0,0,1,.042-.048l.037.042.026.032a.1.1,0,0,0,0,.069.085.085,0,0,0,.074.074h.122l.164.127-.074-.206c0-.037,0-.064.079-.117h0a.18.18,0,0,0,.074.064l.106.037h0l.032.042.053-.058a.68.68,0,0,1,.111-.1.806.806,0,0,0,.138-.132.5.5,0,0,0,.122-.085c.058-.053.09-.085.132-.074h.058a.386.386,0,0,0,.079.312l.026.026h.032a.206.206,0,0,0,.164-.154c.032.032.064.053.1.079a.828.828,0,0,1,.148.122h0a.4.4,0,0,1,.122.079.333.333,0,0,0,.206.1h.127l-.09-.09-.064-.058a.605.605,0,0,1-.1-.1h-.026a.307.307,0,0,1-.1-.058.318.318,0,0,0-.111-.074H248.2a.371.371,0,0,0-.228-.085h0a.217.217,0,0,0-.217-.122h.037c-.042-.143-.106-.3-.159-.434l-.053-.117-.1-.259.1.2c.042.085.085.169.122.259h0a.822.822,0,0,1,.1.127.825.825,0,0,0,.122.148l.2.191-.175-.471-.079-.217a2.163,2.163,0,0,0,.254.36l.164.169-.053-.228a.419.419,0,0,0-.032-.117l.1.106.175.169-.064-.233c-.032-.1-.064-.207-.1-.307a1.5,1.5,0,0,0,.2.249l.2.212-.09-.275a.81.81,0,0,0-.079-.233h0a.17.17,0,0,0,.058.069c0,.042.058.1.111.111h0a.09.09,0,0,0,.069-.037l.058-.09h-.079l-.074-.206a.532.532,0,0,0,.069.085c0,.053.085.138.148.154h0a.074.074,0,0,0,.064-.032l.026-.032v-.037a1.619,1.619,0,0,1-.069-.169,1.987,1.987,0,0,0,.138.175l.2.217-.09-.281a.511.511,0,0,0-.058-.164,1.685,1.685,0,0,0,.116.143l.212.222-.207-.6-.048-.132a1.409,1.409,0,0,0,.286.392l.2.18-.1-.254-.111-.312v-.053a.291.291,0,0,0,.064.1.376.376,0,0,0,.138.175.106.106,0,0,0,.048.048h.079a.1.1,0,0,0,0-.106c-.069-.169-.138-.36-.2-.53s-.148-.413-.228-.593a.1.1,0,0,1,0-.037.323.323,0,0,0-.1-.148l-.106-.074v.365a.843.843,0,0,1,.026.111c-.042-.122-.09-.238-.138-.349a.106.106,0,0,0-.069-.074l-.111-.053v.122a1.06,1.06,0,0,1,0,.259h0l.032.132c-.064-.18-.127-.355-.2-.53a.1.1,0,0,0-.032-.053h-.116v.048a1.065,1.065,0,0,0,0,.132.629.629,0,0,0-.1-.175l-.111-.127v.175a.955.955,0,0,0,0,.127.944.944,0,0,1,0,.127.1.1,0,0,0-.026-.069.117.117,0,0,0-.032-.053h-.116v.053a2.011,2.011,0,0,0,0,.259,2.242,2.242,0,0,0-.132-.307l-.132-.259v.291a3.42,3.42,0,0,0,.032.349,2.279,2.279,0,0,0-.116-.259l-.106-.212v.238a.651.651,0,0,0,0,.148.577.577,0,0,1,0,.138c-.037-.085-.074-.164-.116-.244l-.122-.228v.339l-.026-.048a.317.317,0,0,1,0-.042v-.058a.26.26,0,0,0-.09-.175l-.154-.111.053.18a.969.969,0,0,1,0,.185v.169a.826.826,0,0,0,.032.122l-.079-.207h0a.217.217,0,0,0-.085-.132l-.111-.074v.138a3.267,3.267,0,0,0,.212.953.128.128,0,0,0,0,.042l-.042-.116c-.026-.074-.053-.143-.074-.212a2.994,2.994,0,0,0-.222-.53l-.127-.222v.254a1.907,1.907,0,0,0,.058.455c-.048-.1-.09-.2-.143-.3l-.138-.27v.3a2.812,2.812,0,0,0,.116.651,5.057,5.057,0,0,0-.286-.667l-.164-.312.042.349v.1a1.026,1.026,0,0,1,0,.222h0c.026.106.053.206.085.307-.026-.074-.053-.143-.085-.212v-.037a.927.927,0,0,0-.138-.244l-.132-.138v.191a4.558,4.558,0,0,0,.233.969h0a2.843,2.843,0,0,0-.159-.408c-.042-.106-.09-.212-.127-.323v-.042h0a.09.09,0,0,0-.074-.074.085.085,0,0,0-.079.053h0a5.877,5.877,0,0,0,.164.715h0c-.074-.212-.164-.445-.281-.715v-.064a.53.53,0,0,0-.111-.2l-.127-.127v.18a4.152,4.152,0,0,0,.2.858,1.159,1.159,0,0,0-.106-.233.391.391,0,0,0-.053-.138v-.074a.276.276,0,0,0-.09-.148l-.122-.079v.143a4.371,4.371,0,0,0,.122.577h0v-.058c-.048-.122-.1-.249-.148-.349v-.026a.323.323,0,0,0-.1-.138l-.132-.085.032.154v.138a2.991,2.991,0,0,0,.09.4h0v-.037a.26.26,0,0,1,0-.058h0a.244.244,0,0,1-.058-.1.312.312,0,0,0-.1-.148l-.1-.079v.127a.9.9,0,0,0,0,.132.3.3,0,0,1,0,.122h0v-.09a.185.185,0,0,0-.09-.138.1.1,0,0,0-.085,0h-.042v.053a1.053,1.053,0,0,1,.042.2v.074h-.026a.1.1,0,0,0-.037-.074.625.625,0,0,0-.122-.206l-.154-.154.042.212v.074a.8.8,0,0,1,.032.2h0a.207.207,0,0,1,0-.048.3.3,0,0,0-.069-.106l-.1-.085v.127a.328.328,0,0,0,0,.127v.037h-.1l-.074-.053-.026.079a.108.108,0,0,0-.069.037.317.317,0,0,0-.085.042h-.069a.7.7,0,0,1-.175.1l-.09.037c-.169.079-.323.175-.471.259s-.212.132-.323.191l-.122.079-.334.217-.032-.09a1.3,1.3,0,0,0-.138-.286l-.037-.069a.324.324,0,0,1-.037-.074l.053.053a1.006,1.006,0,0,1,.1.111v.026c.042.053.117.143.191.085l.048-.032-.032-.053-.127-.228a.333.333,0,0,0,.09.079l.148.085-.053-.164a.77.77,0,0,0-.048-.117l.026.032h0c.026.037.079.106.154.074l.074-.032-.042-.064a1.682,1.682,0,0,1-.122-.238l-.048-.1a.956.956,0,0,0,.106.1l.212.148-.111-.233c-.048-.1-.106-.217-.169-.328l.09.1.127.132.217.249-.106-.312a1.588,1.588,0,0,0-.1-.212l.085.085q.079.079.143.032l.058-.042-.048-.053a.637.637,0,0,1-.058-.106.565.565,0,0,0-.085-.143.248.248,0,0,0-.053-.106h0v-.032h.064a.233.233,0,0,0,.074.085l.048.048.026.037a.636.636,0,0,0,.148.143l.191.132-.1-.212a3.183,3.183,0,0,0-.164-.328l-.026-.042h0l.048.042h0l.111.117a1.622,1.622,0,0,0,.185.2l.222.18-.122-.259a4.4,4.4,0,0,0-.217-.413l.064.074.127.138c.058.064.117.132.18.191l.207.191-.1-.259a1,1,0,0,0-.122-.222l-.053-.079a.192.192,0,0,0,0-.048.185.185,0,0,0-.032-.074l-.074-.111a1.29,1.29,0,0,1-.085-.122,1.38,1.38,0,0,1,.143.164,4.021,4.021,0,0,0,.3.307l.27.233-.169-.312-.074-.143-.106-.2.185.18c.069.069.122.058.148.032l.048-.037-.037-.053a1.332,1.332,0,0,1-.111-.212c-.032-.064-.058-.127-.09-.18l-.053-.074-.037-.048h.032a.531.531,0,0,1,.09.1.625.625,0,0,0,.132.132.318.318,0,0,0,.09.111l.037.032.032.037c.032.037.079.1.154.085h.1l-.058-.074a3.667,3.667,0,0,1-.254-.418l-.053-.079a2.961,2.961,0,0,1-.191-.259h0a.863.863,0,0,1,.132.143l.116.127a.423.423,0,0,0,.1.1l.048.042.037.042c.037.048.09.111.164.09h.09l-.053-.079a1.853,1.853,0,0,1-.138-.228l-.085-.143a.528.528,0,0,0-.053-.079.127.127,0,0,1-.032-.048l-.042-.048h.026a.28.28,0,0,0,.085.09h.032a.239.239,0,0,0,.026.053l.048.048a.242.242,0,0,1,.037.037c.122.138.254.275.365.381h0a.122.122,0,0,0,.143.069l.1-.026-.069-.079a1.4,1.4,0,0,1-.148-.228c-.026-.048-.053-.1-.085-.143l-.143-.021-.132-.185-.069-.1-.037-.042h.026c.058.053.106.106.159.164a1.982,1.982,0,0,0,.238.233l.18.143-.079-.217a1.933,1.933,0,0,0-.228-.413l-.026-.042a.148.148,0,0,1,.069,0,.492.492,0,0,1,.122.132v.032h0l.064.048.069.053a.042.042,0,0,0,.032.037c.032.011.079.106.154.079h.09l-.058-.074c-.037-.053-.079-.116-.116-.18l-.032-.058-.064-.1-.037-.058h.026l.037.037c.122.127.249.259.381.381l.233.2-.127-.281a2.377,2.377,0,0,0-.212-.371l-.09-.122a1.058,1.058,0,0,1-.09-.122h0l.1.1a2.081,2.081,0,0,1,.18.2h0v.026a.143.143,0,0,0,.1.069.085.085,0,0,0,.074,0l.048-.042-.042-.048a1.322,1.322,0,0,1-.079-.127.53.53,0,0,0-.085-.138.212.212,0,0,0-.053-.079l-.026-.037h0a5.875,5.875,0,0,0,.445.445l.159.143-.053-.206a.641.641,0,0,0-.1-.191l-.026-.037a.042.042,0,0,1,0-.026.2.2,0,0,0,0-.058.431.431,0,0,0-.064-.074.205.205,0,0,1-.042-.053h.037c.074.064.138.132.2.2s.148.154.228.222l.2.164-.1-.238a1.428,1.428,0,0,0-.111-.2.735.735,0,0,1-.1-.164h0a1.769,1.769,0,0,0,.175.169.983.983,0,0,1,.117.1l.026.026a.111.111,0,0,0,.148.069l.074-.032-.048-.064-.127-.2-.042-.069a.1.1,0,0,0,.1,0l.069-.037-.053-.074h0a.1.1,0,0,0,.069-.053l.042.032.2.143-.1-.222a1.391,1.391,0,0,0-.111-.217l.064.053h.026a.18.18,0,0,0,.074.064h0a.122.122,0,0,0,.1.058h.042l.048-.064-.032-.037c-.032-.042-.058-.1-.09-.148l-.053-.09a1.47,1.47,0,0,0,.175.143l.148.106-.048-.175a.451.451,0,0,0-.048-.127l.032.026a.127.127,0,0,0,.069.058h0v.048h.042a.138.138,0,0,0,.1.058.09.09,0,0,0,.069-.042l.032-.042-.032-.037a.808.808,0,0,1-.085-.132h0c.048.048.106.106.18.079l.069-.026-.037-.064a2.5,2.5,0,0,0-.222-.339h0l.042.037a1.354,1.354,0,0,0,.191.138l.117.058v-.127a.355.355,0,0,0-.053-.127.269.269,0,0,1-.037-.079h.053a.164.164,0,0,0,.106.048.116.116,0,0,0,.228-.032l.026-.032v-.037a1.972,1.972,0,0,0-.164-.286h0l.048-.026a1.156,1.156,0,0,1,.185.09.875.875,0,0,0,.222.111l.116.037-.037-.116a.45.45,0,0,0-.154-.217L248,130.14a.487.487,0,0,1,.2.048.429.429,0,0,0,.212.037h.148l-.116-.1-.042-.032h0a.085.085,0,0,0,.09.032l.429-.037a3.3,3.3,0,0,0,.821-.116l.3-.1h-.312a2.225,2.225,0,0,0-.5,0h-.106l.032-.042h-.138a1.638,1.638,0,0,0-.387.064h-.079a1.059,1.059,0,0,0-.4.069.259.259,0,0,0-.138,0,.159.159,0,0,1-.1,0h-.037l-.026.032a.2.2,0,0,0-.148,0,.175.175,0,0,1-.1,0h-.069v.069h-.111a.492.492,0,0,1-.111.053h-.154l-.381.1h-.037a.18.18,0,0,0-.074.048h-.085l-.032.042-.032.026-.042.032a.328.328,0,0,0-.132,0H246.3a.074.074,0,0,0-.053.042.212.212,0,0,0-.106,0H246.1a.138.138,0,0,0-.058.042h-.1v.037h0a.079.079,0,0,0-.079.037h0a.111.111,0,0,0-.085,0h-.053v.026h0a.132.132,0,0,0-.069.032h0a.17.17,0,0,0-.085,0h-.1v.042h0a.148.148,0,0,0-.079,0h0a.244.244,0,0,0-.074.074.159.159,0,0,1-.037.042h-.138v.042h0a.061.061,0,0,0-.074.079.042.042,0,0,1-.042,0l-.069-.037v.074h0l-.037.032a.048.048,0,0,0,0,.032h-.185v.053a.09.09,0,0,0-.069.074h0a.169.169,0,0,1-.079.032h-.122v.058a.222.222,0,0,1-.138.085H244.3l-.042.048a.531.531,0,0,1-.1.1h0a1.371,1.371,0,0,0-.175.1.2.2,0,0,0-.122.058h-.085l-.026.032a.6.6,0,0,1-.275.169h0a3.147,3.147,0,0,1-.312.2,2.8,2.8,0,0,0-.355.244,4.542,4.542,0,0,0-.63.477h-.1v.048a.259.259,0,0,1-.154.132h0a.079.079,0,0,0,.058,0l.048-.048-.053-.048a.95.95,0,0,1-.116-.132h.2l-.117-.09a.127.127,0,0,0,.058-.032l.037-.048-.042-.042a2.246,2.246,0,0,1-.175-.206.085.085,0,0,0,.058-.026l.042-.053-.048-.042h0l.048.037-.074-.2.064.069-.148-.344a.471.471,0,0,0-.085-.132h0l.042-.053-.048-.042a.952.952,0,0,1-.1-.106V131.3l.032-.042-.042-.037-.085-.1h0l.032-.064h-.058v-.026a.127.127,0,0,0-.032-.048v-.069a.289.289,0,1,0-.519.254h0a.111.111,0,0,0,0-.064h0a.09.09,0,0,0,0-.064v-.064h0v-.111l-.037.1a.2.2,0,0,1-.1-.116h0a.3.3,0,0,0,.2,0l.111-.085-.175-.127-.127-.026-.169-.037-.042-.053h0a1.218,1.218,0,0,0,.381-.042l.27-.1-.286-.032a1.162,1.162,0,0,1-.2-.037,1.012,1.012,0,0,0-.334-.048l-.026-.026h.2a2.687,2.687,0,0,0,.371-.032l.222-.048-.212-.079a2.3,2.3,0,0,0-.567-.1,2.859,2.859,0,0,0,.567-.037h.275l-.259-.1a2.773,2.773,0,0,0-.609-.1,5.351,5.351,0,0,0,.6-.053l.445-.064-.445-.064a1.746,1.746,0,0,1-.328-.079h.032a.71.71,0,0,0,.3-.042l.254-.127h-.307a.577.577,0,0,1-.18-.037,1.117,1.117,0,0,0-.191-.048h-.079a1.868,1.868,0,0,0,.455-.037l.529-.058-.529-.069a.709.709,0,0,1-.143-.037l-.143-.042a.847.847,0,0,0,.3-.037l.259-.09-.275-.037h.011l.2-.053-.2-.069a1.535,1.535,0,0,0-.222-.064l.2-.127.45-.117H240.9a.662.662,0,0,1-.164-.037h-.026a1.057,1.057,0,0,0,.185-.032l.254-.058-.254-.069-.185-.042.169-.037.238-.064-.286-.074h-.079l.122-.037.222-.1-.244-.026a.3.3,0,0,1-.1,0h.1l.249-.111h-.27a1.054,1.054,0,0,1-.164-.037l-.069-.026h.259v-.191c0-.1-.1-.106-.132-.106h0l-.079-.037h.2v-.058c0-.1-.1-.106-.132-.111h0a.148.148,0,0,0-.074-.032h0a.371.371,0,0,0,.175-.048l.159-.1h-.191a.36.36,0,0,1-.148-.064h.116l.18-.026-.154-.1a1.18,1.18,0,0,0-.217-.106h.132l.154-.032-.127-.09-.074-.048.085.032v-.111a.318.318,0,0,0-.032-.1h0v-.085a1.546,1.546,0,0,0-.09-.466v-.042h-.275v.074a.111.111,0,0,0,0,.069.444.444,0,0,0,.027.09.625.625,0,0,1-.1-.058.582.582,0,0,0-.191-.1h0a.09.09,0,0,0-.064.032v.026l.032.058a.631.631,0,0,0,.042.085v.032a1.2,1.2,0,0,0,.159.169l.085.069a1.705,1.705,0,0,0-.8-.116H239.3l.191.1a2.649,2.649,0,0,0,.381.164,4.261,4.261,0,0,0-.662-.032h-.069v.069a.106.106,0,0,0,.037.079.127.127,0,0,0,.053,0h0a3.173,3.173,0,0,0,.529.138h-.111a2.651,2.651,0,0,1-.3,0,1.874,1.874,0,0,0-.529.069l-.2.074.2.053a4.975,4.975,0,0,0,.874.116,4.363,4.363,0,0,0-1.011.154l-.228.064.228.058a1.163,1.163,0,0,0,.2.037,3.062,3.062,0,0,0-.408.1l-.3.106h.323a2.6,2.6,0,0,0,.286,0h-.069l-.4.069h-.053a1.427,1.427,0,0,0-.228.069l-.212.106h.323l-.207.053-.238.079.249.048a.991.991,0,0,0,.222,0h-.079l-.312.106h.561a3.993,3.993,0,0,0-.45.106l-.376.106h.6a.381.381,0,0,0-.164.058l-.122.117h.328l-.307.053h.085a.222.222,0,0,0-.085.048l-.111.1h.148a5.155,5.155,0,0,0-.53.127l-.392.116h.413a4.573,4.573,0,0,0,.529-.026h-.053a2.355,2.355,0,0,0-.4.1l-.355.148h.445l-.339.079.249.032v.376a.1.1,0,0,0,.026.079.148.148,0,0,0,.132.026h.037a.418.418,0,0,0,.117,0h0l-.037.032a.111.111,0,0,0-.1.079h0l-.328.042.344.085a1.511,1.511,0,0,0,.164.032h-.132a.793.793,0,0,0-.249.074l-.222.138h.45l.074.053h-.413c-.064,0-.154.037-.159.058a.074.074,0,0,0,.058.085h0l.355.042h-.122l-.455.1.466.032h.191l-.09.064-.281.032.323.09a.924.924,0,0,0,.175.032l-.117.026a5.62,5.62,0,0,0-.7.175l-.392.143h.413a3.59,3.59,0,0,0,.529-.053,4.579,4.579,0,0,1,.582-.053h-.381v.053h0a1.928,1.928,0,0,0-.312.079l-.291.127h.318a4.6,4.6,0,0,0,.471-.026h.085v.042a1.534,1.534,0,0,0-.371.074,3.911,3.911,0,0,0-.434.122l-.5.164.53-.037.826-.079-.122.053h-.032a2.8,2.8,0,0,1-.492.09v.032a.106.106,0,0,0-.09.058l-.042.1h.529a4.187,4.187,0,0,0-.529.143l-.424.154.45-.026h.3c.164,0,.323-.032.471-.032h0l-.265.042a1.485,1.485,0,0,0-.164.048.577.577,0,0,1-.127.037h-.09a.529.529,0,0,0-.244.085l-.185.143.233-.026.259-.032.482-.053-.1.026-.143.032a2.116,2.116,0,0,0-.4.106l-.381.154.455-.032a3.864,3.864,0,0,0,.6-.048h0a.529.529,0,0,1-.222.074.72.72,0,0,0-.249.074l-.238.143h.556l.085.079h-.148a.678.678,0,0,0-.249.074l-.228.143h.392a.17.17,0,0,0-.164.085.074.074,0,0,0,0,.074v.042h.048a1.186,1.186,0,0,1,.275-.026h.058l-.116.026a.952.952,0,0,0-.3.085l-.3.164.339-.042.4-.037c-.259.058-.5.116-.715.185h-.042a7.746,7.746,0,0,0-2.5-2.441h-.037a7.117,7.117,0,0,0-1.2-.561.27.27,0,0,0-.159-.09.3.3,0,0,0-.132-.111.093.093,0,0,1-.09-.069v-.058h-.1l-.037-.037v-.048h-.058a.122.122,0,0,1-.117-.069v-.037h-.1a.18.18,0,0,1-.064-.064v-.037h-.106l-.058-.042h-.037c-.032,0-.058,0-.058-.032v-.048H232.2l-.058-.042-.074-.058H231.9a.164.164,0,0,1-.138-.053l-.042-.032H231.6a.259.259,0,0,0-.079-.048h-.032v-.042h-.042a.2.2,0,0,0-.085,0,.037.037,0,0,1-.032,0h0a.233.233,0,0,0-.154-.069h0a.291.291,0,0,0-.069.026l-.032-.037a.212.212,0,0,0-.228-.032.18.18,0,0,0-.079.185v.048h.169v.058H231a.4.4,0,0,0,.138,0h0v.053h.2a.4.4,0,0,0,.154.064h0v.069h.175a.058.058,0,0,0,.037,0,.19.19,0,0,0,0,.032v.037h.127v.069h.143a.1.1,0,0,0,.106.085h.079a.132.132,0,0,0,0,.042h0a.138.138,0,0,0-.117.079h0a.432.432,0,0,1-.058.148,1.672,1.672,0,0,1-.085.2h-.048a.593.593,0,0,0,.169-.429v-.058h-.058a.244.244,0,0,0-.222.164s0,0,0,.042a1.109,1.109,0,0,0-.069.138.417.417,0,0,1-.026.074,5.075,5.075,0,0,0-.53-.154h0l-.148-.032v-.026h-.122l-.233-.032.09-.032h-.18l.169-.037h-.635a1.758,1.758,0,0,1-.217,0,1.405,1.405,0,0,0-.222-.032,3.575,3.575,0,0,0-.667.037l-.27.037.259.09a.888.888,0,0,0,.244,0l-.032.027-.116.122h.175l.4-.053-.185.106-.138.079h0a.265.265,0,0,1-.053.058.361.361,0,0,0-.079.1l-.111.191.2-.1.228-.122.127-.069a2.313,2.313,0,0,0-.418.4l-.143.169.212-.069a.571.571,0,0,0,.175-.106l.048-.037h.053a.179.179,0,0,0,.048-.042h0l.111-.069a1.394,1.394,0,0,0,.212-.148h0l-.064.048a2.473,2.473,0,0,0-.344.318l-.09.1a.661.661,0,0,0-.079.1l-.032.053-.032.026c-.037.037-.1.1-.064.175l.042.09.064-.074a1.724,1.724,0,0,1,.233-.2l.122-.1h0c.164-.143.339-.286.529-.439h0a2.279,2.279,0,0,0-.3.3c-.064.079-.132.159-.2.233l-.042.048-.1.154-.032.042a.207.207,0,0,0-.069.164v.116l.085-.085.169-.159-.079.116-.032.048-.032.037a.217.217,0,0,0-.085.175v.148l.1-.111a2.209,2.209,0,0,1,.191-.2,1.271,1.271,0,0,1-.117.122h0a1.789,1.789,0,0,1-.132.191l-.053.074-.026.037c-.042.058-.1.122-.069.2l.042.116h0a.1.1,0,0,0,.026.1l.053.058.048-.069a1.457,1.457,0,0,1,.212-.233.122.122,0,0,0,0,.127l.048.074.058-.064.127-.132-.053.1a.238.238,0,0,0-.09.122.148.148,0,0,0-.058.069h0a.074.074,0,0,0-.037.079.079.079,0,0,0,.069.058h.032l.2-.206.116-.127-.032.058-.053.064a.286.286,0,0,0-.1.2l.026.132.09-.1.222-.249-.048.074c0,.032-.037.064-.058.09a.377.377,0,0,1-.037.048.2.2,0,0,0-.074.175v.064h0a8.541,8.541,0,0,0-2-.328l.106-.1-.175.1h0a.085.085,0,0,0-.085,0,.811.811,0,0,0-.222,0s-.032,0-.042.042h0v-.037h-.048a.344.344,0,0,0-.365.344.154.154,0,0,0-.032-.111.249.249,0,0,0-.281-.09l-.053.026v.053a.459.459,0,0,0,.037.09.826.826,0,0,0-.6.079l-.127.085.154.032a1.7,1.7,0,0,0,.254,0,1.255,1.255,0,0,0,.4-.058h.154v-.026a.212.212,0,0,0,.048-.106v.154l.09-.032a.418.418,0,0,0,.122-.074.132.132,0,0,0,.032.074l.042.042.069-.053h0l-.058.111.148-.053.122-.053-.032.1.111-.026a.334.334,0,0,0,.116-.048.085.085,0,0,0,.026.058l.037.048.048-.037.1-.058a.1.1,0,0,0,0,.074l.037.069.058-.053h.026a.064.064,0,0,0,0,.048l.032.048.053-.032.053-.037h0a.1.1,0,0,0,0,.058l.037.053.069-.053h.037l-.058.116.2.09a.323.323,0,0,0,.122-.053.169.169,0,0,0,0,.069l.037.074.1-.074.053-.037a.132.132,0,0,0,0,.09l.032.069.064-.042.048-.032a.079.079,0,0,0,0,.058l.048.1.064-.1a.4.4,0,0,1,.111-.079h0a.439.439,0,0,1-.042.064l-.143.191.222-.09a1.589,1.589,0,0,0,.185-.111.376.376,0,0,1,.074-.053v.026a.175.175,0,0,0-.069.185l.042.1.069-.085a.185.185,0,0,1,.122-.079.106.106,0,0,0-.042.09.074.074,0,0,0,.037.069l.048.037.042-.042a.572.572,0,0,1,.154-.111l.079-.048a.116.116,0,0,0-.026.042h0a.2.2,0,0,0-.074.127.1.1,0,0,0,.032.069l.042.037.042-.037c.064-.048.132-.1.222-.159h0l-.042.053a.164.164,0,0,0-.064.18l.032.09.069-.064a1.34,1.34,0,0,1,.291-.2.222.222,0,0,0,0,.037v.032h-.048v.079a.106.106,0,0,0-.042.09.064.064,0,0,0,.037.053l.042.037.042-.042a.339.339,0,0,1,.111-.074.731.731,0,0,0,.148-.1h.037v.032l-.053.074h0a.185.185,0,0,0-.079.127.074.074,0,0,0,.032.064l.048.042.042-.042a.948.948,0,0,1,.27-.191.428.428,0,0,1-.074.106.584.584,0,0,0-.074.111l-.106.18.191-.09a1.234,1.234,0,0,0,.212-.143l.058-.042h.069l-.116.154-.09.117h.058l-.058.085c0,.037-.048.069-.069.1v.032c0,.032-.042.058-.064.1a.09.09,0,0,0-.032.074.074.074,0,0,0,.032.058l.048.037.042-.042c.074-.079.143-.164.212-.249s.175-.207.265-.3a.356.356,0,0,0-.032.064h0c0,.026-.058.058-.053.106a.074.074,0,0,0,0,.053.1.1,0,0,0,0,.09l.048.048.048-.048.079-.1.1-.111-.042.053a.577.577,0,0,0-.069.09l-.064.1h.085l-.053.1a.212.212,0,0,0-.074.127v.053l.079.026.079-.09.159-.18a.069.069,0,0,0,0,.032.09.09,0,0,0,.032.058h0a.673.673,0,0,1-.069.1l-.1.143.164-.042a.18.18,0,0,0,.116-.085h.064a.623.623,0,0,0-.058.1.2.2,0,0,0-.074.127v.053h.079l.032-.032.217-.249h0l-.042.074h.048a.979.979,0,0,0-.122.191.233.233,0,0,0-.09.132.085.085,0,0,0,.042.069l.048.032.037-.048a3.718,3.718,0,0,1,.281-.307c.058-.058.111-.111.159-.169a.09.09,0,0,0,0-.053h.026a1.059,1.059,0,0,0-.085.127l-.037.048a1.98,1.98,0,0,0-.169.259h0s-.069.042-.058.1a.079.079,0,0,0,.064.069h.042l.037-.048c.1-.122.207-.244.318-.355h0a.132.132,0,0,0-.058.1.085.085,0,0,0,0,.042.111.111,0,0,0,0,.127l.053.079.058-.074a1.412,1.412,0,0,1,.164-.191v.026a.529.529,0,0,0-.064.09l-.074.127.127-.026c0,.026-.053.058-.037.1l.026.048h.079v-.037h.032a.154.154,0,0,0-.042.154l.042.085.069-.069.09-.1h0c-.037.048-.1.117-.053.18l.032.042a8.583,8.583,0,0,0-4.119-.762,9.614,9.614,0,0,0-1.006.138l-.169.032a.18.18,0,0,0-.064.032h-.164l-.079.032h-.164a5,5,0,0,0-.752.254h-.048a.09.09,0,0,0-.064.032h-.032a.466.466,0,0,0-.185.116h-.032a1.06,1.06,0,0,0-.212.154h0l-.042-.032-.037.032-.069.048-.079.053a.127.127,0,0,0-.064,0h0a2.253,2.253,0,0,1-.244.143c-.085.048-.175.1-.254.148l-.079.048a.875.875,0,0,0-.164.106.529.529,0,0,0-.175.111.122.122,0,0,0-.064.032.074.074,0,0,0,.053.132h0a2.013,2.013,0,0,1,.18-.106v.053l.111-.053a1.524,1.524,0,0,0,.312-.206.926.926,0,0,0-.085.143s-.122.175-.074.259l.053.1.058-.09c.064-.1.138-.191.207-.281l-.1.18v.037a.3.3,0,0,1,0,.079.17.17,0,0,0,0,.175l.069.1.042-.116a1.154,1.154,0,0,1,.127-.222l.058-.09.032-.074a.132.132,0,0,1,0-.048.44.44,0,0,1,.042-.064,2.414,2.414,0,0,1-.143.376v.037a.3.3,0,0,1,0,.132.238.238,0,0,0,0,.2l.058.127.058-.132c.127-.291.265-.582.4-.863a2.707,2.707,0,0,0-.079.3l-.032.132a.3.3,0,0,0,0,.074.98.98,0,0,0-.053.413l.048.238.148-.413a1.132,1.132,0,0,0,0,.328l.026.312a.079.079,0,0,0-.074-.032.074.074,0,0,0-.069.042v.064a7.782,7.782,0,0,1,.577,1.361l.074.217.053-.228a.752.752,0,0,0,0-.349v-.048a1.384,1.384,0,0,0-.069-.275l-.026-.064a.3.3,0,0,0,0-.074,1.333,1.333,0,0,0-.127-.228l.058-.191a.263.263,0,0,0,0-.069h0a8.107,8.107,0,0,1,.365,1.3l.064.328.064-.328a1.811,1.811,0,0,0-.212-1.207l.058.037c.048.122.09.249.132.376l.032.1c.048.185.09.371.116.529a.149.149,0,0,1,0,.048.2.2,0,0,0,.079.169l.085.053v-.1a1.515,1.515,0,0,0,0-.6h0v-.064c.042.164.1.376.132.529h0a.122.122,0,0,0,0,.117.085.085,0,0,0,.079,0h.053V139.3a1.589,1.589,0,0,0,0-.349v.042a.591.591,0,0,0,0,.09.477.477,0,0,0,.069.259l.1.138v-.164a1.9,1.9,0,0,0,0-.424,1.448,1.448,0,0,0,.053.254.069.069,0,0,1,0,.032.2.2,0,0,0,.074.164l.09.058v-.1a1.918,1.918,0,0,0,0-.582c.026.085.048.169.074.254h0a1.367,1.367,0,0,0,.069.344l.111.259V139.3a2.156,2.156,0,0,1,.032-.318h0l.016.138a1.9,1.9,0,0,0-.048-.238c.058.222.117.45.164.683l.069.3.058-.3a1.479,1.479,0,0,0,0-.53c.042.148.079.3.116.445l.09.376.064-.254a.964.964,0,0,0,.032-.244.931.931,0,0,0,.069.259l.106.2v-.492a2.349,2.349,0,0,1,0-.281c.032.111.058.228.079.339l.048.217.079.318.048-.323a1.773,1.773,0,0,0,0-.651l.037.042V139l.048.169a1.391,1.391,0,0,1,.037.159,1.309,1.309,0,0,0,.069.275l.117.27v-.387a1.339,1.339,0,0,0-.032-.529h0v.053c.026.09.053.175.085.265h0a1.324,1.324,0,0,0,.069.339l.1.238V139.6a1.7,1.7,0,0,0,0-.635V138.9a.483.483,0,0,1,.026.164v.09h.058a.111.111,0,0,0,0,.053v.079a2.257,2.257,0,0,0,.069.339l.09.249.037-.265a1.463,1.463,0,0,0,0-.159v-.026l.053-.143v-.042a1.175,1.175,0,0,1,0,.132,1,1,0,0,0,.058.249l.069.233.058-.233a1.017,1.017,0,0,0,0-.4l.032-.079V139.1l.032.074a.409.409,0,0,1,.037.09,1.06,1.06,0,0,1,0,.138.7.7,0,0,0,.069.27l.1.185v-.212a1.961,1.961,0,0,0,0-.556h0v-.079c0,.058.048.122.064.18a.926.926,0,0,1,.032.175,1.1,1.1,0,0,0,.074.281l.143.318v-.349a1.662,1.662,0,0,1,0-.365v-.037a.742.742,0,0,0-.053-.206v-.032h0a5.936,5.936,0,0,1,.18.683l.064.3.064-.3a1.1,1.1,0,0,0,0-.191.671.671,0,0,1,0-.185v-.032a.164.164,0,0,0-.037-.122V139.1h0a.3.3,0,0,1,0,.064.711.711,0,0,0,.037.1v.032c0,.032-.032.143,0,.185l.032.026h0a.641.641,0,0,0,.042.18l.079.164.042-.18a.736.736,0,0,0,0-.244l.048.09.026-.122v.026a.1.1,0,0,1,0,.053.106.106,0,0,0,.037.138h0c0,.048,0,.138.1.138h.074v-.1a.334.334,0,0,0,0,.037l.132.312v-.228l.058.064V139.7a.414.414,0,0,0,0-.116l.074.132v-.053a.238.238,0,0,0,.064.111l.117.1a.824.824,0,0,0,0,.111h-.037l.032.042-.111.132h0l-.132.175h-.106l.069.053-.079.122-.058.09h.143a.217.217,0,0,0-.085,0h-.032v.026c0,.037-.037.09.053.148h0v.026a.682.682,0,0,0-.164-.085h-.09v.1a.217.217,0,0,0,.058.127h0a.122.122,0,0,0-.106-.064h-.037v.032a.255.255,0,0,0-.037.106h0v.032a1.588,1.588,0,0,1-.3.3l-.053.042-.032.026a4.771,4.771,0,0,0-.487.418c-.1.1-.191.2-.281.3s-.2.217-.3.318h0l-.09.18-.132.265a.532.532,0,0,0,0,.064v.026h0a.143.143,0,0,0-.037.064,1.276,1.276,0,0,0,0,.567.122.122,0,0,0,.032.058h0l-.085.106h.127a.26.26,0,0,0,.042.122.217.217,0,0,0,.132.1,9.141,9.141,0,0,0-.863,1h0a.677.677,0,0,0-.074.122,7.354,7.354,0,0,0-.641,1.006h0q-.206.371-.365.715h0v.048q-.1.2-.175.4a1.218,1.218,0,0,1-.064.18,2.275,2.275,0,0,0-.079.228l-.079-.09.032.222a.492.492,0,0,0,.18.27l.048.042.058.058a1.339,1.339,0,0,0,.228.206l.058.053.037.032.037.032a3.2,3.2,0,0,0,.381.281l.037.026a.275.275,0,0,0,.154.074h.048l.228-.127h-.249a3.5,3.5,0,0,0-.529-.53,1.385,1.385,0,0,0-.132-.122.8.8,0,0,1-.138-.127h0a.318.318,0,0,1-.127-.085h-.122a.185.185,0,0,0,.026-.069,6.317,6.317,0,0,0,.529.4h0l.281.2h.032a1.446,1.446,0,0,0,.291.169c.053.053.169.122.238.09l.09-.037-.069-.069-.169-.159-.032-.032a.949.949,0,0,1,.116.069l.053.037.048.032a.339.339,0,0,0,.2.079h.138l-.1-.1-.254-.244c.185.138.371.27.529.381a.111.111,0,0,0,.079.032.085.085,0,0,0,.058-.026l.026-.037h.048a.09.09,0,0,0,.069.026.079.079,0,0,0,.058-.064v-.037l-.026-.026-.233-.228-.053-.048c.074.058.154.116.228.09l.1-.032-.074-.074-.148-.143h.037l.042.032h0a.064.064,0,0,0,.042,0l.032.032a.2.2,0,0,0,.058.058.069.069,0,0,0,.042,0,.111.111,0,0,0,.106.048.085.085,0,0,0,.053-.069v-.032h0l-.106-.1h.042a.071.071,0,0,0,.127-.037v-.037l-.132-.132-.148-.143.259.18h.026a.206.206,0,0,0,.154.064h.132l.159.111a.186.186,0,0,0,.053.042h0s.064.058.111.042h.048v-.074l-.148-.148-.4-.381h.037a1.094,1.094,0,0,1,.132.1l.127.09.117.085c.053.048.1.058.138.026l.064-.042-.053-.053c-.254-.249-.529-.5-.778-.741l-.032-.032c.275.222.53.439.842.646l.217.159-.026-.058a.122.122,0,0,0,.069,0,.111.111,0,0,0,.037-.074h0v-.053a.122.122,0,0,1,.032-.064h0v-.085c.037-.164.079-.328.106-.529h0a.743.743,0,0,1,0-.106v-.09h0a.074.074,0,0,0,.064-.037l.037-.042-.042-.042-.048-.042a.3.3,0,0,1-.079-.085h0l.334.27a.613.613,0,0,0,.111.085l.1.074.037.032a.239.239,0,0,0,.048.053c.053.037.138.106.191.048l.042-.048-.037-.042c-.18-.2-.376-.381-.561-.556l-.244-.233h0l.1.074a1.84,1.84,0,0,1,.148.127l.053.032.164.111h0a.154.154,0,0,0,.1.064.106.106,0,0,0,.069,0l.053-.048-.191-.185-.36-.344h0a.957.957,0,0,1-.1-.111h0c.191.175.4.334.609.492h.032a.3.3,0,0,0,.09.064.222.222,0,0,0,.132.09.069.069,0,0,0,.074-.037l.026-.048-.042-.037c-.116-.106-.228-.217-.339-.328s-.228-.233-.344-.339l-.064-.058-.058-.048h.037l.037.026c.069.048.138.106.2.159a2.333,2.333,0,0,0,.265.2h0a.053.053,0,0,1,.037.026.239.239,0,0,0,.09.053h0c.032.037.079.079.127.074a.074.074,0,0,0,.064-.032l.048-.048-.053-.042a2.8,2.8,0,0,1-.281-.281l.143.106.064.048a.275.275,0,0,0,.058.053h0a.09.09,0,0,0,.053.037.127.127,0,0,0,.085.048.085.085,0,0,0,.069-.074V146h0a1.7,1.7,0,0,0-.169-.169l-.079-.074-.064-.074-.085-.09h.032a.228.228,0,0,1,.048.053.391.391,0,0,0,.069.064.127.127,0,0,0,.053,0h0a.079.079,0,0,0,.026.037.058.058,0,0,0,.053,0l.032.037a.532.532,0,0,0,.1.074.223.223,0,0,0,.085.069h0s.042.053.085.042.048,0,.064-.058v-.037h0c-.143-.148-.3-.307-.466-.466l.132.1a2.067,2.067,0,0,0,.212.164h.026a.111.111,0,0,0,.085.048.079.079,0,0,0,.069-.032l.037-.048-.042-.042-.18-.164c-.074-.074-.148-.138-.206-.2a.09.09,0,0,0-.026-.064.111.111,0,0,0-.064-.037h0l-.106-.1a1.876,1.876,0,0,1,.164.122l.085.064.127.1h0c.032.032.106.1.18.032l.053-.048-.058-.048a3.051,3.051,0,0,1-.233-.222,2.054,2.054,0,0,0-.312-.291.71.71,0,0,0-.18-.175l-.1-.085h0l.466-.058.148.122.291.238a4.98,4.98,0,0,0,.466.36l.053.037h0c0,.026.064.064.111.048h.048v-.074l-.09-.079-.09-.085.058.032a.117.117,0,0,0,.058.048v.026h.032a.1.1,0,0,0,.1.037.069.069,0,0,0,.053-.053v-.037l-.032-.032-.037-.037h.048a.079.079,0,0,0,.143,0v-.042l-.026-.032-.069-.069c.09.069.18.138.275.2h0a.132.132,0,0,0,.148.042l.1-.042-.074-.069-.122-.111h.037l.164.122-.064-.2a.18.18,0,0,0-.032-.064l.042.032.053.037v.053h.053a.111.111,0,0,0,.1.032.1.1,0,0,0,.053-.053v-.042l-.058-.053a3.037,3.037,0,0,1-.318-.323h0l.09.079a1.679,1.679,0,0,0,.244.175.212.212,0,0,0,.127.1.079.079,0,0,0,.079-.037l.032-.048-.048-.037a3.079,3.079,0,0,1-.228-.228h0l.106.074h0c.026.026.058.064.106.053h.042l.027-.074-.027-.032c-.1-.1-.2-.2-.3-.3l.048.026a.063.063,0,0,0,.074,0,.069.069,0,0,0,.058-.058h0l.111.085.281.233h0a.164.164,0,0,0,.074.048c.026.037.058.085.116.085a.079.079,0,0,0,.074-.037l.037-.048-.042-.037c-.164-.154-.323-.312-.477-.471h0l.026.026a.132.132,0,0,0,.143.053l.085-.037-.064-.069c-.085-.09-.169-.185-.265-.275l.085.069.079.053a.578.578,0,0,0,.09.069l.048.037c.042.042.111.106.191.064l.079-.042-.069-.064-.106-.1.1.058a.159.159,0,0,0,.064.058h0v.032h.064c.026,0,.058.053.1.042h.042l.037-.069-.032-.032c-.037-.037-.069-.074-.106-.106l.085.064h0a.281.281,0,0,1,.074.053c.058.053.127.111.2.085l.1-.037-.074-.074c-.085-.074-.164-.154-.244-.233l.2.148h0a.17.17,0,0,0,.074.053.143.143,0,0,0,.111.074.117.117,0,0,0,.074-.053v-.042l-.037-.037-.281-.27.074.064h0a1.06,1.06,0,0,1,.159.111l.048.037.048.032h.037v.048h.053a.1.1,0,0,0,.085.042.074.074,0,0,0,.058-.037l.037-.042-.042-.042a3.312,3.312,0,0,1-.265-.281l-.037-.042a.138.138,0,0,0,.169.053l.064-.037.222.169.18.127-.079-.206a.529.529,0,0,0-.117-.159l-.106-.106-.048-.053.122.09.159.106-.058-.18a.466.466,0,0,0-.106-.154h0l-.185-.185.169.111.048.026a.127.127,0,0,0,.1.053.106.106,0,0,0,.064-.042l.032-.048-.037-.037-.18-.185-.037-.042h.032l.085.048.042.037a.212.212,0,0,0,.18.079l.122-.026-.09-.085-.064-.058-.053-.048h.032a.138.138,0,0,0,.148.048l.085-.037-.064-.069-.074-.074h.058a.1.1,0,0,0,.048,0,.106.106,0,0,0,.037.053.053.053,0,0,0,.048,0c0,.026.053.064.1.048a.09.09,0,0,0,.058-.069v-.032h0l-.169-.175a.127.127,0,0,0,.1,0l.058-.053-.064-.053h0l.111.064.148.09-.053-.169a.132.132,0,0,0,0-.037c.053.037.111.064.164.032l.064-.042-.048-.058-.058-.058.164.09.143.069-.048-.148a.445.445,0,0,0-.106-.148h0c-.1-.106-.212-.2-.312-.291h0a.318.318,0,0,0,.164.048h.138l-.1-.1-.085-.1-.154-.159h0a.349.349,0,0,1-.069-.042l-.064-.048h0l.5-.064v.026h0a.191.191,0,0,0,.09.116h.048v-.042a.064.064,0,0,0,0-.079.266.266,0,0,0-.026-.069h.286l.032.053.032.048c0,.588-.042,1.138-.069,1.747a2.626,2.626,0,0,1-.042.567c-.042.191,0,.254-.026.36v.387c-.053.8-.106,1.631-.164,2.415,0,.281-.048.577-.074.858s-.042.471-.064.7c-.1,1.244-.2,2.383-.307,3.484-.074.773-.159,1.551-.244,2.3l-.064.619c-.032.265-.058.529-.085.794-.074.731-.148,1.424-.244,2.118-.138,1-.265,1.906-.429,2.79s-.344,1.657-.53,2.452l-.048.206a40.949,40.949,0,0,1-1.509,4.956c-.328.868-.614,1.588-.942,2.293a7.237,7.237,0,0,1-.44.773,4.237,4.237,0,0,0-.662,1.393.354.354,0,0,0,0,.106v.085a1.006,1.006,0,0,0,.445.63h.037a1.092,1.092,0,0,0,.254.111.937.937,0,0,0,.286.037h.106a1.058,1.058,0,0,0,.328-.143h0c2.383-4.326,3.781-9.658,4.405-16.774,0-.249.037-.529.058-.773a4.8,4.8,0,0,1,.042-.6c.111-1.4.206-2.753.275-3.918l.048-.852c.037-.63.079-1.281.106-1.89a5.936,5.936,0,0,1,.026-.694,5.261,5.261,0,0,0,0-.646v-2.457c.127,1.477.233,3.055.249,4.723l-.1.048h.1v.371l-.085.042h.085v.154l-.09.042.09.026h0a.058.058,0,0,0,.048.058h.042a6.882,6.882,0,0,1,.942.387l.376.18.106.048v-.116a.159.159,0,0,0-.085-.116h0l-.037-.037h0l.042.026a.233.233,0,0,0,.132.058h.053l.1-.042-.079-.064-.085-.069h.026a.148.148,0,0,0,.09.058h0c.026,0,.064.048.106.037a.074.074,0,0,0,.064-.048l.032-.058h.127l-.09-.1-.138-.132h0a.1.1,0,0,0,.058-.048v-.042l-.032-.032a.127.127,0,0,0,.09,0l.111-.032-.085-.079-.117-.111a.106.106,0,0,0,.058,0l.106-.037-.079-.074-.064-.058a.212.212,0,0,0,.1,0h.079a.228.228,0,0,0,.175.079h.143l-.111-.09c-.058-.048-.116-.106-.169-.159a.079.079,0,0,0,.053,0,.085.085,0,0,0,.064-.042l.026-.042-.037-.037c-.09-.09-.191-.185-.291-.27h0l.042.037a.233.233,0,0,0,.169.079h.132l-.09-.1a1.909,1.909,0,0,0-.185-.175.122.122,0,0,0,.09,0l.09-.058-.1-.053a.46.46,0,0,1-.116-.09h.042a.132.132,0,0,0,.143.042l.1-.042-.148-.127c-.058-.048-.116-.1-.164-.143a.191.191,0,0,0,.111.026l.132-.026-.1-.09-.334-.291.079.053h.026a.138.138,0,0,0,.1.042.09.09,0,0,0,.058-.032l.032-.048.111.09h.032c.032.026.064.058.106.053a.085.085,0,0,0,.058,0l.037-.048-.069-.069-.312-.3a.09.09,0,0,0,.074,0,.058.058,0,0,0,.053-.042l.026-.042-.037-.037-.1-.085h0a.127.127,0,0,0,.074.053h0a.074.074,0,0,0,.079.037.079.079,0,0,0,.058-.069v.069h-.026l-.185-.175-.048-.048h0a.117.117,0,0,0,.1.037.106.106,0,0,0,.064-.053v-.042l-.037-.037-.048-.037h.032l.159-.032-.132-.09h.005a.079.079,0,0,0,.058-.069V147h-.032l-.138-.127h0a.1.1,0,0,0,.064-.053l.032-.053-.058-.032a.651.651,0,0,1-.148-.122l-.042-.042h0a.138.138,0,0,0,.048,0h.127l-.1-.09-.138-.116a.133.133,0,0,0,.1,0l.132-.042-.116-.074-.048-.032h.032l.09-.064.519-.159-.048-.026h0l.138-.032h0l.127-.032-.1-.085-.085-.079.037-.064h0l.106-.037-.079-.074-.064-.058h0l.132-.032-.106-.085-.106-.09h.169l-.154-.106a1.15,1.15,0,0,1-.159-.122l-.064-.058h.026l.053.026h0a.153.153,0,0,0,.042.037h.042a.169.169,0,0,0,.159.058h0l.106-.032-.09-.074.037-.339a.953.953,0,0,1,.032-.169v.042a.323.323,0,0,0,0,.222l.111.18v-.212a.419.419,0,0,1,0-.079.458.458,0,0,0,0-.127c.037-.064.069-.132.1-.2a.9.9,0,0,1-.069.143h0a.244.244,0,0,1,0,.106.259.259,0,0,0,0,.207l.111.169v-.2a.212.212,0,0,1,0-.079.829.829,0,0,0,0-.127h0a.724.724,0,0,1,0,.1.313.313,0,0,0,0,.217l.127.206v-.244a.6.6,0,0,1,0-.1.423.423,0,0,0,0-.127l.064-.116a.627.627,0,0,1-.053.148h0a.932.932,0,0,1,0,.122v.132l.074.111.042-.127a1.061,1.061,0,0,0,.042-.185h0a.228.228,0,0,1,0,.1.2.2,0,0,0,0,.18l.111.154v-.191a.577.577,0,0,1,.026-.138.753.753,0,0,0,0-.116,2.768,2.768,0,0,0,.217-.434h0c-.042.111-.09.217-.138.318l-.069.143v.037a.94.94,0,0,1,0,.122.228.228,0,0,0,0,.159l.085.138.032-.154a1.217,1.217,0,0,1,.053-.249v.005a.408.408,0,0,0,0,.275l.127.228v-.132l.122.191v-.233a.275.275,0,0,1,0-.1v-.111h0a.185.185,0,0,1,0,.09.222.222,0,0,0,0,.191l.111.143v-.18a.845.845,0,0,1,.037-.175h0a.265.265,0,0,0,0,.228l.127.185v-.228a.243.243,0,0,1,0-.106h0a.22.22,0,0,1,0,.053.179.179,0,0,0,.053.159l.116.074v-.138a.106.106,0,0,1,0-.058h0a.179.179,0,0,0,.053.159l.122.074-.026-.143a.132.132,0,0,1,0-.048.127.127,0,0,0,.053.116l.127.074-.032-.143a.069.069,0,0,1,0-.048.322.322,0,0,0,0-.079,1.323,1.323,0,0,0,.1-.2l.048-.111h0a.716.716,0,0,1-.048.175.609.609,0,0,0-.053.365l.069.286.058-.286a2.42,2.42,0,0,1,.381-.837,1.414,1.414,0,0,0-.085.154c-.042.069-.079.138-.122.2h0a.635.635,0,0,1-.048.154.529.529,0,0,0-.037.355l.1.3.032-.312a1.494,1.494,0,0,1,.249-.625V144.7l.037-.069.048-.085.117-.159a.4.4,0,0,1,.042-.058l.159-.069.085-.037-.037.037-.085.1v.026l-.032.037v.032l-.048.048a.494.494,0,0,0-.074.074.218.218,0,0,0-.026.048v.027l-.069.1a1.792,1.792,0,0,0-.159.27.053.053,0,0,0,0,.048.079.079,0,0,0-.032.1v.032a.212.212,0,0,0,0,.233l.09.122V145.4a1.091,1.091,0,0,1,.164-.365l.079-.148a.069.069,0,0,0,.037-.032.106.106,0,0,0,0-.042v-.032l.074-.117a.069.069,0,0,0,.037-.032.323.323,0,0,0,.037-.053.212.212,0,0,1,.079-.1c.254-.122.529-.254.757-.381l.079-.042c-.175.111-.355.222-.529.344h-.042v.032l-.116.106a3,3,0,0,0-.3.328.127.127,0,0,0-.026.053h0l-.058.074c-.026.037-.058.074-.085.116a.614.614,0,0,0-.09.349v.249l.1-.233a3.065,3.065,0,0,1,.63-.879l.471-.228h0l-.042.026-.069.053a1.588,1.588,0,0,0-.233.18l-.085.085h-.026a.606.606,0,0,1-.079.085,1.853,1.853,0,0,0-.323.413h0a.365.365,0,0,0-.064.217v.207l.106-.175a2.3,2.3,0,0,1,.265-.371.339.339,0,0,0,.053-.069.349.349,0,0,1,.085-.09h.032V144.9h0a.127.127,0,0,0,.053-.069h0a.132.132,0,0,0,.053-.106h.042c.307-.122.6-.259.884-.4h0a1.06,1.06,0,0,1-.2.111h0l-.18.122a3.174,3.174,0,0,0-.344.249.127.127,0,0,0-.058.032.111.111,0,0,0-.053.032.074.074,0,0,0,.053.132h.032v-.026l.556-.281c.159-.079.318-.154.471-.238h.064l-.074.053a1.217,1.217,0,0,0-.233.132c-.064.037-.122.074-.191.106h-.026v.026a.243.243,0,0,1-.069.042h0a.034.034,0,0,0-.032.032h0a.053.053,0,0,0-.032.026h0a.122.122,0,0,0-.042.048h-.026a.138.138,0,0,0-.106.154v.074l.074-.037.455-.228.466-.238-.106.069-.09.064-.1.058c-.106.064-.212.127-.323.207l-.058.037-.074.042-.064.053a.148.148,0,0,1-.053.048h-.069l-.048.037h-.032a.129.129,0,0,0-.1.132,1.234,1.234,0,0,0-.307,0,.9.9,0,0,0,.217-.175l.1-.111h-.154a.667.667,0,0,0-.62.339l-.074.138.148-.042.111-.037c.026.074.106.09.154.1h.222a.281.281,0,0,1,.1,0h.291a.238.238,0,0,0,.185-.058l.069-.069-.09-.037a1.471,1.471,0,0,0-.2-.064c.487-.265.99-.53,1.472-.784l.122-.064a7.342,7.342,0,0,0-.98.63l-.323.254.387-.143a5.479,5.479,0,0,0,.71-.334l.328-.169.106-.037.116-.048.154-.074.185-.1a9.075,9.075,0,0,0-1.541.937l-.387.3.45-.191c.307-.132.6-.275.874-.418h0l-.079.064a4.945,4.945,0,0,0-.72.466l-.529.4.529-.217c.244-.106.477-.222.7-.339l.318-.159.132-.069a5.887,5.887,0,0,0-.852.577l-.355.281.418-.169c.222-.09.429-.2.63-.3a6.93,6.93,0,0,0-.678.477l-.371.291.434-.18c.318-.132.62-.291.905-.445l.307-.164a9,9,0,0,0-1.138.752l-.376.3.439-.185a6.886,6.886,0,0,0,.688-.328H247.6a.212.212,0,0,0-.079.042h0l-.037.032h-.069a.566.566,0,0,0-.085.074l-.053.048-.117.074a.949.949,0,0,0-.2.159l-.206.222.281-.122c.169-.069.334-.154.492-.233H247.5l-.244.222.312-.111a4.312,4.312,0,0,0,.455-.185c-.1.074-.2.148-.3.228l-.281.233.344-.122a2.866,2.866,0,0,0,.371-.154,2.831,2.831,0,0,0-.281.217.154.154,0,0,0-.079.048.09.09,0,0,0,0,.085.069.069,0,0,0,.064.048h0l.365-.169.079-.037c-.09.069-.175.132-.254.2l-.275.228.339-.116.238-.09-.053.042a.3.3,0,0,0-.079.053.2.2,0,0,1-.069.048h-.026l-.042.032c-.037,0-.074.042-.085.085a.079.079,0,0,0,0,.069l.032.048.053-.032a2.069,2.069,0,0,1,.217-.1h.026l-.127.106-.238.2.3-.09a4.017,4.017,0,0,0,.667-.286c-.106.079-.207.159-.3.244l-.191.18.254-.069a3.287,3.287,0,0,0,.439-.159.424.424,0,0,0-.09.079h0a.18.18,0,0,0-.085.064.132.132,0,0,0-.1.1.069.069,0,0,0,.048.09h.042a5.83,5.83,0,0,0,.667-.249l.265-.106h0a2,2,0,0,0-.762.577l-.154.164.217-.053a1.72,1.72,0,0,0,.281-.116,1.73,1.73,0,0,1,.175-.074h0a1.527,1.527,0,0,1,.154-.1l.122-.085h0a.18.18,0,0,0,.1-.116v-.032h0v-.037h0l-.053-.159c-.037-.116-.079-.233-.122-.349v-.026h0c-.111-.291-.233-.577-.36-.847h0l-.1-.2h0a8.948,8.948,0,0,0-4.607-4.2l.085-.048-.122.026c-.3-.127-.6-.244-.916-.355l.069-.355a2.022,2.022,0,0,0-.058-.879v.048c.026.148.058.291.09.429l.032.127a.834.834,0,0,1,0,.106.4.4,0,0,0,.032.212l.079.132.037-.154a1.588,1.588,0,0,0,0-.672v-.116a4.073,4.073,0,0,1,.138.794h.132a1.958,1.958,0,0,1,.032-.3h0V140.6a4.033,4.033,0,0,1-.064-.461h0c-.048-.116-.09-.233-.132-.349l-.026-.069c.032.074.064.159.09.228l.042.106.058.159a1.232,1.232,0,0,1,.026.159v.127l.032.122a.869.869,0,0,1,.037.148.525.525,0,0,1,0,.09.392.392,0,0,0,0,.2l.074.18.048-.185a1.223,1.223,0,0,0,0-.53.112.112,0,0,0,0,.032,1.518,1.518,0,0,1,.026.217,1.134,1.134,0,0,0,.042.286l.138.471v-.662a1.423,1.423,0,0,0,0-.164c0,.116.032.233.037.355l.032.529.1-.529a1.588,1.588,0,0,0,.032-.355.273.273,0,0,1,0,.058.355.355,0,0,1,0,.106.392.392,0,0,0,.032.212l.079.132.037-.148a1.117,1.117,0,0,0,.032-.318v.286l.032.455.1-.445a1.588,1.588,0,0,0,.032-.408h0a1.894,1.894,0,0,0-.058-.281c-.016-.1,0-.116-.037-.175v.074a.832.832,0,0,1,0,.122.228.228,0,0,0,.032.138.954.954,0,0,0,0,.1.62.62,0,0,1,.037.132.607.607,0,0,1,0,.1.445.445,0,0,0,.037.244l.127.254v-.286a1.393,1.393,0,0,1,0-.217.781.781,0,0,0,.026.244l.037.5.1-.492a.311.311,0,0,1,0-.069.153.153,0,0,0,.048.085l.127.127v-.175a.731.731,0,0,1,0-.185,1.248,1.248,0,0,0,0-.148s0,.037,0,.053a.575.575,0,0,1,0,.1.285.285,0,0,0,.064.228l.106.069v-.127a1.52,1.52,0,0,1,.026-.275,2.4,2.4,0,0,1,.032.281l.037.529.1-.529a1.6,1.6,0,0,0,0-.222v.244h.042a.09.09,0,0,0,.09,0,.116.116,0,0,0,.032-.111.568.568,0,0,0,0-.132.843.843,0,0,1,0-.138v-.026a3.943,3.943,0,0,1-.1-.572,2.608,2.608,0,0,1,.074.307l.032.154v.032a1.149,1.149,0,0,1,.042.408v.069h.069a.111.111,0,0,0,.074,0,.143.143,0,0,0,.032-.074h0a1.408,1.408,0,0,0,0-.445,2.116,2.116,0,0,1,.048.265v.058a.243.243,0,0,0,.053.207l.127.122v-.175a.8.8,0,0,1,0-.191.452.452,0,0,0,0-.122.154.154,0,0,1,0,.048v.074c0,.074,0,.169.064.217l.09.042v-.106a2.035,2.035,0,0,0,0-.471,2.391,2.391,0,0,1,.048.281v.037a.2.2,0,0,0,.064.2l.122.079v-.148a.6.6,0,0,1,0-.191h0a.582.582,0,0,0,.053.238l.127.249v-.281a1.174,1.174,0,0,1,0-.185.888.888,0,0,0,.032-.212.3.3,0,0,0-.032-.164.5.5,0,0,1,0-.085v-.037a.131.131,0,0,0,.026.079c.026.026.032.116.042.169a.725.725,0,0,1,0,.154.529.529,0,0,0,.048.265l.138.233v-.27a1.283,1.283,0,0,1,0-.2,1.173,1.173,0,0,0,0-.2.879.879,0,0,1,0,.291v.09h0a.069.069,0,0,0,0,.037.074.074,0,0,0,.074,0h.048v-.222a1.367,1.367,0,0,0,0-.27v.037a.872.872,0,0,1,0,.122.406.406,0,0,1,0,.079v.037a.169.169,0,0,0,.069.185l.1.053v-.111a1.973,1.973,0,0,1,0-.254,1.038,1.038,0,0,0,0-.127.314.314,0,0,0,.032.169.149.149,0,0,1,0,.048.222.222,0,0,0,.058.185l.09.069v-.111a2.259,2.259,0,0,0,0-.492,2.363,2.363,0,0,1,.037.365v.079h0a.085.085,0,0,0,0,.037.08.08,0,0,0,.079,0h.042v-.048a.718.718,0,0,1,.026-.238l.032.2.064.328.064-.328a.5.5,0,0,1,.037-.228.429.429,0,0,0,.048.2l.111.191v-.339a.254.254,0,0,0,.037.111l.122.222v-.254a1.5,1.5,0,0,1,0-.217.244.244,0,0,0,.058.2l.111.079v-.132l.09.064.032.026h0a.18.18,0,0,0,.122.069h0a.085.085,0,0,0,.069-.032l.032-.037-.026-.042-.069-.1v-.127a.042.042,0,0,0,0,.026l.159.355-.037-.387a.107.107,0,0,1,0-.037s0,0,0,.026l.207.328-.085-.376a.133.133,0,0,1,0-.042.111.111,0,0,0,0,.032l.106.111v-.175h.116v-.074h0l.074.032v-.085a.194.194,0,0,0,0-.058v.026l.079.1.032-.122a.192.192,0,0,0,0-.058.111.111,0,0,0,.058,0h.064v-.064a.149.149,0,0,0,0-.048h0l.058.042.037-.069v-.058l.042.048.048-.064a.2.2,0,0,0,.032-.069h.074v-.032a.166.166,0,0,0,0-.053h.032a.392.392,0,0,0,.127-.09.376.376,0,0,1,.1-.064h0a1,1,0,0,1,.085-.122.757.757,0,0,0,.127-.233l.026-.1Zm-3.177-6.767Zm-.567,11.877.074-.032h0Zm.275.191h-.032a.7.7,0,0,1-.111,0h.143Zm.291.477.1-.032h-.032Zm.291.45.122-.048h-.111Zm1,1.615ZM226.7,138.384l.032.143c-.026-.048-.058-.09-.079-.132l.037-.127v-.026a.328.328,0,0,0,.021.143ZM232.127,130.2Zm10.315,10.119a.105.105,0,0,0,0-.042.531.531,0,0,1,.026.085,1.5,1.5,0,0,0,.048.143l.032.212a4.272,4.272,0,0,0,.074.492v.053l-.127-.032V141.2a2.377,2.377,0,0,0-.042-.879Zm-.2.026h0a4.518,4.518,0,0,1,.122.842h-.09a2.283,2.283,0,0,0-.021-.842Zm-.222.106h0l.048.042a3.345,3.345,0,0,1,.069.646h-.106a2.584,2.584,0,0,0,0-.688Zm3.241,3.765.148-.069-.132.1h0v-.032Zm-11.119.736c-.079-.074-.159-.148-.233-.228l.169.127.053.037Zm-1.731.529h.026v.069h0a.184.184,0,0,1,0-.058Zm-1.107,1.467h0l-.048-.048.053.042h0Zm-.159-8.26h0a.527.527,0,0,0,0-.085h0Zm-.99-.143v-.032h0Zm-3.225-.53a.324.324,0,0,0,0,.074h0ZM229.475,133.725Zm8.71-.874h.016Zm7.868-1.149Zm1.059,6.809Zm2.5,1.769Zm-1.827-1.313Zm-3.06,4.914h.037l-.122.143-.175.206.207-.265Zm.185.037h0a.091.091,0,0,0,.064-.1v-.042l.069-.032a4.879,4.879,0,0,0,.529-.265.259.259,0,0,0,.09-.032l-.042.032-.159.09a3.605,3.605,0,0,0-.572.365Zm-15.461-8.1Zm.408.259a1.339,1.339,0,0,1,.206-.365h0c-.042.064-.085.132-.122.2a1.944,1.944,0,0,1-.085.18Zm-.418,2.118h0a.164.164,0,0,1,0-.069.312.312,0,0,1,0,.106Zm-.106-.635a.058.058,0,0,1,0,.026h0Zm-.111.291a.08.08,0,0,1,0-.037.222.222,0,0,1,0,.079Zm.159-.455h0v-.074c.032-.111.069-.228.106-.339q-.058.238-.106.45Zm.71-1.213a2.554,2.554,0,0,1,.228-.429h0c-.048.106-.106.206-.164.318Zm.757-.334a.226.226,0,0,0,0-.026h0Zm1.536.3h.026a1.925,1.925,0,0,1-.116.169l-.127.2.048-.1v-.032a.737.737,0,0,1,.169-.254h.032Zm10.8-3.4h-.037a.053.053,0,0,1,.037.021Zm-.387,2.8ZM243.189,135.319Zm0,0Zm.635-.132Zm-5.078,4.464Zm-.275.318v-.026h0a.3.3,0,0,0,0,.069Zm-.122.837Zm-7.307,3.209h0v.026h-.026Zm.148-.132.042-.032.042.042h-.026Zm.2-.159h0l.032.032Zm1.446.048Zm0-.053h0v.026h0v-.053h.026Zm-1.52,2.182.159.127h0a.711.711,0,0,1-.132-.122Zm1.2-1.324Zm-.2.122Zm-.106-.053h0s.005.058,0,.042Zm.207-.445Zm-.381.895Zm0,0Zm.143-.132Zm.286-.683h-.026v0c0-.042.032,0,.032,0Zm.191-.45Zm-.614-.212-.053-.042a.9.9,0,0,0-.249-.154l.048-.032c.09.085.191.164.286.244Zm-.408,0-.085-.042h0Zm.307,2.838v-.032h0a.322.322,0,0,0-.037.053l-.026-.026ZM232.127,145.623Zm1.059-2.542Zm-.222-1.318v.011Zm-.948-5.565Zm.09-.111Zm-1.79-2.589a.143.143,0,0,0,.053-.058h0l-.042.064ZM238.381,129.314Zm3.177,6.809a.737.737,0,0,1,.079.1l-.026.037h0l-.053-.116-.042-.111v-.026h0Zm-5.47,5.385v.032h0Zm-2.685,1.53Zm-1.011-9.218v.032l-.064.069h0l.032-.042Zm-.206.244-.026.042h0l-.058.042h0Zm-1.361-.413a.051.051,0,0,1,.032-.042.808.808,0,0,0,.1-.1l-.064.079a.491.491,0,0,1-.026.053h0Zm4.517-.831Zm6.29,7.741a1.167,1.167,0,0,0-.032-.2h0a2.394,2.394,0,0,1,.069.6h0v-.032h0v-.154a2.223,2.223,0,0,0-.037-.222Zm-.837,2.822h.053C240.859,143.42,240.785,143.42,240.8,143.383Zm-1.541-4.66Zm-.323-.964ZM238.751,138.061Zm-2.918,3.521Zm0,0Zm-2.224,1.4Zm.3-.7ZM233.848,142.716Zm-.212-.132h0a.037.037,0,0,1,0-.026Zm-2.605-9.531-.032.037.042-.053Zm4.5.106Zm5.9,1.191v.026h0Zm-.371,9.3h0Zm-4.029-3.362Zm-.477-.265h0a.037.037,0,0,1,0-.032h0Zm0,0Zm-.228,1.017h0l-.016-.011Zm0,0h0s-.037-.016-.037-.021Zm-3.209-2.907h0s-.032-.032-.037-.021Zm0,0Zm9.324.651Zm-7.492,3.251Zm2.8-7.328Zm4.331,3.95h0a.254.254,0,0,0-.037-.111.138.138,0,0,1,0-.053h0l.138.159a.169.169,0,0,1-.154-.016Zm-.132.053h-.032l-.032-.1a.53.53,0,0,0,.069.085Zm-5.824,1.377h0a.343.343,0,0,0-.069-.021ZM234.875,142.281ZM237.332,136.086ZM239.9,133.6Zm1.313,1.218Zm-3.6,2.706Zm0,0Zm-1.874,2.356h0Zm2.054-5.02h.016Zm3.484,6.11a.148.148,0,0,0-.053-.032h0v-.032h0v-.026a.079.079,0,0,0-.048-.053h.058v-.064a.079.079,0,0,0-.058-.058l.042-.048h0v.4Zm-2.96-4.813Zm1.694-1.324Zm-.228.588Zm-.026,0Zm0,.529h-.005ZM240.991,137.971Zm.2,1.446Zm-.424-4.765Zm-.482,1.44h0v0ZM240.779,135.4Zm0,0ZM240.5,135.128Zm.667,4.273h0l.016-.037Zm-.2-1.446ZM239.678,137.076Zm.477.529Zm-.773-2.425Zm-1.16.085-.254.042Zm-.529,1.641v0Zm.053.334Zm1.694-1.085Zm-4.109,3.9Zm-.064-.344h-.026Zm-.434,1.244Zm-.048-.339Zm-1.059-2.6Zm.561-1.244ZM234.325,140.635Zm.529-2.4Zm-.244,1.869h0a.468.468,0,0,1,.074-.016ZM234.611,140.1Zm-.207-2.859h0v.026Zm.207,2.907Zm-.477-2.007h0s.074-.016.074-.026Zm.1,1.52Zm-.185-.132Zm0,0Zm.466.98ZM234.023,138.056Zm.344,2.557Zm.323,0Zm.069.09Zm.1-.132Zm2.462-3.553h0l.011-.021Zm.111.53Zm0,0Zm-3.844.392Zm.529,2.33Zm0,0Zm1.827-2.081h-.005Zm0,0Zm5.02,2.039a.275.275,0,0,1-.074.085h0a.408.408,0,0,1,.048-.069l.027-.032s-.021-.005-.016.005Zm.529-1.419.037.048h-.042l-.032-.069ZM236.422,135.207Zm-2.986,3.14Zm.259,1.1Zm.408,1.006Zm0,0Zm1.541-.275Zm1.811-2.076v-.042h0v.032s.016.005.016.011Zm2.044-1.006Zm.413,2.324h.016Zm1.541,1.588h-.016l.032-.042Zm.154-2.388.111.127h-.037c-.016,0-.037-.053-.058-.106Zm-4.088-2.88Zm-.7.037h0s.021.037.016.021Zm-3.421,2.531Zm.762,4.162v-.048h0v.026h0Zm.567-.334h0s.011.021.016.021Zm.169-.164ZM235.082,140.635Zm.529-.27ZM235.675,140.275Zm.36-.228h0s.005.032.005.021Zm5.4.741h0a3.623,3.623,0,0,0-.032-.424h0v.185a.414.414,0,0,0,.026.18C241.457,140.788,241.436,140.772,241.436,140.788Zm.815-1.927Zm0-.307a1.622,1.622,0,0,1-.106-.238.415.415,0,0,0-.069-.159h0a.711.711,0,0,1,.069.122h0a.667.667,0,0,1,.069.138.341.341,0,0,0,.053.122ZM233.594,139.523Zm.291,1.551Zm.254-.392h0l-.021.021Zm0,2v-.026h0Zm.275-.312ZM234.944,142.043Zm.148-.6h0s-.058.005-.048,0Zm.254-1.017ZM235.919,140.084Zm.429.948Zm1.588-.62Zm.418-1.059h0v.032Zm.932-1.943h0v-.032a.069.069,0,0,1-.042.021Zm2.425-3.029h.032a.341.341,0,0,0-.074-.032Zm-5.824-.8Zm0-.037Zm-2.017,1.313h0l-.159.18h0a1.805,1.805,0,0,1,.111-.191Zm0,6.147Zm.228,1.636Zm3.479-1.975Zm0,0Zm0,0ZM238.174,140.492Zm2.356-.254h-.164a.106.106,0,0,0-.042,0l.048-.074h0a.741.741,0,0,1,.27.09h.042a.143.143,0,0,0-.037.042h-.053Zm.392,3.452h0Zm.085-.207Zm.588-7.138h-.079l.032.074v.011a.62.62,0,0,0-.064-.159,1.23,1.23,0,0,1-.058-.148h0a.153.153,0,0,1,0-.042h0a1.749,1.749,0,0,0,.191.217l.085.074ZM237.359,134.757Zm-.069-.328Zm-1.716-1.25ZM235.574,133.042Zm-4.9.529.037-.048c.032-.032.058-.069.1-.1l.159-.18h0l-.116.048h0l-.037.037a.376.376,0,0,0-.053.074l-.032.048v.037a.228.228,0,0,1-.069.085h-.026Zm.529.117.064-.058.2-.222.032-.032a4.966,4.966,0,0,0-.323.408h-.026Zm2.483,7.254Zm-.148-.106Zm.1,2.118H233.6s-.069-.037-.053-.037ZM233.689,143.023Zm1.393-1.26Zm.074.032Zm.561-.09h0s.016.026.021.021Zm.683-.3Zm.27-1.228Zm.164.355h0s.048.021-.005.021Zm2.086-2.489Zm.7,2.007.159-.291a.275.275,0,0,0,.079.037.143.143,0,0,0,.053.069l-.048.037h0v-.079l-.079.079-.111.127-.048.058Zm1.324,3.786Zm.1.048Zm.037,0Zm1.483-5.475a.069.069,0,0,0-.069-.026.074.074,0,0,0-.058.064h0l-.037-.058h0v-.058q-.053-.111-.111-.238.09.111.175.206l.106.122ZM239.821,128.112Zm-5.422,3.759ZM232.514,131a.3.3,0,0,0,0,.074h0a.415.415,0,0,1,0-.074,1.639,1.639,0,0,0,.058-.244,1.334,1.334,0,0,1-.064.275Zm-1.175,2.817a.562.562,0,0,0,.085-.1.471.471,0,0,0,.1-.106.388.388,0,0,1,.042-.048l-.106.132-.042.053a.827.827,0,0,1-.085.106h0Zm.228.1a.349.349,0,0,0,.085-.09l.291-.312.185-.2c.042-.053.09-.1.138-.154l-.169.206c-.042.042-.079.09-.122.138a3.9,3.9,0,0,0-.36.466h-.074Zm.4,0,.085-.09-.206.265h0a2.033,2.033,0,0,1,.122-.217Zm.45.307h0a.276.276,0,0,1-.058.069h0Zm1.144,2.494Zm-1.726,1.3ZM232.366,138.5Zm1.34,4.39h0v-.042ZM235.426,142.048Zm0,0Zm.064.09V142.1h0Zm.069-.175Zm3.706-2.012.064-.254h.106c-.053.106-.111.206-.169.307v-.053Zm.778,3.632Zm0,0ZM240.663,143.764Zm.275.339Zm.207-.069v0Zm1.949-1.467Zm-.169-3.934h0l.042-.048Zm.122-2.07Zm.159-.725Zm-.085-.132Zm.53-.265h0l.026-.032Zm1.588.122ZM245.169,135.409Zm-.529-.074V135.3h0a.053.053,0,0,1,.032-.011Zm-.672.339v.026h0v-.048h0Zm-.116.228h0v-.026h0Zm-.09-.169Zm2.118-.837Zm-.053-.053Zm-.217.312Zm-1.4-.138Zm-.355.418h0V135.4h0a.053.053,0,0,1,.048.011Zm-.312.328Zm-.831-2.605Zm-.191.169Zm.217-.212Zm-5.046,1.165h.212a3.9,3.9,0,0,0-.445.1l-.032-.042Zm-3.336-2.34Zm-2.722,4.077Zm-.529-.1Zm-.127.191a.458.458,0,0,0,.037-.09l.042-.037Zm-.132-.228Zm-.154.244-.037.064v-.048a.368.368,0,0,0,.026-.069l.042-.1a.074.074,0,0,0,.042-.026Zm-.111-.3Zm-.148.244.064-.154h.026c.032.021,0,.053-.032.111Zm-.154-.249.026-.042h.053l-.058.026Zm1.795,2.647Zm1.128,1.175v.048a.19.19,0,0,1-.037.053Zm-.529,2.515h0a.074.074,0,0,0,.085-.048h0l.064.371-.191.111Zm.238-.079v-.138a.159.159,0,0,0,.032.122l.116.143V142l.026.037.127.148v-.2h0v.037l.127.217c-.175.074-.344.169-.529.259Zm.445-.116a.361.361,0,0,1,0-.074.332.332,0,0,0,0-.085.249.249,0,0,0,.032.079l.117.185v-.217a.64.64,0,0,1,0-.1v.037a.106.106,0,0,0,0,.106l.042.032h.037a.079.079,0,0,0,.042-.085.593.593,0,0,1,.069-.244.289.289,0,0,0,0,.1v.079l-.037.074h.058c-.111.122-.228.244-.36.371h0Zm-2.51,2.319.2.175a.823.823,0,0,1-.127-.1h0a.09.09,0,0,1-.064,0h0Zm0,.339H230.8a.08.08,0,0,0-.037-.048l-.138-.053h.026l.111.1.143.122Zm-.042.286-.18-.132-.048-.037h0a.233.233,0,0,1-.085-.032h-.032l.042-.042a1.222,1.222,0,0,0,.175.159,1.122,1.122,0,0,1,.175.021Zm-.44,0h-.042a.053.053,0,0,1-.048,0l.032-.037h0l.439.355Zm-.074.244c.1.1.206.18.312.265h.026l-.217-.148-.2-.138h0a.281.281,0,0,1-.064,0h-.026l.048-.053.037.037a.281.281,0,0,0,.117-.011Zm.969,1.477.069.069h0l-.111-.1Zm.138.132h0l-.032-.032Zm.339.265v.058l-.032-.026-.058-.064h0v-.032l.058.048Zm.1-.244h0a.228.228,0,0,0-.064-.058h0l.048.032Zm.281-.408h0a.053.053,0,0,0,.026,0h0s0-.058-.005-.048Zm3.1-4.284Zm.286,0Zm.392-.413v.026h0a.039.039,0,0,1,.021-.074Zm2.986-2.7Zm2.234,5.184Zm3.341-5.824Zm1.71-2.812h0q0,.029,0,.058a.085.085,0,0,0,0,.032h0a.345.345,0,0,0,0-.069Zm.207-.2Zm.355,0h0a.2.2,0,0,1-.042.058h0v-.037a.238.238,0,0,1,.053-.042Zm-1.17-.567h0v-.026h0Zm-6.984-3.177a.249.249,0,0,1-.09,0Zm-.53,1.091h.164a.674.674,0,0,1-.138-.048Zm-.678,1.435h.249l-.259.064-.026-.042Zm-4.882-3.648h0v-.032h0s.032-.021.026-.016Zm-.18-.122Zm-.074.148h.037v-.048Zm0,.138h0l-.032.127a1.625,1.625,0,0,1-.085.27h-.037a.715.715,0,0,0,.206-.445Zm1.17,5.66.106-.111h0a.816.816,0,0,1-.122.169h-.032Zm-6.073,1.774a.608.608,0,0,1,0,.1v-.1Zm.09.254h.026a.343.343,0,0,0,.048.085.529.529,0,0,0,.053.148l.032.074a.148.148,0,0,1,0,.048,2.338,2.338,0,0,0-.154-.334Zm1.938.355Zm3.421,1.806Zm-2.647,4.861-.09-.058h0a.074.074,0,0,1-.058,0h0v-.026Zm0,.307h0a2.112,2.112,0,0,1-.212-.143h-.122l.048-.069Zm-.355.053h-.111a.187.187,0,0,1,0-.042Zm2.287,1.234h0V146.9h0a.154.154,0,0,1-.005.037Zm1.033-1.461-.079-.085.09.074.048.037h0Zm6.407.556Zm-.048-.561.111.026h-.1Zm.069.2h0Zm0,.175h-.042Zm-.079-.582a1.133,1.133,0,0,1,.18.048h-.18Zm-.048-.842h0Zm.185,2.272H239.5v-.058h.053a1.466,1.466,0,0,0,.191.042h.037a1.272,1.272,0,0,0-.212.026Zm-.09-.275a1.461,1.461,0,0,0,.249.053h-.265V146.4Zm.111.461.185.037.064.037-.1-.026h-.233v-.064Zm.037-.609a.583.583,0,0,1-.138,0v-.048l.2.053Zm.085,1.588h-.175V147.8a1,1,0,0,1,.175.032Zm.048-.233.069.037h-.169a.466.466,0,0,1-.122,0v-.074a.962.962,0,0,0,.222.011Zm-.238-.265.212.053h-.2a.074.074,0,0,0,0-.037Zm.212.715h-.206a.271.271,0,0,0,0-.069h0a.837.837,0,0,1,.206.053Zm-.18.228v-.053l.175.053Zm0,.355v-.026l.085.026Zm0,.169.09.026h-.085Zm.042.233h-.037v-.032l.111.032a.349.349,0,0,1-.079-.016Zm-.037.164h0Zm0,.191Zm.185-2.224h-.228V147.1a3.707,3.707,0,0,1,.429.138,1.2,1.2,0,0,1-.2-.074Zm4.548-2.7.053-.09h.026a1.134,1.134,0,0,0-.085.132s.011-.053.011-.058Zm-2.415-3.463h0v-.561c.032.18.053.371.069.561Zm1.059-.736v.037h0a.389.389,0,0,1,.021-.053Zm.312.466a.308.308,0,0,0,.037.18h0a1.058,1.058,0,0,1-.053-.249Zm6.174-.36Zm-6.666-2.012h-.032l-.064-.106v-.042l.143.132ZM247.043,134.741Zm.355.148v0ZM241.992,136a.424.424,0,0,0-.132.1l-.042.037a1.166,1.166,0,0,0-.1-.18,1.818,1.818,0,0,1-.09-.175.09.09,0,0,0,.1,0l.1-.042-.09-.069a.1.1,0,0,0-.026-.064c-.026-.026,0,0,0-.032h0l.2.238.122.138Zm4.395-4.575v-.032l.037.032Zm-8.948,2.494-.1.032h-.074l-.032-.053Zm-10.362,4.347a.218.218,0,0,0,0,.053l-.032-.058v-.074h0a.108.108,0,0,0,.026.069Zm2.552.439v.026l-.032-.117v-.026a.381.381,0,0,1,.048.106Zm1.223.148v-.074a.074.074,0,0,0,0-.032h0a.4.4,0,0,1,.021.09Zm.943.1h0a.277.277,0,0,1,0-.058v.037Zm-1.17,4.813h0a.059.059,0,0,1,0-.026h0c0-.032.074-.117,0-.18h0a1.414,1.414,0,0,1,.175-.334l.048-.074h-.037a.127.127,0,0,0,.032-.058l.1.074v-.127h.042v-.053h0l.064.064.032-.1a.164.164,0,0,0,0-.069l.106.132v-.154l.1.27v-.387l.132.2v-.217l.111.18v-.275l.106.154v-.265h0l.122.138V142.5l.132.191v-.244l.116.154v-.191a.758.758,0,0,1,0-.154h0a.154.154,0,0,0,.037.127l.138.116v-.2h0l.127.1v-.159h0a.085.085,0,0,0,.053.042.074.074,0,0,0,.085-.053v-.069a.132.132,0,0,0,0,.042l.09.439-.042.026-.058.026-.079.042-.042.037h.074a10.644,10.644,0,0,0-1.313,1l-.254.244a.334.334,0,0,0-.164-.265Zm.249,4.236v.037l-.159-.148.127.079a.074.074,0,0,0,.053.037Zm-2.208-.593a.1.1,0,0,1,.026-.069c.026-.021.069.064.1.1h-.1Zm.185-.4Zm.085-.18h0v-.032l.048.042Zm.1-.191h0V146.6l.037.042h-.058Zm.106-.2v-.032l.048.042h0Zm.206-.344v-.032h0l.042.042.032.032h0Zm.2.074Zm.307-.085a1.688,1.688,0,0,1-.249-.164h0a.27.27,0,0,1-.09,0h0a.217.217,0,0,1,.037-.058l.349.275Zm-1.287,1.551v-.048l.09.074h-.069Zm10.966,2.16.148.042a.673.673,0,0,0-.148,0Zm0-.175a.3.3,0,0,0,0-.069l.2.064a.53.53,0,0,0-.175.011Zm1.806-1.059Zm.1-3.638a2.058,2.058,0,0,0-.164-.138l.117-.032-.058-.048v-.1a.059.059,0,0,1,0-.032h0a.243.243,0,0,0,.032.138l.143.18v-.228a.191.191,0,0,1,0-.1h0a.913.913,0,0,0,0,.206l.048.3Zm.1-.529Zm2.647.238a.116.116,0,0,0,0-.053h.058a.116.116,0,0,0-.026.042.254.254,0,0,0-.048.058Zm.582-.5a.191.191,0,0,0,0-.048h0l-.058.069a2.951,2.951,0,0,0-.233.291l-.09.127c.079-.116.164-.228.249-.334Zm.254-.085h.032a.154.154,0,0,1,.1-.037h0a.713.713,0,0,1,.111-.058l.117-.053.074-.032c-.185.117-.376.238-.556.371a.254.254,0,0,0,.138-.185Zm2.88.254h0Zm-5.141-3.018v-.079a2.648,2.648,0,0,0-.138-1.149,1.758,1.758,0,0,1,.18.424,2.177,2.177,0,0,0,.042.286,1.53,1.53,0,0,1,.042.429.079.079,0,0,0,.069.079c.032,0,.069,0,.079-.079v-.042a1.3,1.3,0,0,0,0-.5A1.39,1.39,0,0,1,243,140.4a.613.613,0,0,0,0,.1,2.24,2.24,0,0,1,.1.7c0,.085.037.106.058.111a.074.074,0,0,0,.085-.048v-.1a.6.6,0,0,1,.026-.222h0a1.512,1.512,0,0,1,0,.228c0,.042,0,.1.032.122l.032.032h.042a.1.1,0,0,0,.042-.09,1.865,1.865,0,0,0,0-.529h0a1.689,1.689,0,0,1,.074.609v.058h.058a.1.1,0,0,0,.085,0,.138.138,0,0,0,.026-.127h0v-.053a.493.493,0,0,1,0-.164v-.042a3.17,3.17,0,0,1-.064-.323,1.02,1.02,0,0,0-.053-.265l.079.117a1.085,1.085,0,0,0,.058.259,1.769,1.769,0,0,1,.074.529.079.079,0,0,0,.069.079c.032,0,.069,0,.079-.079v-.064a.837.837,0,0,0,0-.259v-.064a1.021,1.021,0,0,1-.053-.265.463.463,0,0,0-.026-.185l.026.037a1.265,1.265,0,0,0,.048.238,3.587,3.587,0,0,1,.085.609v.349a5.967,5.967,0,0,0-1.218-.4Zm1.927-3.24Zm-1.7.2h0l-.026.048h-.026v-.053a.063.063,0,0,0-.064-.064h0a.074.074,0,0,0-.048.042v-.074a.594.594,0,0,0-.074-.2.937.937,0,0,0,.143.148ZM243.167,137.749Zm3.881-2.3a.243.243,0,0,0-.027-.074l.064-.069h0a.111.111,0,0,1,0,.032h0a.68.68,0,0,0-.027.116Zm-4.967.461-.053-.169a1.2,1.2,0,0,0-.079-.207l.085.1a.891.891,0,0,0,.1.111l.074.069a1.122,1.122,0,0,0-.111.132Zm5.136-5.671ZM229.422,131.241Zm-2.854,6.645c.026-.09.058-.18.09-.265v.127a.72.72,0,0,0,0,.09,1.339,1.339,0,0,0-.053.413v.037a.127.127,0,0,0-.048-.042l-.037-.048Zm2.054.868.026-.026h0a.048.048,0,0,1-.016.032Zm1.975.191v.026a.744.744,0,0,1,0-.148l.032.1Zm2.118.392h0v-.048h0Zm.244.36a1.325,1.325,0,0,1,0-.207v-.069h0a.688.688,0,0,1,.042.2.529.529,0,0,1-.032.154v.064Zm-2.367,8.869h0a.568.568,0,0,1-.085-.074h.048l.032.032Zm1.377-.937v-.058a.7.7,0,0,0-.254-.259l-.127-.138-.111-.122a2.748,2.748,0,0,0,.249.185l.058.042h0c.026.026.064.064.111.042h.048v-.069h0a.53.53,0,0,0-.09-.1l.042-.048h0l.048.032c.037,0,.053.032.064.053a2.868,2.868,0,0,0-.032.439Zm9.774-3.23Zm1.678.688h0v-.048l.032-.053a.7.7,0,0,1-.027.106Zm.635-.254a.925.925,0,0,1,.085-.132l.032-.042-.037.058a.4.4,0,0,1-.079.122h0Z" transform="translate(-3554.777 -2327.658)" fill="#fff"/><path d="M227.633,150.721h0a.423.423,0,0,1-.058-.2V150.5a3.647,3.647,0,0,0-.387-.593h0a.127.127,0,0,0-.069-.053c-.037-.048-.069-.069-.106-.064a.074.074,0,0,0-.064.053v.064H227a.085.085,0,0,0,0,.042.154.154,0,0,0,.037.042h0a.2.2,0,0,1,.032.069.407.407,0,0,0,.037.085.339.339,0,0,0,.053.069.174.174,0,0,1,.032.053,4.7,4.7,0,0,1,.222.424l.032.079a.73.73,0,0,0,.138.228l.148.154-.042-.212A.53.53,0,0,1,227.633,150.721Z" transform="translate(-3555.673 -2338.973)" fill="#fff"/><path d="M231.84,168.621c-.053-.058-.1-.122-.148-.185h0a.429.429,0,0,1-.106-.111c-.027-.032-.053-.069-.085-.1a.143.143,0,0,0-.053-.032h0l-.032-.037c-.042-.048-.127-.138-.233-.074l-.064.037.048.064a.584.584,0,0,1,.074.111.915.915,0,0,0,.1.148c.138.148.281.3.429.429a.354.354,0,0,0,.085.064l.042.032a.054.054,0,0,1,.026,0,.212.212,0,0,0,.116.064h.048l.064-.037-.042-.058C232,168.817,231.92,168.716,231.84,168.621Z" transform="translate(-3557.635 -2347.569)" fill="#fff"/><path d="M252.428,171.74h-.09a.221.221,0,0,0-.164.042l-.064.079h.1a.7.7,0,0,1,.18.085l.143.069h.042a1.932,1.932,0,0,0-.265-.079h-.032a.071.071,0,0,0-.079.074v.037h.032l.445.281.3.185h.064a.1.1,0,0,1,.037.026.281.281,0,0,0,.164.074h.048l.1-.037-.069-.074a2.924,2.924,0,0,0-.487-.418l.042.026a2.983,2.983,0,0,0,.291.154,1.44,1.44,0,0,0,.143.106.614.614,0,0,0,.2.058h0l.132-.026-.1-.09A2.213,2.213,0,0,0,252.428,171.74Z" transform="translate(-3567.511 -2349.301)" fill="#fff"/><path d="M252.407,172.68h0a.079.079,0,0,0-.048.064.09.09,0,0,0,.053.09h0a1.307,1.307,0,0,0,.138.1.8.8,0,0,1,.148.116h0a.164.164,0,0,1,.079.042.265.265,0,0,0,.127.069.355.355,0,0,0,.222.116h.037l.1-.032-.085-.09a1.525,1.525,0,0,0-.768-.477Z" transform="translate(-3567.628 -2349.743)" fill="#fff"/><path d="M222.626,174.192a30.806,30.806,0,1,1,30.806-30.806,30.806,30.806,0,0,1-30.806,30.806Zm0-58.705a27.9,27.9,0,1,0,27.9,27.9A27.9,27.9,0,0,0,222.626,115.487Z" transform="translate(-3539.144 -2321.466)" fill="#fff"/><path d="M127.291,156.374a3.176,3.176,0,0,1-1.2-.064,1.205,1.205,0,0,0-1.509.529,2.785,2.785,0,0,0-1.345.831,3.074,3.074,0,0,1,2.34.185,10.2,10.2,0,0,0,5.66.942,4.051,4.051,0,0,0,2.3,1.34A4.3,4.3,0,0,1,132,158.773s1.588.212,2.5.387-.122-.736-.122-.736.529-.36-.148-.609c.169-.265.344-1.059-.63-.773s-1.874.667-2.849,0a.529.529,0,0,0,.529-.842c.217-.408.424-.577.169-1.059.625-.212.593-.72.185-1.123.6-.265.577-.868.222-1.059.376-.5.349-.815.048-1.1.44-.265.6-.921.185-1.1a.641.641,0,0,0,.175-.964,14.946,14.946,0,0,0,1.334-5.576c-.111-.355-.736.3-2.4,2.012a14.683,14.683,0,0,0-2.986,4.5,6.44,6.44,0,0,0,.122,2.933C128.567,155.384,128.08,156.146,127.291,156.374Z" transform="translate(-3506.877 -2336.308)" fill="#fff"/><path d="M130.969,161.21s-1.366.085-1.133,1.059a3.281,3.281,0,0,1,.122,1.811,1.263,1.263,0,0,0,1.128-1.345A10.1,10.1,0,0,0,130.969,161.21Z" transform="translate(-3509.968 -2344.347)" fill="#fff"/><path d="M239,332.827H236.84V330.91h-.72v4.681h.72v-2.054H239v2.054h.72V330.91H239Z" transform="translate(-3559.987 -2424.192)" fill="#fff"/><path d="M252.2,331.367a2.3,2.3,0,0,0-.762-.529,2.578,2.578,0,0,0-1.906,0,2.314,2.314,0,0,0-1.26,1.292,2.753,2.753,0,0,0,0,1.959,2.229,2.229,0,0,0,1.266,1.287,2.529,2.529,0,0,0,1.9,0,2.293,2.293,0,0,0,.762-.529,2.5,2.5,0,0,0,.529-.778,2.753,2.753,0,0,0,0-1.959,2.435,2.435,0,0,0-.529-.741Zm-.037,1.758a1.989,1.989,0,0,1-.122.694,1.662,1.662,0,0,1-.339.53,1.589,1.589,0,0,1-.529.365,1.838,1.838,0,0,1-1.382,0,1.53,1.53,0,0,1-.529-.365,1.588,1.588,0,0,1-.339-.53,2.039,2.039,0,0,1,0-1.387,1.589,1.589,0,0,1,.344-.529,1.621,1.621,0,0,1,.529-.371,1.684,1.684,0,0,1,.678-.132,1.647,1.647,0,0,1,.678.132,1.589,1.589,0,0,1,.529.371,1.684,1.684,0,0,1,.349.529,1.97,1.97,0,0,1,.132.7Z" transform="translate(-3565.619 -2424.072)" fill="#fff"/><path d="M263.04,330.91h-.72v4.681h2.748v-.71H263.04Z" transform="translate(-3572.315 -2424.192)" fill="#fff"/><rect width="0.72" height="4.675" transform="translate(-3304.811 -2093.281)" fill="#fff"/><path d="M282.251,331.506a2.308,2.308,0,0,0-.826-.424,3.336,3.336,0,0,0-.964-.132H279v4.675h1.456a3.573,3.573,0,0,0,.969-.127,2.425,2.425,0,0,0,.821-.429,2.07,2.07,0,0,0,.561-.741,2.648,2.648,0,0,0,.2-1.059,2.589,2.589,0,0,0-.2-1.059A1.99,1.99,0,0,0,282.251,331.506Zm-2.526.154h.7a2.776,2.776,0,0,1,.768.1,1.477,1.477,0,0,1,.577.286,1.355,1.355,0,0,1,.376.492,1.852,1.852,0,0,1,.138.752,1.826,1.826,0,0,1-.138.747,1.355,1.355,0,0,1-.376.492,1.647,1.647,0,0,1-.577.291,2.96,2.96,0,0,1-.768.1h-.7Z" transform="translate(-3580.163 -2424.21)" fill="#fff"/><path d="M292.553,330.18l-2.3,5.062h.784l.5-1.17h1.98l.482,1.17h.784Zm-.715,3.177.7-1.663.688,1.663Z" transform="translate(-3585.456 -2423.848)" fill="#fff"/><path d="M303.036,332.806l-1.154-1.9h-.842l1.631,2.674v2.007h.72v-2.007l1.631-2.674h-.837Z" transform="translate(-3590.532 -2424.192)" fill="#fff"/><path d="M320.363,330.18l-2.3,5.062h.784l.5-1.17h1.98l.482,1.17h.784Zm-.72,3.177.71-1.663.688,1.663Z" transform="translate(-3598.541 -2423.848)" fill="#fff"/><path d="M333.326,331.17a1.541,1.541,0,0,0-.5-.2,2.456,2.456,0,0,0-.529-.058h-1.4v4.675h.72v-1.98h.757a1.9,1.9,0,0,0,.529-.079,1.493,1.493,0,0,0,.471-.254,1.3,1.3,0,0,0,.339-.434,1.329,1.329,0,0,0,.127-.588,1.223,1.223,0,0,0-.159-.641A1.175,1.175,0,0,0,333.326,331.17Zm-.169,1.059a.635.635,0,0,1-.064.3.483.483,0,0,1-.159.2.714.714,0,0,1-.238.117,1.184,1.184,0,0,1-.3.042h-.762V331.62h.736a1.229,1.229,0,0,1,.312.037.785.785,0,0,1,.254.106.5.5,0,0,1,.159.175.577.577,0,0,1,.064.286Z" transform="translate(-3604.577 -2424.192)" fill="#fff"/><path d="M341.783,330.18l-2.3,5.062h.8l.5-1.17h1.975l.487,1.17h.741Zm-.715,3.177.71-1.663.683,1.663Z" transform="translate(-3608.619 -2423.848)" fill="#fff"/><path d="M354.789,333.25a1.322,1.322,0,0,0,.376-.408,1.265,1.265,0,0,0,.148-.625,1.228,1.228,0,0,0-.159-.657,1.118,1.118,0,0,0-.392-.408,1.3,1.3,0,0,0-.529-.2,2.738,2.738,0,0,0-.5-.048H352.3v4.675h.72v-2.054h.492l1.239,2.054h.831l-1.276-2.118A1.487,1.487,0,0,0,354.789,333.25Zm-1.763-1.636h.641a2.458,2.458,0,0,1,.4.032.827.827,0,0,1,.3.111.434.434,0,0,1,.169.169.566.566,0,0,1,.064.291.5.5,0,0,1-.185.434,1.059,1.059,0,0,1-.678.175h-.7Z" transform="translate(-3614.651 -2424.192)" fill="#fff"/><path d="M362.09,331.62h1.393v3.971h.72V331.62h1.387v-.71h-3.5Z" transform="translate(-3619.257 -2424.192)" fill="#fff"/><path d="M375.6,334.394l-1.589-3.484h-.71v4.681h.715v-2.918l1.583,3.145,1.578-3.161v2.933h.72V330.91h-.715Z" transform="translate(-3624.531 -2424.192)" fill="#fff"/><path d="M388.25,333.531h2.123v-.71H388.25v-1.2h2.256v-.71H387.53v4.681H390.6v-.71H388.25Z" transform="translate(-3631.227 -2424.192)" fill="#fff"/><path d="M401.455,334.262l-2.515-3.352h-.619v4.681h.72v-3.357l2.5,3.357h.63V330.91h-.715Z" transform="translate(-3636.303 -2424.192)" fill="#fff"/><path d="M410.18,331.62h1.393v3.971h.72V331.62h1.387v-.71h-3.5Z" transform="translate(-3641.884 -2424.192)" fill="#fff"/><path d="M423.466,333.238a1.858,1.858,0,0,0-.461-.249c-.154-.064-.318-.122-.5-.18l-.355-.132a1.286,1.286,0,0,1-.249-.148.556.556,0,0,1-.159-.191.715.715,0,0,1,0-.53.64.64,0,0,1,.175-.2.8.8,0,0,1,.27-.127,1.059,1.059,0,0,1,.752.042.746.746,0,0,1,.3.228l.2.238.529-.477-.18-.222a1.541,1.541,0,0,0-.572-.424,1.9,1.9,0,0,0-1.281-.053,1.551,1.551,0,0,0-.492.254,1.281,1.281,0,0,0-.355.434,1.265,1.265,0,0,0-.132.588,1.351,1.351,0,0,0,.111.567,1.257,1.257,0,0,0,.312.413,1.864,1.864,0,0,0,.44.265c.148.064.312.122.492.18l.381.132a1.241,1.241,0,0,1,.286.159.6.6,0,0,1,.175.191.472.472,0,0,1,.058.244.677.677,0,0,1-.058.291.635.635,0,0,1-.169.207.811.811,0,0,1-.259.138,1.255,1.255,0,0,1-.831-.042,1.123,1.123,0,0,1-.4-.286l-.2-.212-.529.477.2.222a1.778,1.778,0,0,0,.625.439,2.028,2.028,0,0,0,.81.159,1.791,1.791,0,0,0,.567-.085,1.334,1.334,0,0,0,.5-.27,1.287,1.287,0,0,0,.344-.439,1.378,1.378,0,0,0,.132-.6,1.24,1.24,0,0,0-.132-.577,1.171,1.171,0,0,0-.339-.424Z" transform="translate(-3646.861 -2424.105)" fill="#fff"/><path d="M261.1,228.7a.916.916,0,0,0-.715-.334,1.483,1.483,0,0,0-.678.249q-5.75,5.417-8.535,5.411A2.38,2.38,0,0,1,248.81,232l-.085-.424a12.985,12.985,0,0,1-.169-1.689v-.593l.085-2.621a1.53,1.53,0,0,0-.529-1.52,1.387,1.387,0,0,0-1.011-.339,5.079,5.079,0,0,0-.932-.085.757.757,0,0,0-.529.212,2.827,2.827,0,0,0-.466.89v.085l-2.028,4.9q-2.023,4.988-3.632,8.2c-.228.45-.529.985-.847,1.588s-.672,1.3-1.011,2.028c-.169.169-.312.228-.424.169v-.339a53.867,53.867,0,0,1,.53-6.169c0-.169.254-1.885.757-5.157a6.754,6.754,0,0,0,.169-1.265,4.831,4.831,0,0,0-.169-1.186,2.568,2.568,0,0,0-1.059-1.52,2.886,2.886,0,0,0-1.731-.678,1.615,1.615,0,0,0-1.271.593,45.256,45.256,0,0,0-2.2,4.141l-1.011,2.118q-3.706,6.931-5.824,10.315a12.133,12.133,0,0,1-.757,1.1c-.228.286-.424.529-.593.762,0,.058-.143.169-.424.339v-3.638l.339-3.632a14.032,14.032,0,0,1,.169-1.689c.053-.228.111-.492.169-.8a6.8,6.8,0,0,0,.085-1.138L224.75,233l.418-2.452.339-2.536a16.945,16.945,0,0,0,.169-1.943,2.282,2.282,0,0,0-1.011-1.779,1.911,1.911,0,0,1-.529-.334,3.294,3.294,0,0,0-1.435-.424,1.615,1.615,0,0,0-1.059.381,1.446,1.446,0,0,0-.529.884q-.389,1.588-.731,3.325a.873.873,0,0,0-.45-.111,1.625,1.625,0,0,0-.974.339,1.668,1.668,0,0,0-.63.842,59.606,59.606,0,0,1-2.706,5.824,48.3,48.3,0,0,1-2.706,4.236,25.656,25.656,0,0,1-3.463,3.971,12.889,12.889,0,0,1-5.824,3.378,6.412,6.412,0,0,1-1.859.254,1.514,1.514,0,0,1-1.435-.757c-.058-.169-.116-.328-.169-.466s-.117-.27-.169-.381a11.056,11.056,0,0,1-.593-3.886l.085-2.2a17.717,17.717,0,0,1,1.017-4.236l.169-.169.5-.254c1.128-.561,1.975-1.017,2.536-1.355a35.293,35.293,0,0,0,3.707-3.124,7.72,7.72,0,0,0,1.265-1.44,18.885,18.885,0,0,0,2.621-4.236,14.088,14.088,0,0,0,.842-3.039,2.388,2.388,0,0,0-.842-2.028,1.879,1.879,0,0,0-.593-.339l-1.1-.424a2.4,2.4,0,0,0-1.017-.169,2.155,2.155,0,0,0-.932.169,8.546,8.546,0,0,0-3.209,1.52l-1.52,1.186-1.694,1.859-.757.932q-1.525,2.367-1.689,2.7c-.376.588-.715,1.186-1.033,1.79a1.376,1.376,0,0,0-.911-.349,1.329,1.329,0,0,0-1.355,1.011q-.762,1.435-3.59,6.126a57.678,57.678,0,0,1-4.183,6.3,23.626,23.626,0,0,1-3.892,3.971,13.058,13.058,0,0,1-2.2,1.266,1.467,1.467,0,0,1-1.011,0,1.684,1.684,0,0,1-.339-1.1,6.833,6.833,0,0,1-.085-1.271,10.934,10.934,0,0,1,.254-2.452c.392-1.588.678-2.616.847-3.124l.5-2.118.529-1.774q.418-1.525.847-2.706a7.572,7.572,0,0,0,.339-.847c.111-.339.249-.7.418-1.1s.339-1.059.678-1.943a6.609,6.609,0,0,0,.529-2.2,2.4,2.4,0,0,0-.169-1.017,2.1,2.1,0,0,0-1.859-.762,2.379,2.379,0,0,0-2.367,1.186l-.593,1.1c-.3.572-.529,1.112-.778,1.641a1.186,1.186,0,0,0-1-.371,4.311,4.311,0,0,0-1.589.672c-.789.455-1.355.794-1.689,1.017a5.184,5.184,0,0,1-1.949.847l-.334-.085a2.42,2.42,0,0,1-1.1-1.44,7.842,7.842,0,0,1-.424-2.785,3.923,3.923,0,0,0-.085-.932.821.821,0,0,0-.254-.593,1.223,1.223,0,0,0-1.011-.588,4.237,4.237,0,0,1-.932-.085.794.794,0,0,0-.842.5l-.529,1.1-1.017,2.875q-3.124,7.942-4.48,10.9c-.169.392-.757,1.689-1.774,3.886a.784.784,0,0,1-.424.424v-3.553l-.085-1.435v-1.943a3.831,3.831,0,0,0-.042-.529,1.429,1.429,0,0,1,.042-.593,7.441,7.441,0,0,0,.085-1.35,6.883,6.883,0,0,0-.085-1.271.8.8,0,0,1-.042-.418.952.952,0,0,0,.042-.254V227.8a9.478,9.478,0,0,0-.079-2.118,1.769,1.769,0,0,0-1.1-1.186.482.482,0,0,1-.339-.085l-1.011-.334-.762-.254c-.339-.169-.7-.058-1.1.334a1.233,1.233,0,0,0-.334.593,2.452,2.452,0,0,0-.085.424,22.471,22.471,0,0,0-.169,3.119,1.759,1.759,0,0,0-.53-.074,1.52,1.52,0,0,0-1.181.588l-2.79,3.129-2.9,3.278a5.2,5.2,0,0,1-1.35,1.35,1.736,1.736,0,0,1,.085-.678l1.589-6.508a14.3,14.3,0,0,0,.169-1.588v-.593A1.8,1.8,0,0,0,147,225.97a3.41,3.41,0,0,0-1.816-.529,1.361,1.361,0,0,0-1.35.678c-.058.111-.159.349-.3.715a3.632,3.632,0,0,1-.466.89q-2.2,4.39-3.293,6.084c-.169.286-.529.874-1.1,1.774a15.661,15.661,0,0,1-1.774,2.367,19.283,19.283,0,0,1-2.875,2.706,1.821,1.821,0,0,1,0-1.1,48.847,48.847,0,0,1,1.271-4.988l1.265-3.383,1.017-2.7a1.647,1.647,0,0,0-.085-1.356,2.907,2.907,0,0,0-1.186-1.059,3.543,3.543,0,0,0-1.588-.381,1.647,1.647,0,0,0-1.186.339,3.64,3.64,0,0,0-.334.588c-.376.731-.71,1.408-1.022,2.07a.078.078,0,0,0-.037-.079.953.953,0,0,0-.8-.381,1.5,1.5,0,0,0-1.355.927l-2.282,5.073-2.118,4.818-1.265,2.79q-1.186,2.785-2.536,5.321a13.417,13.417,0,0,1-.847,1.355,8.2,8.2,0,0,0-.672,1.1c-.169.169-.286.228-.339.169v-.254l.529-4.649c.111-1.239.222-2.166.339-2.79.164-.9.477-2.25.927-4.056q.424-2.118,1.588-6.169.927-3.045,1.44-5.242a6.642,6.642,0,0,0,.169-.715,4.766,4.766,0,0,0,.085-.72.831.831,0,0,0-.424-1.011c-.905-.455-1.588-.762-2.028-.932a.567.567,0,0,0-.593,0,2.3,2.3,0,0,0-1.35,1.265,3.109,3.109,0,0,0-.339.762l-.339.339c-.736-.561-1.128-.874-1.186-.932a4.236,4.236,0,0,0-2.282-.757,4.765,4.765,0,0,0-1.52.254,5.915,5.915,0,0,0-3.293,2.446,19.018,19.018,0,0,0-1.181,1.911,1.022,1.022,0,0,0-.847-.3,4.183,4.183,0,0,0-1.271.254,22.821,22.821,0,0,0-3.124,1.588l-.593.254-.593.169-4.48,2.118L96.1,234.383l-2.2,1.1a9.162,9.162,0,0,1-1.144-.927c-.418-.392-.8-.731-1.138-1.017a22.8,22.8,0,0,0-3.553-2.282,19.024,19.024,0,0,0-2.2-.842.716.716,0,0,1-.206-.042.376.376,0,0,1-.212-.212,2.314,2.314,0,0,0,.8-.635c.2-.254.323-.408.381-.466l.254-.254,1.588-1.435A15.064,15.064,0,0,1,90,225.678l1.689-1.774,3.209-3.383.678-.842L97.1,217.9c.169-.222.439-.529.8-.927a4.994,4.994,0,0,0,.8-1.1c0-.053.053-.138.169-.254a6.6,6.6,0,0,0,1.138-1.308,13.369,13.369,0,0,1,.89-1.223,6.412,6.412,0,0,0,.715-1.059,6.884,6.884,0,0,1,.635-.974,38.507,38.507,0,0,0,2.118-3.463,46.592,46.592,0,0,0,2.028-4.734,12.3,12.3,0,0,0,.678-3.887L107,197.536a8.688,8.688,0,0,0-.593-2.96,8.463,8.463,0,0,0-2.621-3.8l-.169-.085a3.39,3.39,0,0,0-.529-.424,2.431,2.431,0,0,0-.72-.339,3.733,3.733,0,0,0-.89-.466c-.365-.138-.662-.238-.884-.3a13.094,13.094,0,0,0-4.988-.588,16.8,16.8,0,0,0-4.9,1.181,41.374,41.374,0,0,0-4.564,2.028,19.173,19.173,0,0,0-2.118,1.1L81.23,194.83q-.762.529-3.807,3.209a62.4,62.4,0,0,0-5.067,5.411,54.943,54.943,0,0,0-4.824,7.079q-2.367,4.135-3.553,6.762a.222.222,0,0,1-.254.254,2.255,2.255,0,0,1,0-.847l.339-3.548c.228-2.033.365-3.553.424-4.564l.678-6.354A4.766,4.766,0,0,0,65,200.8a5.21,5.21,0,0,0-1.689-.53,1.393,1.393,0,0,0-1.017.339,3.077,3.077,0,0,0-.678.762q-.334.842-.842,2.536a61.428,61.428,0,0,0-1.1,6.169,23.3,23.3,0,0,0-.424,2.621l-.927,7.688-.254,1.943-.424,4.395c-.222,1.694-.365,2.96-.424,3.807-.111,1.128-.222,2.7-.334,4.734v3.378a1.419,1.419,0,0,0,.588,1.3,1.446,1.446,0,0,0,.932.339,1.176,1.176,0,0,0,.529-.085l1.1-.254c.4-.111.62-.307.678-.588a5.984,5.984,0,0,1,.169-.593c.053-.169.111-.339.169-.53a39.945,39.945,0,0,0,.842-4.141c.058-.339.143-.9.254-1.689a15.355,15.355,0,0,0,.169-2.118,2.881,2.881,0,0,1,.169-.678,21.547,21.547,0,0,1,.847-3.045,47.385,47.385,0,0,1,2.118-5.66,42.133,42.133,0,0,1,2.706-5.576l2.277-4.146.762-1.181a22.9,22.9,0,0,0,1.355-2.028l2.282-2.875a42.556,42.556,0,0,1,3.124-3.548q1.017-1.1,3.214-3.129,2.865-2.282,2.616-2.118,1.859-1.35,2.79-1.943c.45-.222.958-.492,1.52-.8s1.213-.63,1.949-.969a18.67,18.67,0,0,1,4.644-1.588,10.433,10.433,0,0,1,2.282-.249,8.88,8.88,0,0,1,2.118.249,3.336,3.336,0,0,1,2.335,2.293,12.258,12.258,0,0,1,.762,5.327l-.254,1.52a30.524,30.524,0,0,1-3.039,7.1,16.283,16.283,0,0,0-.89,1.4c-.312.529-.688,1.112-1.138,1.731a7.418,7.418,0,0,0-.593.842,7.682,7.682,0,0,1-.593.847c-.228.281-.529.688-.932,1.223a10.99,10.99,0,0,1-1.1,1.313q-2.367,2.875-2.2,2.706c.053-.058-.731.815-2.367,2.616l-1.588,1.779a23.714,23.714,0,0,0-1.943,2.118l-.085.085-4.082,4.077-.927.842a1.5,1.5,0,0,0-.424,1.1v.339a.588.588,0,0,0,.169.424,3.5,3.5,0,0,0,2.028,1.181c.339.058.747.116,1.228.169a9.808,9.808,0,0,0,1.138.085,4.569,4.569,0,0,1,2.2.593,12.845,12.845,0,0,1,3.463,2.87,5.617,5.617,0,0,1,.529.8q.217.381.381.635l-.254.254-4.141,2.785a45.114,45.114,0,0,0-3.886,3.129L79.5,246.392a54.292,54.292,0,0,0-5.724,6.56c-.847,1.3-1.588,2.568-2.282,3.807a36.418,36.418,0,0,0-2.282,5.491,14.243,14.243,0,0,0-.678,4.48,6.91,6.91,0,0,0,1.356,3.383,3.611,3.611,0,0,0,1.435,1.1,11.346,11.346,0,0,0,1.52.424,8.619,8.619,0,0,0,2.875.424,11.705,11.705,0,0,0,3.383-.53,23.153,23.153,0,0,0,7.265-3.632l.529-.339,3.045-2.282a6.664,6.664,0,0,0,.461-.53c.143-.169.27-.307.381-.424l.529-.5c.222-.169.847-.762,1.859-1.779a11.452,11.452,0,0,0,1.44-1.943l1.181-1.588.169-.339.529-.927a16.293,16.293,0,0,0,1.52-3.3,14.567,14.567,0,0,0,.932-4.48c0-1.35-.032-2.393-.085-3.124a21.232,21.232,0,0,0-1.271-4.734,20.269,20.269,0,0,0-1.859-3.638.275.275,0,0,1-.085-.212.286.286,0,0,0-.085-.212l2.367-1.266L103,233.743a13.393,13.393,0,0,1,2.452-1.181c1.4-.62,2.42-1.1,3.039-1.44a7,7,0,0,0,.953-.625c-.2.413-.4.863-.614,1.387a28.18,28.18,0,0,0-2.118,5.745,21.239,21.239,0,0,0-.932,4.988,3.524,3.524,0,0,0,1.44,3.214l1.011.529a2.478,2.478,0,0,0,2.282.249,7.858,7.858,0,0,0,2.536-1.647,13.867,13.867,0,0,0,2.118-2.324l.424-.529-.085.847a25.774,25.774,0,0,0-.254,4.236,15.788,15.788,0,0,0,.424,3.468,7.245,7.245,0,0,0,.529,1.689,2.648,2.648,0,0,0,1.308,1.35,3.14,3.14,0,0,0,1.9.254q1.271-.254,3.129-2.96a28.409,28.409,0,0,0,2.785-4.9q.53-1.1,2.621-5.92c-.032.069.429-1.033,1.371-3.288-.074.556-.138,1.165-.185,1.853a10.658,10.658,0,0,0,.418,3.129,1.922,1.922,0,0,0,.339.672,3.13,3.13,0,0,0,1.705,1.2l.847.254a2.415,2.415,0,0,0,1.1.249,1.483,1.483,0,0,0,1.1-.418l.424-.169a6.386,6.386,0,0,0,1.181-.847l1.271-1.35,2.2-2.452.5-.53a1.678,1.678,0,0,1-.122.635,1.26,1.26,0,0,0-.127.466l-.254,1.011-1.1,3.971a4.962,4.962,0,0,1-1.011,2.118q-2.367,2.711-3.468,4.236a70.155,70.155,0,0,0-4.072,6.169q-.169.334-.381.715c-.138.254-.3.53-.461.89q-1.1,1.949-2.367,4.395a49.958,49.958,0,0,0-4.818,13.767,25.3,25.3,0,0,0-.529,4.983,10.855,10.855,0,0,0,.678,3.553,2.838,2.838,0,0,0,1.52,1.588c.169.058.45.143.847.254a4.039,4.039,0,0,0,1.1.169,2.2,2.2,0,0,0,1.35-.339,10.4,10.4,0,0,0,1.694-1.435,23.69,23.69,0,0,0,2.785-4.236q1.589-3.129,2.536-5.327a7.943,7.943,0,0,1,.593-1.435,12.538,12.538,0,0,0,1.017-2.79l.672-1.774q.418-1.017,1.1-3.214.672-2.023,1.859-6.084l.927-3.383.847-2.785,1.689-6.036,1.271-4.734a2.118,2.118,0,0,1,.529-1.017,8.826,8.826,0,0,1,.842-1.011l3.468-3.892,1.011-1.266,5-5.539c0,1.419.032,2.8.069,4.1l-.085,4.236a23.146,23.146,0,0,0,.085,2.367,22.166,22.166,0,0,0,.169,2.446,8.074,8.074,0,0,0,1.35,3.638,2.7,2.7,0,0,0,1.589,1.1,5.405,5.405,0,0,0,1.588.169,1.663,1.663,0,0,0,1.112-.6,8.265,8.265,0,0,1,.932-1.356,40.731,40.731,0,0,0,2.282-4.649q.752-1.689,2.118-5.067l2.785-7.27a1.059,1.059,0,0,1,.254-.529l.254.339c.847,1.011,1.3,1.551,1.35,1.589a3.929,3.929,0,0,0,2.621,1.017,4.343,4.343,0,0,0,1.356-.254,13.443,13.443,0,0,0,3.8-2.028l.09-.064c-.058.191-.127.387-.175.567-.169.529-.365,1.1-.593,1.779s-.45,1.408-.678,2.2a12.707,12.707,0,0,0-.5,1.52c-.169.62-.312,1.128-.424,1.52a6.736,6.736,0,0,0-.339,1.186c-.058.339-.111.619-.169.842a9.44,9.44,0,0,0-.339,2.706,8.191,8.191,0,0,0,1.186,3.886,4.506,4.506,0,0,0,3.8,2.536,2.9,2.9,0,0,0,.847.085,7.412,7.412,0,0,0,3.209-.927,17.42,17.42,0,0,0,4.988-4.649L191.407,241q1.1-1.525,3.706-5.957l.032-.058a22.35,22.35,0,0,0-.625,3.479,12.175,12.175,0,0,0-.085,1.689,13.454,13.454,0,0,0,.085,1.694,8.679,8.679,0,0,0,.762,3.039,5.692,5.692,0,0,0,2.536,2.96,9.658,9.658,0,0,0,4.649,1.35,10.1,10.1,0,0,0,2.706-.424,17.086,17.086,0,0,0,4.056-2.282,27.323,27.323,0,0,0,4.056-3.8,14.3,14.3,0,0,0,1.435-1.588,45.431,45.431,0,0,0,3.426-5.793q.874-1.731,1.5-3.177v.18c-.392,2.759-.62,4.707-.678,5.824,0,.529-.042,1.366-.127,2.579a26.241,26.241,0,0,0-.042,3.256,20.767,20.767,0,0,0,.339,3.039,4.8,4.8,0,0,0,2.118,2.96,2.822,2.822,0,0,0,1.525.424,3.648,3.648,0,0,0,2.007-.72l.927-1.1a36.1,36.1,0,0,0,2.79-4.236l3.632-6.507.339-.5a6.011,6.011,0,0,1-.085,1.265l-.085,1.588a2.8,2.8,0,0,0-.042.8,2.648,2.648,0,0,1-.042.8,12.754,12.754,0,0,0,.424,3.463,3.77,3.77,0,0,0,.762,1.689c.392.53.62.789.672.847a2.08,2.08,0,0,0,.762.339,6.1,6.1,0,0,0,2.028.254,1.721,1.721,0,0,0,1.186-.593l.529-.593a24.711,24.711,0,0,0,2.536-4.31l1.694-3.632,2.118-4.734.927-2.282.254.424q1.588,3.378,4.818,3.378a9.812,9.812,0,0,0,5.194-1.731,27.779,27.779,0,0,0,4.861-3.844,1.388,1.388,0,0,0,.424-1.017A1.144,1.144,0,0,0,261.1,228.7Zm-58.186.858,1.011-1.52q.529-.842,1.689-2.536l.762-.847a2.437,2.437,0,0,1,.529-.529,2.709,2.709,0,0,0,.529-.53,3.33,3.33,0,0,1,1.35-1.017,15.885,15.885,0,0,1-3.214,5.5q-2.367,2.647-3.463,2.955C202.606,230.137,202.86,229.66,202.918,229.554ZM93.218,252.28a26.169,26.169,0,0,1-2.118,4.649c-.392.619-.874,1.308-1.435,2.07s-1.017,1.334-1.356,1.731l-1.52,1.689-.254.339-2.706,2.2a22.912,22.912,0,0,1-4.983,3.129,12.837,12.837,0,0,1-2.96.927H74.876a1.615,1.615,0,0,1-1.181-.53,4.363,4.363,0,0,1-1.265-2.923,11.442,11.442,0,0,1,.529-3.638,31.939,31.939,0,0,1,4.368-9.07,57.551,57.551,0,0,1,3.807-4.564c.334-.339,1.35-1.3,3.039-2.875a13.448,13.448,0,0,1,1.774-1.52l2.282-1.779c.339-.222.831-.561,1.483-1.011s1.2-.815,1.647-1.1a4.446,4.446,0,0,0,.932-.588,2.361,2.361,0,0,1,.334.588c.116.339.281.863.529,1.588a9.293,9.293,0,0,1,.424,1.986c.222,1.636.365,2.955.424,3.971A14.825,14.825,0,0,1,93.218,252.28Zm25.019-20.963a32.51,32.51,0,0,1-.932,3.383,12.909,12.909,0,0,1-1.52,2.79,23.917,23.917,0,0,1-3.129,3.971l-1.52,1.435-.339.254a6.932,6.932,0,0,1,.085-1.774c.222-.958.62-2.393,1.181-4.31a26.975,26.975,0,0,1,1.44-3.553c.731-1.588,1.181-2.536,1.35-2.87a15.927,15.927,0,0,1,2.118-3.553l.339-.254.169.085a8.4,8.4,0,0,1,.932,3.214,7.3,7.3,0,0,1-.175,1.181Zm17.913,22.239-1.52,5.411-2.96,9.886a23.407,23.407,0,0,0-.842,2.875l-1.44,4.395a42.794,42.794,0,0,1-2.028,5.242c-.111.222-.349.662-.715,1.308a7.625,7.625,0,0,1-1.228,1.647l-.424.424a5.449,5.449,0,0,1-.418-1.35c-.117-1.017-.169-1.721-.169-2.118A6.832,6.832,0,0,1,124.49,280a38.23,38.23,0,0,1,3.463-12.93l.762-1.52a21.8,21.8,0,0,1,1.265-2.647,71.9,71.9,0,0,1,3.8-6.846c.45-.561,1.059-1.467,1.864-2.706a4.09,4.09,0,0,0,.334-.381c.116-.138.254-.291.424-.461Z" transform="translate(-3475.652 -2357.206)" fill="#fff"/><path d="M291.354,235.97s-1.445-.085-1.768,1.059a2.5,2.5,0,0,0-1.144,1.033,3.7,3.7,0,0,1,2.452-.429,4.538,4.538,0,0,0,2.33.328,1.551,1.551,0,0,0,1.149,1.678,5.453,5.453,0,0,1,2.595,2.886c1.16-.62.069-2.737-.026-2.923.244.2.588-.895.217-1.271.312.085.116-.567-.1-.757.408.307.154-.455,0-.593.222,0,.148-.471-.032-.593a3.465,3.465,0,0,1,2.494.577c.974.424-.2-.8-.2-.8s1.636-.175.381-.651c.567-.259,0-.9-.921-.8.418-.27-1.589-.238-2.944.09a.752.752,0,0,0-.784-.741c.424-.148-.18-.815-.455-.863.09-.244-.27-.614-.911-.461.281-.238-.238-.376-.736-.328.249-.281-.328-.651-.969-.4.111-.344-.344-.429-.868-.376-.439-.307-2.854-1.763-4.093-2.647s-1.811-1.266-2-.831.461,2.51,1.663,4.067,2.166,1.128,3.394,1.8A2.483,2.483,0,0,1,291.354,235.97Z" transform="translate(-3582.986 -2375.763)" fill="#fff"/></g></svg>