<svg xmlns="http://www.w3.org/2000/svg" width="77.182" height="77.181" viewBox="0 0 77.182 77.181"><g transform="translate(-923.818 -1214.219)"><g transform="translate(840.008 1130.409)"><path d="M167.134,124.322a1.993,1.993,0,0,0,.488.09.866.866,0,0,0,.133,0h.08a.332.332,0,0,0,.139.093l.066.02.03-.06a.163.163,0,0,0-.04-.2.3.3,0,0,0-.306-.083l-.073.037a1.588,1.588,0,0,0-.764-.086l-.448.076.448.083A.667.667,0,0,1,167.134,124.322Z" transform="translate(-55.186 -26.921)" fill="#1c1c1c"/><path d="M171.561,127.381h.153a.724.724,0,0,0,.232-.05l.063-.023.073-.017c.1-.02.219-.046.262-.163l.04-.11h-.332l-.053-.027h-.023l-.02-.027h-.037l-.249-.027a3.654,3.654,0,0,0-.578-.04h-.037c-.06,0-.176,0-.226.093l-.05.106h.116c.156,0,.332.03.478.04l.292.02a.269.269,0,0,0-.066.116Z" transform="translate(-58.084 -28.778)" fill="#1c1c1c"/><path d="M242.906,135.953l-.047-.023-.09.02V136a2.544,2.544,0,0,0,.156,1.249,1.136,1.136,0,0,0,.282.462l.183.156-.063-.3c-.11-.521-.219-1.063-.375-1.551A.1.1,0,0,0,242.906,135.953Z" transform="translate(-106.15 -34.809)" fill="#1c1c1c"/><path d="M244.126,136.148v.027a1.916,1.916,0,0,0,.256,1.192l.163.2-.027-.382a7.072,7.072,0,0,0-.166-1.292l-.063-.236-.093.226a.866.866,0,0,0-.04.153A.589.589,0,0,1,244.126,136.148Z" transform="translate(-107.061 -34.629)" fill="#1c1c1c"/><path d="M245.722,137.754v-.236a3.862,3.862,0,0,1,0-.438,2.518,2.518,0,0,0-.047-.741l-.063-.2-.09.186a1.425,1.425,0,0,0,.053,1.252Z" transform="translate(-107.923 -34.949)" fill="#1c1c1c"/><path d="M246.812,138.111a.136.136,0,0,0,.06.04h.053a2.723,2.723,0,0,0,1.086-.555l.133-.133h-.186a1.448,1.448,0,0,0-.844.272l-.086.056a1.352,1.352,0,0,0,.146-.359v-.04a.11.11,0,0,0-.133-.08H247l-.017.047a.139.139,0,0,1-.043,0H246.9l-.02.03-.07.1a1.033,1.033,0,0,0-.269.664v.13l.116-.053A.455.455,0,0,0,246.812,138.111Z" transform="translate(-108.682 -35.731)" fill="#1c1c1c"/><path d="M152.686,158.543l-.226-.173.1.269a1.95,1.95,0,0,0,.246.422c.037.05.073.1.106.153l.11.183a1.754,1.754,0,0,0,.266.389l.183.186-.043-.259A1.8,1.8,0,0,0,152.686,158.543Z" transform="translate(-45.849 -49.796)" fill="#1c1c1c"/><path d="M150.287,161.182v-.043l-.07-.056a1.382,1.382,0,0,0-.8-.372h-.03a.1.1,0,0,0-.1.1v.04l.027.027a2.78,2.78,0,0,0,.418.3,2.678,2.678,0,0,0-.332-.037h-.153a1.232,1.232,0,0,0-.731.2l-.113.1.143.04a1.956,1.956,0,0,0,.5.046h.412a.86.86,0,0,1,.2-.033.535.535,0,0,0,.372-.12l.04-.043.176.066.1.033v-.106a.173.173,0,0,0-.053-.139Z" transform="translate(-43.137 -51.359)" fill="#1c1c1c"/><path d="M243.955,194.965h.023l.017-.023a.409.409,0,0,1,.083-.09.332.332,0,0,0,.136-.385v-.056h-.156l-.12.113a2.252,2.252,0,0,0-.478.551l-.09.159.179-.04a.77.77,0,0,0,.272-.13A.745.745,0,0,1,243.955,194.965Z" transform="translate(-106.565 -73.866)" fill="#1c1c1c"/><path d="M162.152,195.57l-.023-.03h-.209l.03.106a1.734,1.734,0,0,0,.741.947l.259.183-.139-.286A3.843,3.843,0,0,0,162.152,195.57Z" transform="translate(-52.167 -74.621)" fill="#1c1c1c"/><path d="M161.328,195.979l-.139-.269v.389a.74.74,0,0,0,0,.13.126.126,0,0,0-.043.03.113.113,0,0,0-.02.066,3.248,3.248,0,0,0-.236,1.06v.116h.037a.091.091,0,0,0,.093.066h.076v-.046c.056-.216.1-.445.143-.664a.139.139,0,0,1,.017-.08.365.365,0,0,0,.149.2l.126.08V196.9A2.079,2.079,0,0,0,161.328,195.979Z" transform="translate(-51.479 -74.734)" fill="#1c1c1c"/><path d="M245.087,196.131a.073.073,0,0,1,0-.027c0-.05-.017-.169-.126-.189h0a.392.392,0,0,0,.03-.189.583.583,0,0,1,0-.076v-.09h-.056a.093.093,0,0,0-.06-.04h-.056l-.03.046-.08.12a4.214,4.214,0,0,0-.269.448l-.09.179.189-.066a.664.664,0,0,0,.332-.2,1.2,1.2,0,0,1,.02.279.884.884,0,0,0,.05.4l.076.159q0,.048,0,.1a2.252,2.252,0,0,0,.1.511l.213.581-.053-.618A11.246,11.246,0,0,0,245.087,196.131Z" transform="translate(-107.219 -74.607)" fill="#1c1c1c"/><path d="M204.527,204.748v-.02H204.5a.1.1,0,0,0-.093,0,.106.106,0,0,0-.063.063v.047a.555.555,0,0,0,.037.146h-.017l-.017.04a1.621,1.621,0,0,0,.05,1.219l.106.149.043-.179a2.771,2.771,0,0,0,.033-.837,1.133,1.133,0,0,0,.3.266l.169.106-.047-.2a1.737,1.737,0,0,0-.472-.8Z" transform="translate(-80.439 -80.749)" fill="#1c1c1c"/><path d="M183.592,127.161a.312.312,0,0,0-.149.07.6.6,0,0,0-.02-.3l-.053-.153-.09.133-.04.053-.053.073a1.993,1.993,0,0,0-.153-.714l-.1-.209-.056.223a.663.663,0,0,0,0,.086,1.993,1.993,0,0,0-.156-.428l-.126-.242-.027.272a1.712,1.712,0,0,0,0,.183,3.728,3.728,0,0,0-.272-.581l-.186-.332.033.375c.017.146.043.289.07.428l-.06-.133-.066-.143-.023-.03a.485.485,0,0,1-.053-.1c-.037-.083-.09-.209-.2-.169l-.066.027v0c-.037-.063-.073-.123-.106-.186l-.186-.332.033.385h0c-.09-.169-.189-.332-.3-.531l-.2-.332.037.332a.785.785,0,0,0-.086-.12l-.262-.332.123.4a.551.551,0,0,0,.046.149l-.179-.186.086.3-.149-.249-.312-.5.163.571a.392.392,0,0,0,.033.113l-.04-.056-.246-.332.1.389.02.073c-.043-.07-.086-.139-.13-.2l-.183-.272.027.252h0a.8.8,0,0,0-.08-.14.529.529,0,0,1-.086-.173v-.02h0a.827.827,0,0,1-.1-.143l-.04-.06a.1.1,0,0,0-.09-.1c-.066-.007-.07,0-.1.07v.033l.017.033.133.292-.04-.06c-.02-.043-.05-.113-.12-.106a.1.1,0,0,0-.086.073v.03l.073.163c.056.123.113.246.163.372-.073-.13-.149-.256-.229-.389h0c-.02-.046-.05-.113-.116-.11a.1.1,0,0,0-.09.076v.056c.056.123.11.246.163.369l-.1-.166-.392-.611.246.684c.053.153.113.309.173.458h0l-.027-.047c-.05-.093-.11-.2-.149-.259s-.073-.126-.11-.186a2.059,2.059,0,0,0-.149-.249l-.382-.511.239.591c.073.179.146.359.223.538l-.076-.133a1.328,1.328,0,0,0-.159-.232l-.312-.332.176.415c.116.276.236.565.359.85-.139-.266-.282-.508-.428-.734l-.392-.6.246.664c.066.189.143.375.219.555a1.23,1.23,0,0,0-.07-.11,1.086,1.086,0,0,1-.066-.1l-.093-.186a3.5,3.5,0,0,0-.166-.312l-.037-.056c-.086-.143-.173-.279-.269-.425a.037.037,0,0,0-.017-.03.249.249,0,0,0-.06-.1.12.12,0,0,0-.04-.06.19.19,0,0,0-.033-.063.1.1,0,0,0-.11-.027.086.086,0,0,0-.06.093v.093h.033l.03.06h0c.126.229.242.475.352.714l.027.06.03.063c-.1-.166-.2-.332-.3-.488l-.392-.618.246.691c.07.189.153.369.232.538l.136.3c-.043-.066-.08-.133-.11-.189s-.033-.066-.05-.1a1.09,1.09,0,0,0-.136-.239.485.485,0,0,1-.073-.11l-.023-.046v-.027a2.258,2.258,0,0,0-.229-.349l-.492-.475.259.571c.123.272.259.571.405.864l-.037-.04a.31.31,0,0,1-.03-.04.163.163,0,0,1-.027-.06.415.415,0,0,0-.04-.09c0-.023-.033-.043-.05-.066a.229.229,0,0,1-.037-.043c-.027-.043-.053-.086-.076-.13s-.046-.086-.073-.13h0c-.046-.1-.106-.13-.176-.1l-.08.03.086.193c.04.08.076.163.116.242a2.53,2.53,0,0,0-.156-.242.2.2,0,0,0-.037-.07c-.05-.1-.083-.166-.146-.183h-.053l-.086.066.033.063a2.656,2.656,0,0,1,.136.276c.017.043.037.083.056.126a1,1,0,0,0,.07.133l.053.106h-.017c-.1-.189-.232-.422-.332-.571a.133.133,0,0,0-.043-.043l-.03-.063c-.023-.06-.073-.183-.193-.143l-.11.033.066.093a1.507,1.507,0,0,1,.149.282,2.143,2.143,0,0,0,.139.276s0,0,0,.02a.881.881,0,0,0-.123-.189.279.279,0,0,0-.07-.123.251.251,0,0,1-.027-.037.3.3,0,0,0-.017-.033.153.153,0,0,0-.09-.113.106.106,0,0,0-.1,0l-.063.043.04.066c.056.106.113.219.169.332h-.056a.332.332,0,0,0-.05-.063h0l-.08-.1-.06.113v.023a5.116,5.116,0,0,0-.953-.11.189.189,0,0,1-.04-.037l-.056-.056-.08-.056-.043.086a.09.09,0,0,0,0,.04h-.239a.113.113,0,0,0-.106-.056.1.1,0,0,0-.073.06h-.04a.429.429,0,0,1-.093,0l-.113-.1v.123h0a6.2,6.2,0,0,0-1.149.156l-.352.07a.113.113,0,0,0-.1-.073.1.1,0,0,0-.086.066l-.106-.3c-.043-.126-.1-.249-.153-.375a2.837,2.837,0,0,0,.252.309l.236.242-.1-.332c-.027-.083-.056-.173-.093-.266.04.053.086.106.116.143l.033-.023h0l-.027.03a.123.123,0,0,0,.1.076h0a.1.1,0,0,0,.09-.056l.02-.037-.02-.04-.09-.2a1.808,1.808,0,0,0,.156.163l.236.219-.1-.306c-.02-.06-.04-.116-.063-.176.04.046.08.09.123.133l.256.249-.123-.332c-.023-.066-.05-.133-.076-.2l.037.053.023.037h.02v.017a.123.123,0,0,0,.1.083.1.1,0,0,0,.09-.05l.027-.04-.02-.04c-.06-.126-.116-.256-.173-.385l.03.037a.511.511,0,0,0,.07.1l.04.053h.023l.023.033a.163.163,0,0,0,.116.1.11.11,0,0,0,.093-.04l.046-.053-.043-.053a.423.423,0,0,1-.056-.116,1.33,1.33,0,0,0,.13.139l.276.269-.186-.468.023.027.272.309-.076-.332a2.2,2.2,0,0,0-.1-.3l.04.043.037.053c.033.056.09.149.193.126l.11-.027-.053-.093c-.043-.08-.08-.163-.116-.249a1.3,1.3,0,0,0,.206.223l.206.169-.073-.256c-.02-.06-.04-.116-.063-.169a1.1,1.1,0,0,0,.123.126l.2.166-.063-.249a2.159,2.159,0,0,0-.13-.332,2.05,2.05,0,0,1-.12-.309h0a2.761,2.761,0,0,0,.409.561l.2.206-.06-.279a1.281,1.281,0,0,0-.093-.256c-.027-.06-.05-.116-.07-.176h0a1.382,1.382,0,0,0,.206.266,1.19,1.19,0,0,1,.086.1l.262.309-.123-.389a2.328,2.328,0,0,0-.086-.229l-.066-.166h0a1.637,1.637,0,0,0,.256.316l.2.176-.07-.259a1.474,1.474,0,0,0-.093-.242,1.3,1.3,0,0,1-.093-.256,2.1,2.1,0,0,0,.332.425l.219.216-.083-.3a1.856,1.856,0,0,0-.066-.179c0-.037-.03-.07-.043-.106v-.033l.023.03a1.576,1.576,0,0,0,.226.246l.239.193-.11-.286c-.027-.07-.05-.139-.076-.213s-.027-.083-.043-.126a.143.143,0,0,0,.05-.05h0a.2.2,0,0,1,.053.083v.047h.05a.186.186,0,0,1,.03.047.183.183,0,0,0,.113.1.1.1,0,0,0,.086-.027l.05-.043-.03-.056a2.085,2.085,0,0,1-.156-.4h0l.017-.02a.594.594,0,0,0,.066.086.524.524,0,0,1,.04.05.1.1,0,0,0,0,.093.1.1,0,0,0,.086.053h.03c.027.043.06.093.116.1a.116.116,0,0,0,.1-.04l.06-.07-.076-.053a.283.283,0,0,1,0-.05.063.063,0,0,0-.017-.043h0a.906.906,0,0,1,.073-.08,1.278,1.278,0,0,0,.123.156l.179.206-.037-.269a.8.8,0,0,0-.07-.213.472.472,0,0,1-.027-.06h0a.564.564,0,0,1,.06-.063.384.384,0,0,0,.047.056l.033.04a.123.123,0,0,0-.023.083.1.1,0,0,0,.093.093h.073l.209.163-.09-.262c-.02-.05,0-.08.1-.149l.023-.02a.179.179,0,0,0,.1.08l.133.05h0l.04.056.07-.073a1.249,1.249,0,0,1,.136-.126,1.345,1.345,0,0,0,.176-.163.631.631,0,0,0,.113-.153c.073-.063.12-.1.169-.09h.073a.462.462,0,0,0,.1.389l.03.033h.043a.236.236,0,0,0,.2-.186l.123.093a1.059,1.059,0,0,1,.183.153l.017.02h.023a.5.5,0,0,1,.149.093.429.429,0,0,0,.256.126h.04l.156-.023-.113-.116a.866.866,0,0,0-.08-.073.565.565,0,0,1-.123-.13l-.017-.023h-.03a.332.332,0,0,1-.12-.073.492.492,0,0,0-.143-.09l-.05-.03c-.12-.076-.209-.126-.286-.11h0a.266.266,0,0,0-.269-.153h-.046v-.01a5.342,5.342,0,0,0-.2-.545c-.023-.053-.043-.1-.06-.153-.043-.106-.086-.216-.126-.332l.12.252c.053.106.106.213.156.332l.02.03a.89.89,0,0,1,.126.159,1,1,0,0,0,.153.183l.252.236-.219-.588c-.037-.09-.07-.179-.1-.269a2.361,2.361,0,0,0,.332.445l.2.216-.063-.289a1.125,1.125,0,0,0-.043-.139,1.524,1.524,0,0,0,.123.13l.216.213-.08-.292c-.037-.13-.08-.256-.123-.382a2.208,2.208,0,0,0,.242.309l.249.262-.113-.332-.1-.289h.02l.017.027a.193.193,0,0,0,.073.086c.027.05.073.13.143.136h0a.1.1,0,0,0,.083-.047l.073-.11h-.093l-.093-.259a.833.833,0,0,0,.086.1c.027.066.1.176.183.193h.02a.1.1,0,0,0,.08-.04l.033-.04-.023-.047a1.66,1.66,0,0,1-.093-.209c.053.073.113.146.173.216l.256.276-.116-.355c-.02-.066-.046-.136-.07-.2a1.958,1.958,0,0,0,.146.176l.266.279-.262-.747-.06-.169a1.847,1.847,0,0,0,.362.492l.249.229-.116-.332-.139-.392-.023-.063a.442.442,0,0,0,.08.12.462.462,0,0,0,.173.219.136.136,0,0,0,.06.063l.06.023.043-.033c.02,0,.046-.053.027-.133-.086-.213-.173-.445-.252-.664s-.189-.521-.286-.751l-.017-.04a.332.332,0,0,0-.12-.186l-.13-.093v.455a1.016,1.016,0,0,0,.033.136c-.056-.146-.116-.292-.176-.435a.159.159,0,0,0-.086-.093l-.139-.066.023.153a1.5,1.5,0,0,1,.02.332v.027l.04.163c-.08-.219-.163-.438-.246-.664a.11.11,0,0,0-.04-.066l-.043-.023-.1.023v.056a1.293,1.293,0,0,0,0,.163.77.77,0,0,0-.12-.216l-.143-.163v.216a1.152,1.152,0,0,0,0,.163,1.249,1.249,0,0,1,0,.159.863.863,0,0,1-.033-.083.1.1,0,0,0-.04-.066l-.043-.023-.1.023v.066a2.507,2.507,0,0,0,.02.332,3.579,3.579,0,0,0-.166-.382l-.169-.332v.365a3.017,3.017,0,0,0,.043.435c-.043-.11-.093-.219-.146-.332l-.136-.266-.02.3a1,1,0,0,0,0,.183.614.614,0,0,1,0,.176c-.047-.1-.093-.209-.146-.306l-.156-.282v.425a.251.251,0,0,0-.03-.06l-.027-.053-.02-.073a.332.332,0,0,0-.116-.223l-.189-.136.063.226a.837.837,0,0,1,.023.232.9.9,0,0,0,.017.209.744.744,0,0,0,.047.153c-.037-.09-.07-.179-.1-.262v-.027a.332.332,0,0,0-.106-.159l-.143-.1.017.173a4.113,4.113,0,0,0,.259,1.2.292.292,0,0,0,0,.05l-.053-.143c-.033-.09-.066-.179-.1-.269a3.71,3.71,0,0,0-.276-.664L177.3,119v.332a2.6,2.6,0,0,0,.073.571c-.056-.13-.113-.256-.176-.375l-.176-.332.02.379a3.431,3.431,0,0,0,.146.81,6.975,6.975,0,0,0-.355-.834l-.209-.389.053.438v.116a1.244,1.244,0,0,1,.027.279v.023c.033.136.07.262.106.385-.033-.093-.063-.176-.1-.266V120.1a1,1,0,0,0-.169-.3l-.166-.176.023.239a5.523,5.523,0,0,0,.3,1.216v.017h-.023a3.21,3.21,0,0,0-.2-.511c-.056-.13-.113-.262-.159-.405v-.053h-.02a.11.11,0,0,0-.1-.09.113.113,0,0,0-.1.066v.053a6.643,6.643,0,0,0,.206.893h0c-.093-.266-.206-.558-.332-.9a.72.72,0,0,1-.03-.076.664.664,0,0,0-.139-.249l-.159-.163.02.226a5.211,5.211,0,0,0,.249,1.076,1.223,1.223,0,0,0-.13-.292.508.508,0,0,0-.066-.173l-.027-.05a.192.192,0,0,1-.017-.047.332.332,0,0,0-.12-.179l-.149-.1.023.179a5.246,5.246,0,0,0,.146.724h0l-.033-.076c-.06-.153-.123-.309-.183-.435l-.017-.033a.332.332,0,0,0-.12-.169l-.163-.113.037.193.03.173a3.02,3.02,0,0,0,.11.5h-.02l-.02-.046a.156.156,0,0,1-.023-.073v-.037l-.027-.02a.332.332,0,0,1-.073-.12.445.445,0,0,0-.123-.183l-.123-.1v.156a.788.788,0,0,0,0,.163.455.455,0,0,1,0,.153V121h0l-.023-.043a.318.318,0,0,0-.023-.066c-.007-.023-.053-.149-.12-.173a.106.106,0,0,0-.1,0l-.06.037.023.063a1.329,1.329,0,0,1,.053.256v.09h-.027c0-.03-.03-.063-.047-.1a.794.794,0,0,0-.156-.259l-.123-.166.053.266.02.1a1.462,1.462,0,0,1,.04.246h-.02l-.03-.06a.332.332,0,0,0-.083-.136l-.12-.106v.159a.392.392,0,0,0,0,.159.227.227,0,0,1,0,.047.409.409,0,0,0-.083.027.073.073,0,0,1-.043,0l-.09-.063-.037.1c0,.017-.037.03-.083.046a.382.382,0,0,0-.106.05h-.086l-.02.017a.94.94,0,0,1-.223.116l-.106.046a6.223,6.223,0,0,0-.591.332c-.136.083-.266.159-.409.236l-.153.1c-.139.09-.282.179-.418.279l-.037-.116a1.66,1.66,0,0,0-.169-.355c-.02-.03-.037-.06-.053-.09a.8.8,0,0,1-.043-.093l.066.07a.97.97,0,0,1,.123.136l.023.03c.056.07.146.186.239.113l.06-.046-.04-.063c-.056-.093-.11-.189-.163-.289a.584.584,0,0,0,.116.1l.186.106-.066-.2a.842.842,0,0,0-.063-.146l.033.033.03.037c.033.047.1.133.193.09l.086-.037-.05-.083a1.993,1.993,0,0,1-.149-.292l-.06-.13a.94.94,0,0,0,.133.123l.259.193-.136-.292a4.063,4.063,0,0,0-.213-.412l.113.116.159.169.272.309-.136-.389a1.823,1.823,0,0,0-.12-.269l.1.106c.066.063.126.08.183.04l.073-.05-.06-.07a.5.5,0,0,1-.073-.133.8.8,0,0,0-.106-.176.372.372,0,0,0-.066-.136.117.117,0,0,1,0-.027.391.391,0,0,0-.017-.037h.076a.352.352,0,0,0,.093.1.256.256,0,0,1,.06.063l.037.047a.87.87,0,0,0,.186.179l.236.163-.116-.262c-.063-.146-.139-.282-.209-.412l-.03-.053h.017l.02.017a.332.332,0,0,1,.06.056h0c.046.047.09.1.133.146a1.856,1.856,0,0,0,.239.246l.276.229-.149-.332c-.08-.173-.176-.355-.272-.518l.076.093.159.173c.073.08.146.163.229.239l.256.239-.123-.332a1.735,1.735,0,0,0-.156-.279c-.027-.037-.046-.07-.066-.1a.289.289,0,0,1-.023-.056.5.5,0,0,0-.043-.1,1.611,1.611,0,0,0-.093-.133,1.385,1.385,0,0,1-.1-.156l.179.2a3.357,3.357,0,0,0,.345.405l.332.3-.213-.4-.093-.176c-.043-.083-.09-.169-.133-.246.076.08.159.159.232.226s.149.07.186.04l.06-.05-.043-.063a1.292,1.292,0,0,1-.143-.269c-.037-.076-.073-.153-.113-.219a.556.556,0,0,0-.07-.1l-.04-.056h.033a.684.684,0,0,1,.116.123,1,1,0,0,0,.166.169.356.356,0,0,0,.113.136l.047.04.037.043c.04.053.1.13.193.11l.12-.03-.073-.1a4.806,4.806,0,0,1-.312-.521l-.073-.1c-.08-.106-.163-.213-.236-.332a1.441,1.441,0,0,1,.169.179c.046.053.093.11.146.159a.555.555,0,0,0,.12.13l.06.05c0,.017.03.033.043.053s.113.146.209.12l.11-.03-.066-.1c-.056-.086-.116-.186-.169-.286s-.073-.13-.106-.183a.932.932,0,0,0-.07-.1l-.04-.056-.05-.06-.02-.027h.033a.438.438,0,0,0,.106.113l.037.03a.186.186,0,0,0,.037.073.481.481,0,0,0,.06.056l.047.05c.149.166.332.332.458.478v.02c.02.03.076.116.173.086l.123-.037-.083-.1a1.7,1.7,0,0,1-.189-.286c-.033-.06-.066-.12-.106-.179s-.1-.149-.159-.226-.113-.149-.163-.226a1.123,1.123,0,0,0-.09-.12l-.043-.053h.033c.07.063.133.133.2.206a2.494,2.494,0,0,0,.3.292l.223.176-.1-.269a2.459,2.459,0,0,0-.289-.521l-.033-.05a.246.246,0,0,1,.086,0,.84.84,0,0,1,.153.169l.027.037h0l.08.06a.82.82,0,0,1,.09.07.289.289,0,0,1,.04.047c.037.046.1.13.189.1l.113-.037-.07-.093a2.658,2.658,0,0,1-.149-.226l-.04-.07-.08-.12c-.017-.027-.033-.05-.047-.076h.037l.046.047a6.465,6.465,0,0,0,.478.475l.289.256-.163-.352a3.439,3.439,0,0,0-.262-.465l-.116-.153c-.037-.05-.076-.1-.11-.149h.017l.126.126a2.581,2.581,0,0,1,.229.239v.02h.027a.189.189,0,0,1,.033.037.2.2,0,0,0,.123.086.12.12,0,0,0,.093-.033l.06-.05-.05-.063a.924.924,0,0,1-.1-.159,1.371,1.371,0,0,0-.11-.173.4.4,0,0,0-.063-.1.137.137,0,0,1-.033-.047h0c.176.193.365.379.558.555l.2.183-.063-.262a.754.754,0,0,0-.13-.236l-.033-.046a.168.168,0,0,1,0-.033.226.226,0,0,0-.03-.073.767.767,0,0,0-.08-.1.359.359,0,0,1-.053-.066v-.03h.05a3.493,3.493,0,0,1,.252.242,3.751,3.751,0,0,0,.286.276l.249.206-.12-.3a1.475,1.475,0,0,0-.139-.249,1,1,0,0,1-.12-.206h0a1.958,1.958,0,0,0,.223.216,1.439,1.439,0,0,1,.146.123l.03.037c.03.043.093.13.189.086l.093-.04-.06-.083c-.056-.076-.106-.159-.159-.239l-.053-.086a.143.143,0,0,0,.116,0l.086-.043-.066-.1-.027-.033a.113.113,0,0,0,.086-.066.3.3,0,0,0,.053.037l.249.183-.126-.282a2.6,2.6,0,0,0-.143-.269l.08.066h.02s.02.017.033.03a.239.239,0,0,0,.093.073l.03.03c.033.037.07.08.126.073h.053l.053-.083-.033-.047a1.219,1.219,0,0,1-.113-.183l-.066-.113a2.77,2.77,0,0,0,.216.176l.186.133-.06-.219a.75.75,0,0,0-.063-.163l.046.04a.206.206,0,0,0,.083.073h0v.056h.05v.017a.146.146,0,0,0,.113.07.13.13,0,0,0,.093-.053l.033-.053-.037-.047a1.6,1.6,0,0,1-.11-.166l.02.02c.063.06.139.136.226.1l.086-.033-.043-.083a4.075,4.075,0,0,0-.276-.425l-.017-.023.053.043a1.268,1.268,0,0,0,.236.173l.149.076-.03-.163a.492.492,0,0,0-.063-.156.332.332,0,0,1-.043-.1v-.02l.033.027.033.027h.02l.03.023a.183.183,0,0,0,.13.06.12.12,0,0,0,.08-.046l.033-.04-.023-.046a2.8,2.8,0,0,0-.206-.355h0l.06-.033a.877.877,0,0,1,.229.116,1.355,1.355,0,0,0,.279.136l.143.043-.04-.143a.555.555,0,0,0-.2-.272l-.037-.033a.618.618,0,0,1,.246.056.528.528,0,0,0,.262.05l.189-.027-.149-.116-.053-.047-.023-.02h0a.113.113,0,0,0,.11.043c.163-.023.332-.037.538-.05a4.109,4.109,0,0,0,1.026-.149l.372-.126-.392-.033a3.169,3.169,0,0,0-.624.033l-.139.02.043-.06H179.9a2.266,2.266,0,0,0-.485.083l-.1.027a1.4,1.4,0,0,0-.495.083.372.372,0,0,0-.176.03.186.186,0,0,1-.123,0h-.05l-.03.04a.116.116,0,0,0-.017.027.239.239,0,0,0-.183.023.2.2,0,0,1-.126.027h-.083l-.017.083v.02h0a.25.25,0,0,0-.05-.03l-.046-.027-.04.033a.375.375,0,0,1-.143.066h-.02l-.1.027a.193.193,0,0,0-.063,0h-.033l-.023.023h0l-.472.12h.183a.2.2,0,0,0-.093.053h-.047l-.06-.03-.04.053-.043.033-.046.04a.375.375,0,0,0-.169.033h-.046a.1.1,0,0,0-.066.056.047.047,0,0,0,0,.02.223.223,0,0,0-.133,0h-.046v.027h0a.106.106,0,0,0-.066.056.138.138,0,0,0,0,.027h-.143l-.027.047h0a.093.093,0,0,0-.1.046.063.063,0,0,0,0,.027.2.2,0,0,0-.11,0h-.066v.106h0a.14.14,0,0,0-.083.037l-.023.027a.289.289,0,0,0-.1.023l-.037.017-.056.02v.02h-.033v.05h-.02a.229.229,0,0,0-.106,0h-.033a.382.382,0,0,0-.09.09.156.156,0,0,1-.047.053h-.02c-.03.023-.03.023-.106,0h-.066l-.027.053h0a.077.077,0,0,0-.1.1.073.073,0,0,1-.053,0l-.086-.046-.027.093-.027.02-.043.033a.123.123,0,0,0-.023.047.136.136,0,0,0-.046.027.063.063,0,0,0-.03.017h-.017a.2.2,0,0,0-.056,0h-.093v.063a.113.113,0,0,0-.086.093h0a.232.232,0,0,1-.1.043h-.09v.023h-.063v.076a.332.332,0,0,1-.176.1h-.037l-.056.06a.851.851,0,0,1-.12.123l-.03.017a1.328,1.328,0,0,0-.219.126.226.226,0,0,0-.149.07h-.02a.186.186,0,0,0-.056.02h-.073l-.033.033a.687.687,0,0,1-.332.213l-.03.017a3.85,3.85,0,0,1-.385.252,3.356,3.356,0,0,0-.445.3,6.333,6.333,0,0,0-.794.6.123.123,0,0,0-.046.027h-.06l-.023.053a.3.3,0,0,1-.189.169h-.03v.03h0l-.017-.017h0a.126.126,0,0,0,.073-.037l.063-.063-.063-.056a1.378,1.378,0,0,1-.146-.163.156.156,0,0,0,.056,0l.189-.023-.143-.116a.116.116,0,0,0,.07-.04l.05-.056-.053-.056a1.794,1.794,0,0,1-.216-.256.11.11,0,0,0,.07-.04l.053-.06-.06-.053h0l.06.047-.1-.242.08.086-.183-.432a.665.665,0,0,0-.106-.169l.03-.027.053-.066-.066-.05a.7.7,0,0,1-.123-.136.1.1,0,0,0,.033-.033l.04-.056-.05-.05c-.04-.037-.076-.076-.11-.113a.073.073,0,0,0,.017-.027l.04-.076-.076-.033a.1.1,0,0,1-.023-.033.285.285,0,0,0-.043-.056l-.017-.09a.389.389,0,0,0-.106-.166l-.023-.027V116.7a.133.133,0,0,0-.017-.083h.023a.1.1,0,0,0,.037-.076v-.083h-.09v-.143l-.046.13a.242.242,0,0,1-.116-.146h0a.355.355,0,0,0,.246-.037l.139-.106-.173-.04-.156-.03a1.891,1.891,0,0,1-.216-.046.583.583,0,0,0-.053-.066l-.017-.017a1.431,1.431,0,0,0,.475-.05l.332-.12-.362-.04a1.162,1.162,0,0,1-.242-.05,1.4,1.4,0,0,0-.418-.06l-.03-.03h.246a2.656,2.656,0,0,0,.468-.04l.279-.06-.269-.1a2.72,2.72,0,0,0-.711-.116,6.23,6.23,0,0,0,.714-.05l.332-.037-.332-.12a3.281,3.281,0,0,0-.764-.123,5.4,5.4,0,0,0,.747-.063l.558-.083-.561-.08a2.989,2.989,0,0,1-.405-.1h-.123a.777.777,0,0,0,.369-.05l.332-.156H169.9a.751.751,0,0,1-.226-.05,1.262,1.262,0,0,0-.239-.056h-.1a5.238,5.238,0,0,0,.568-.046l.664-.073-.644-.09a1,1,0,0,1-.183-.046,1.048,1.048,0,0,1-.179-.05,1.06,1.06,0,0,0,.379-.047l.332-.113-.332-.043-.139-.023.149-.033.252-.07-.246-.086c-.09-.03-.179-.056-.279-.08a1.848,1.848,0,0,0,.249-.043l.561-.146-.578-.017a.707.707,0,0,1-.2-.046h-.033a1.662,1.662,0,0,0,.229-.04l.316-.073-.312-.083-.236-.06a1.927,1.927,0,0,0,.216-.04l.3-.086-.359-.086-.1-.027a.707.707,0,0,0,.149-.043l.282-.126-.309-.03a.747.747,0,0,1-.12-.02.665.665,0,0,0,.123-.04l.312-.133-.332-.023a.843.843,0,0,1-.206-.05l-.086-.027h.326v-.076c0-.123-.126-.133-.169-.136s-.03,0-.023,0l-.1-.043.179-.017h.073v-.073c0-.123-.123-.136-.163-.139h0a.2.2,0,0,0-.093-.033h0a.455.455,0,0,0,.219-.056l.2-.126-.239-.027a.405.405,0,0,1-.186-.083h.146l.223-.033-.189-.12a2.036,2.036,0,0,0-.269-.136h0a.9.9,0,0,0,.163,0l.193-.037-.159-.113-.093-.06.1.04-.02-.139a.445.445,0,0,0-.037-.123h0v-.1a1.807,1.807,0,0,0-.113-.585l-.02-.056h-.345v.093a.126.126,0,0,0,.027.086.383.383,0,0,0,.03.11.562.562,0,0,1-.13-.073.664.664,0,0,0-.236-.116h-.027a.113.113,0,0,0-.076.04l-.023.046v.06c0,.023.023.05.037.076a.459.459,0,0,0,.056.106l.03.037a1.186,1.186,0,0,0,.2.209l.113.086a2.176,2.176,0,0,0-1.016-.143l-.266.027.236.126a3.4,3.4,0,0,0,.478.2,5.838,5.838,0,0,0-.827-.033h-.09v.09a.123.123,0,0,0,.047.1.1.1,0,0,0,.063.02h0a3.444,3.444,0,0,0,.664.173h-.163c-.116,0-.242.02-.369.023a2.112,2.112,0,0,0-.638.09l-.246.09.252.066a6.892,6.892,0,0,0,1.093.146,5.427,5.427,0,0,0-1.265.189l-.286.083.286.073a1.844,1.844,0,0,0,.242.046,3.209,3.209,0,0,0-.5.12l-.379.13.4.03a2.267,2.267,0,0,1,.365.02h-.093c-.183.027-.369.06-.5.09H166.6a1.226,1.226,0,0,0-.289.086l-.262.13.3.023h.11q-.136.03-.259.07l-.3.1.312.06a1.892,1.892,0,0,0,.279.027l-.1.03L166,113.2l.415.02h.289c-.2.037-.385.083-.568.133l-.468.136.488.027h.3v.027h-.04a.372.372,0,0,0-.209.073l-.153.143h.412l-.382.066.1.027a.252.252,0,0,0-.106.056l-.136.123.183.02h.017a6.081,6.081,0,0,0-.664.159l-.495.149h.518a6.6,6.6,0,0,0,.694-.03h.083l-.153.027a2.412,2.412,0,0,0-.5.126l-.442.183.478-.027h.076l-.425.1.312.04v.056a.116.116,0,0,0,.033.1.186.186,0,0,0,.166.03h.05a.412.412,0,0,0,.143.037h.017l-.05.04a.146.146,0,0,0-.12.1h0l-.412.047.432.11a1.825,1.825,0,0,0,.2.04h-.066l-.1.02a.953.953,0,0,0-.312.1l-.279.169h.571l.093.07h-.246a2.54,2.54,0,0,0-.276,0c-.176-.02-.189.047-.2.07a.093.093,0,0,0,.073.11h.02a3.258,3.258,0,0,1,.445.053l-.153.023-.571.116.581.043.236.027-.11.076-.352.04.4.113a1.694,1.694,0,0,0,.226.043l-.153.033a6.584,6.584,0,0,0-.874.219l-.488.173h.518a5.646,5.646,0,0,0,.664-.07,5.1,5.1,0,0,1,.727-.066h-.2l-.282.023v.07h-.023a2.086,2.086,0,0,0-.389.1l-.365.153h.372a4.814,4.814,0,0,0,.588-.037h.11v.056c-.149.023-.309.053-.458.086-.2.05-.382.1-.548.153l-.628.213.664-.053c.369-.027.711-.06,1.036-.1l-.149.07h-.04a3.611,3.611,0,0,1-.621.113v.04a.126.126,0,0,0-.113.073l-.05.116h.688a4.89,4.89,0,0,0-.691.179l-.531.193.565-.037a3.6,3.6,0,0,0,.372-.033,5.274,5.274,0,0,1,.591-.037h-.03a1.579,1.579,0,0,0-.332.056,1.863,1.863,0,0,0-.206.06,1.306,1.306,0,0,1-.163.047l-.113.023a.618.618,0,0,0-.306.1l-.233.179.292-.033.332-.037.6-.066-.12.03-.183.04a2.6,2.6,0,0,0-.495.136l-.478.193.575-.04c.249-.017.5-.037.751-.063h0a.664.664,0,0,1-.286.093,1.043,1.043,0,0,0-.309.093l-.3.179.332-.027a.957.957,0,0,0,.239-.02h.11l.1.1h-.047l-.123.023a.814.814,0,0,0-.312.1l-.282.176.332-.027h.173l.226-.02h0l-.11.017-.13.027h-.023c-.1.027-.179.05-.206.11a.1.1,0,0,0,0,.093l.03.053.06-.017a1.933,1.933,0,0,1,.332-.033h.2l-.13.033-.146.027a1.182,1.182,0,0,0-.369.11l-.379.229.425-.05c.163-.02.332-.033.495-.047a9.115,9.115,0,0,0-.893.232l-.053.017a9.775,9.775,0,0,0-3.129-3.066l-.05-.027a9.054,9.054,0,0,0-1.5-.7.292.292,0,0,0-.193-.113.366.366,0,0,0-.173-.139c-.063-.03-.1-.05-.11-.09v-.07h-.1a.332.332,0,0,0-.053,0,.229.229,0,0,0-.046-.05v-.056H159.8a.143.143,0,0,1-.143-.086l-.027-.047h-.12a.229.229,0,0,1-.08-.08l-.027-.046h-.056a.088.088,0,0,1-.08-.03.441.441,0,0,0-.073-.05l-.043-.017a.082.082,0,0,1-.076-.037l-.02-.06H158.9l-.073-.053a.5.5,0,0,1-.09-.073l-.027-.027h-.04a.2.2,0,0,1-.173-.07l-.05-.04h-.156a.305.305,0,0,0-.1-.06h-.037l-.02-.05h-.053a.289.289,0,0,0-.106.02h-.04l-.023-.02a.3.3,0,0,0-.2-.09h-.027l-.09.03a.163.163,0,0,0-.037-.047.266.266,0,0,0-.282-.033.206.206,0,0,0-.1.226v.063h.106a.541.541,0,0,0,.116-.017h.017v.073h.073a.485.485,0,0,0,.169,0,.063.063,0,0,0,0,.027v.063h.063a1.161,1.161,0,0,1,.189,0h0c.027.073.106.076.193.083h.023l-.03.083h.223a.083.083,0,0,0,.053.02.136.136,0,0,0,0,.04v.046h.05a.375.375,0,0,0,.106,0h0v.073h.176a.133.133,0,0,0,.133.106h.1a.1.1,0,0,0,0,.05h-.023a.156.156,0,0,0-.143.106h-.027v.03c-.027.06-.05.123-.073.183a1.561,1.561,0,0,1-.106.249h0l-.063-.02a.737.737,0,0,0,.213-.538v-.07h-.073a.3.3,0,0,0-.279.206l-.027.05a1.213,1.213,0,0,0-.083.176c0,.03-.027.06-.037.09a6.349,6.349,0,0,0-.7-.186h0l-.183-.04.02-.033h-.11l-.292-.04.116-.04h-.226l.209-.05-.767.123a1.624,1.624,0,0,1-.269-.03c-.09,0-.179-.03-.282-.037a4.427,4.427,0,0,0-.834.043l-.332.05.332.11a.906.906,0,0,0,.306.027l-.037.033-.146.156.213-.017a3.33,3.33,0,0,0,.5-.063l-.226.13-.176.1h-.02v.02a.365.365,0,0,1-.07.076.512.512,0,0,0-.1.116l-.136.242.246-.13.286-.149.159-.086a3.239,3.239,0,0,0-.525.5L155,117.3l.269-.083a.681.681,0,0,0,.213-.133.269.269,0,0,1,.066-.047.183.183,0,0,0,.063-.027h0a.229.229,0,0,0,.056-.056l.03-.03.136-.086a1.87,1.87,0,0,0,.269-.189h0l-.083.063a2.881,2.881,0,0,0-.428.4l-.113.123a.408.408,0,0,0-.1.126l-.043.06a.19.19,0,0,1-.037.037c-.043.043-.126.123-.08.223l.053.106.083-.086a2.689,2.689,0,0,1,.289-.256l.153-.126h0c.2-.179.422-.359.664-.551l-.027.023a3.052,3.052,0,0,0-.375.372c-.083.1-.169.2-.256.292l-.05.056-.13.193-.037.05a.262.262,0,0,0-.083.206l.027.146.093-.116.213-.2c-.037.046-.07.1-.1.146l-.04.06a.494.494,0,0,1-.04.047.3.3,0,0,0-.1.223l.02.183.123-.136c.076-.086.156-.166.239-.246-.046.053-.093.106-.143.153v.023a2.132,2.132,0,0,1-.159.239c-.027.033-.05.066-.07.1l-.033.043c-.056.073-.116.153-.086.246l.053.146h0a.113.113,0,0,0,.027.123l.073.073.056-.086a1.66,1.66,0,0,1,.266-.289.143.143,0,0,0,0,.159l.053.09.073-.076.163-.169q-.033.053-.07.12a.332.332,0,0,0-.11.149.186.186,0,0,0-.073.093h0a.093.093,0,0,0-.043.1c0,.027.023.06.083.07h.047l.246-.259.149-.159a.529.529,0,0,0-.043.073c-.017.027-.04.053-.063.083s-.136.163-.12.252l.03.166.113-.126.282-.309-.06.093c-.027.04-.05.083-.073.116a.583.583,0,0,1-.05.06.252.252,0,0,0-.093.216v.083h0a10.717,10.717,0,0,0-2.511-.412l.133-.126-.213.123h-.05a.1.1,0,0,0-.1-.027.917.917,0,0,0-.282.027.086.086,0,0,0-.05.053h0l-.023-.05H153.2a.435.435,0,0,0-.458.432.236.236,0,0,0-.043-.136.3.3,0,0,0-.349-.116l-.07.03.027.073a.8.8,0,0,0,.05.11,1.05,1.05,0,0,0-.751.1l-.156.113.186.033a1.826,1.826,0,0,0,.332.027,1.418,1.418,0,0,0,.5-.073l.066-.027a.283.283,0,0,0,.08.03h.043l.033-.037a.2.2,0,0,0,.06-.126v.189l.116-.043a.438.438,0,0,0,.149-.09.159.159,0,0,0,.043.093l.053.053.083-.07.027-.02-.07.139.186-.063a.664.664,0,0,0,.149-.066l-.04.126.143-.033a.8.8,0,0,0,.143-.06.139.139,0,0,0,.033.076l.046.053.06-.04.123-.073a.136.136,0,0,0,.02.09l.05.086.076-.066a.09.09,0,0,1,.027-.023.123.123,0,0,0,.027.056l.046.056.06-.04.066-.043h0a.11.11,0,0,0,.027.073l.05.066.083-.063.05-.04-.073.149.166-.04a.382.382,0,0,0,.153-.07.156.156,0,0,0,0,.093l.043.086.123-.09.066-.05a.166.166,0,0,0,0,.113l.037.09.083-.053.06-.04a.156.156,0,0,0,.017.073l.066.123.076-.116a.425.425,0,0,1,.143-.1h0c-.02.027-.037.053-.056.076l-.179.239.276-.113a1.053,1.053,0,0,0,.232-.139l.1-.063-.03.033a.223.223,0,0,0-.083.229l.05.13.09-.106a.219.219,0,0,1,.153-.1.153.153,0,0,0-.053.113.113.113,0,0,0,.047.086l.06.047.05-.056a.87.87,0,0,1,.193-.139l.1-.06-.037.053h0a.239.239,0,0,0-.1.159.123.123,0,0,0,.04.083l.053.046.053-.043c.08-.063.169-.13.279-.2h0a.692.692,0,0,1-.05.066.213.213,0,0,0-.083.229l.043.113.086-.08a1.518,1.518,0,0,1,.362-.246l-.027.043a.055.055,0,0,1-.03.043h-.063v.063l-.027.033a.15.15,0,0,0-.05.11.106.106,0,0,0,.043.073l.06.043.046-.053a.614.614,0,0,1,.146-.093.708.708,0,0,0,.186-.126l.046-.017-.027.037a.7.7,0,0,0-.066.1l-.02.017a.223.223,0,0,0-.093.159.11.11,0,0,0,.04.083l.056.053.056-.06a1.079,1.079,0,0,1,.332-.236.846.846,0,0,1-.09.133,1,1,0,0,0-.1.136l-.13.229.236-.113a1.508,1.508,0,0,0,.262-.176l.08-.06a.332.332,0,0,0,.083-.023h-.02v.02a1.922,1.922,0,0,1-.143.193l-.116.146.073.027-.07.106a1.386,1.386,0,0,1-.086.126l-.033.043-.08.113a.136.136,0,0,0-.04.1.1.1,0,0,0,.04.073l.06.05.053-.056c.09-.1.179-.206.266-.312s.216-.256.332-.379a.282.282,0,0,0-.043.083l-.02.02a.156.156,0,0,0-.07.13.106.106,0,0,0,.033.07.11.11,0,0,0,.027.11l.06.063.06-.063.1-.116c.043-.053.083-.1.123-.146l-.053.07c-.03.037-.06.073-.086.113l-.073.123h.106a.738.738,0,0,0-.07.123.206.206,0,0,0-.09.156v.07l.1.027.1-.11.2-.226a.083.083,0,0,0,0,.04.12.12,0,0,0,.037.073l.027.023-.083.126-.123.176.209-.05a.256.256,0,0,0,.143-.11h.08a.74.74,0,0,0-.07.123.223.223,0,0,0-.093.159l.017.066.1.027.037-.037c.09-.106.183-.209.276-.312h0l-.053.1h.06l-.02.03a1.329,1.329,0,0,0-.153.232.266.266,0,0,0-.11.166.1.1,0,0,0,.05.09l.06.037.047-.056c.1-.13.229-.259.352-.385.07-.073.139-.143.2-.213a.12.12,0,0,0,.03-.066l.03-.02-.1.156-.043.06a2.659,2.659,0,0,0-.216.332h0a.133.133,0,0,0-.076.12.11.11,0,0,0,.083.086l.053.02.047-.056a5.694,5.694,0,0,1,.4-.448.1.1,0,0,0,0,.033h0a.156.156,0,0,0-.07.13.086.086,0,0,0,.017.05.143.143,0,0,0,0,.163l.063.1,0,.023a2.766,2.766,0,0,1,.209-.239l-.027.033a1.208,1.208,0,0,0-.08.116l-.093.159.159-.033a.13.13,0,0,0-.046.126l.03.056.1.017.027-.046.023-.027.037.02a.176.176,0,0,0-.05.189l.05.11.083-.086c.04-.04.076-.08.113-.123v.033l.027.017h0c-.053.06-.133.146-.07.226l.04.053a10.781,10.781,0,0,0-5.161-.96,11.647,11.647,0,0,0-1.255.179l-.216.037a.223.223,0,0,0-.08.037h-.2l-.1.037a.331.331,0,0,1-.07.03h-.033a5.573,5.573,0,0,0-.94.332h-.063a.12.12,0,0,0-.076.04h-.04a.624.624,0,0,0-.236.149.1.1,0,0,0-.037-.023h-.033l-.03.017a1.432,1.432,0,0,0-.266.193h0l-.05-.037-.047.037-.086.06-.1.066a.133.133,0,0,0-.08,0h-.053c-.1.063-.2.123-.309.179s-.216.116-.316.183a1,1,0,0,1-.1.06.887.887,0,0,0-.2.133.741.741,0,0,0-.223.139.149.149,0,0,0-.076.037.1.1,0,0,0-.03.11.1.1,0,0,0,.1.06h.063c.073-.047.149-.09.226-.133v.07l.139-.07a1.849,1.849,0,0,0,.389-.262,1.643,1.643,0,0,0-.106.183c-.027.037-.153.216-.09.332l.066.113.073-.11c.08-.12.166-.236.256-.352l-.12.226v.047a.236.236,0,0,1-.027.1.229.229,0,0,0,0,.223l.09.126.053-.146a1.815,1.815,0,0,1,.159-.282l.073-.113a.732.732,0,0,0,.04-.09.249.249,0,0,1,.023-.06c.017-.03.037-.056.053-.083a2.757,2.757,0,0,1-.173.475v.05a.4.4,0,0,1-.027.159.332.332,0,0,0,0,.252l.08.163.07-.166c.159-.369.332-.731.5-1.083a3.412,3.412,0,0,0-.1.372l-.04.163a.349.349,0,0,1-.027.1,1.176,1.176,0,0,0-.06.518l.053.3.189-.521a1.428,1.428,0,0,0-.03.412l.037.4a.12.12,0,0,0-.1-.043.09.09,0,0,0-.08.053l-.023.04.023.04a9.585,9.585,0,0,1,.724,1.7l.1.276.063-.286a1,1,0,0,0,0-.442v-.06a1.7,1.7,0,0,0-.086-.332l-.03-.076a.666.666,0,0,0-.037-.1,1.842,1.842,0,0,0-.156-.289l.073-.232a.373.373,0,0,1,.027-.086v-.02a10.2,10.2,0,0,1,.455,1.621l.083.412.076-.412a2.249,2.249,0,0,0-.266-1.511l.073.043c.056.156.113.332.166.472l.04.12c.06.232.113.465.149.641v.056a.239.239,0,0,0,.1.213l.1.066.02-.123a2.05,2.05,0,0,0-.1-.754h0v-.033a.26.26,0,0,0,0-.047c.056.2.126.468.169.664v.02a.166.166,0,0,0,.03.146.1.1,0,0,0,.1.037h.066v-.063a1.793,1.793,0,0,0,.017-.438.294.294,0,0,0,0,.05v.113a.691.691,0,0,0,.086.332l.12.169.03-.2a2.416,2.416,0,0,0,0-.535c.023.106.046.216.066.332v.037a.239.239,0,0,0,.1.209l.106.07.017-.126a2.381,2.381,0,0,0-.017-.727c.033.106.063.213.093.332v.02a1.747,1.747,0,0,0,.09.432l.139.332.02-.352a2.656,2.656,0,0,1,.04-.4v-.043l-.03-.149q-.027-.149-.06-.3c.073.279.143.565.206.854l.083.375.076-.375a1.837,1.837,0,0,0,0-.688c.053.183.1.372.146.558l.113.472.083-.332a1.64,1.64,0,0,0,.04-.306,1.024,1.024,0,0,0,.086.332l.133.252.02-.286v-.332a1.717,1.717,0,0,1,.017-.352c.037.136.066.282.1.425l.06.272.1.4.066-.405a2.2,2.2,0,0,0-.033-.814l.05.05.017-.047a.1.1,0,0,0,.023.073.941.941,0,0,1,.063.209,1.925,1.925,0,0,1,.04.2,1.921,1.921,0,0,0,.09.349l.143.332.023-.485a1.6,1.6,0,0,0-.043-.638v-.037l.02.066c.033.113.063.226.1.332h0a1.694,1.694,0,0,0,.09.425l.126.3.03-.332a2.05,2.05,0,0,0,.08-.727.618.618,0,0,0,.033-.083.5.5,0,0,1,.033.209v.11h.073a.149.149,0,0,0,.03.066c0,.033,0,.066,0,.1a2.746,2.746,0,0,0,.09.418l.11.332.05-.332a1.932,1.932,0,0,0,.017-.2v-.033l.066-.183a.472.472,0,0,1,.017-.053,1.02,1.02,0,0,0,.033.169c.01.056.043.209.073.309l.083.3.073-.3a1.365,1.365,0,0,0,.03-.488l.033-.106.02-.06a.745.745,0,0,0,.04.1.932.932,0,0,1,.043.11,1.4,1.4,0,0,1,.027.176,1,1,0,0,0,.086.332l.123.232.03-.262a2.454,2.454,0,0,0,0-.7V126.7h0c.027.073.056.149.08.226a1.773,1.773,0,0,1,.043.216,1.269,1.269,0,0,0,.09.355l.176.4-.02-.435a3.427,3.427,0,0,1,.02-.458v-.05l-.06-.256v-.043h0a8.148,8.148,0,0,1,.226.854l.08.379.083-.379a1.783,1.783,0,0,0,.02-.239.966.966,0,0,1,.02-.229v-.04a.633.633,0,0,0-.043-.153V126.8h.03l.027.076a.34.34,0,0,0,.043.123v.04c-.02.083-.043.176.02.229l.037.033h0a.81.81,0,0,0,.056.223l.1.209.053-.226a.936.936,0,0,0,.023-.306l.063.113.033-.153v.03a.133.133,0,0,1,0,.07.139.139,0,0,0,.046.169h0c0,.056.027.173.13.176h.086v-.086a.585.585,0,0,1,0-.076.246.246,0,0,0,0,.046l.163.389V127.6l.07.076.033-.156a.329.329,0,0,1,.023-.146l.093.163.02-.063a.242.242,0,0,0,.076.136l.146.123a.585.585,0,0,0-.023.133h-.053l.04.05c-.047.053-.09.11-.136.166l-.03.023h0c-.053.073-.11.146-.163.223h-.133l.083.063-.1.156-.073.113h.136c.017,0,.027,0,.046.027a.259.259,0,0,0-.1-.02h-.047l-.023.037c-.03.046-.043.116.066.186l.03.023.02.023.03.03a.793.793,0,0,0-.206-.1l-.11-.03v.116a.256.256,0,0,0,.073.159v.02h0a.14.14,0,0,0-.13-.08h-.046l-.023.037a.312.312,0,0,0-.043.133h-.033l-.027.04a1.973,1.973,0,0,1-.372.372l-.066.053-.043.033a6.823,6.823,0,0,0-.608.521c-.123.123-.239.252-.352.375s-.246.269-.379.4l-.017.023c-.033.07-.076.149-.116.229s-.123.229-.166.332a.372.372,0,0,0,0,.073.093.093,0,0,1,0,.033h0a.169.169,0,0,0-.05.076,1.558,1.558,0,0,0-.023.711.183.183,0,0,0,.04.076h0l-.106.136.163-.017a.285.285,0,0,0,.05.149.272.272,0,0,0,.166.12,11.292,11.292,0,0,0-1.036,1.305l-.02.027a.545.545,0,0,0-.1.153,8.474,8.474,0,0,0-.8,1.265v.027c-.176.309-.332.6-.462.893v.043c-.076.166-.149.332-.216.5-.023.076-.05.149-.08.226a2.1,2.1,0,0,0-.1.289l-.1-.116.043.282a.608.608,0,0,0,.223.332l.06.056.073.073a1.8,1.8,0,0,0,.282.259.516.516,0,0,1,.076.063l.046.04.047.04a4.081,4.081,0,0,0,.482.355l.047.033a.369.369,0,0,0,.189.09.13.13,0,0,0,.06,0l.286-.156h-.332a4.649,4.649,0,0,0-.638-.681,1.265,1.265,0,0,0-.173-.156,1.087,1.087,0,0,1-.166-.159v-.02h-.02a.365.365,0,0,1-.159-.106h-.02a.352.352,0,0,0-.083-.03l-.07-.027h0a.242.242,0,0,0,.037-.086c.2.176.418.332.641.5h0c.113.083.232.169.352.246l.037.027a2.221,2.221,0,0,0,.369.213c.063.066.213.149.3.113l.116-.05-.093-.086-.209-.2-.04-.04a.962.962,0,0,1,.143.086l.07.043.06.037a.4.4,0,0,0,.252.1l.169-.02-.123-.12c-.106-.106-.213-.206-.316-.306a7.8,7.8,0,0,0,.688.478.14.14,0,0,0,.1.043.116.116,0,0,0,.076-.04l.033-.04.06-.03a.09.09,0,0,0,.083.033.1.1,0,0,0,.076-.08v-.046l-.037-.037c-.1-.09-.2-.186-.292-.279a.6.6,0,0,0-.066-.063c.093.073.189.146.286.116l.13-.043-.1-.093-.183-.179h.023l.046.027.05.033h.017a.08.08,0,0,0,.05.027.226.226,0,0,1,.037.04.312.312,0,0,0,.076.07.086.086,0,0,0,.056,0,.13.13,0,0,0,.13.056.1.1,0,0,0,.066-.086v-.04l-.03-.03-.126-.126.053-.027a.083.083,0,0,0,.083.03c.027,0,.06-.02.076-.076v-.047l-.169-.166-.186-.179c.11.08.219.153.332.223a.129.129,0,0,1,.033.027.259.259,0,0,0,.189.073h.166l.2.143a.206.206,0,0,0,.07.053l.023.017h0c.033.03.08.076.139.056l.056-.03v-.093l-.186-.179-.5-.485.05.037a1.282,1.282,0,0,1,.159.123l.166.116.143.106c.063.063.12.073.173.033l.08-.056-.07-.066c-.316-.306-.638-.621-.97-.927l-.043-.04c.332.276.7.551,1.056.81l.272.2-.037-.076a.106.106,0,0,0,.086-.02.129.129,0,0,0,.05-.09h.043v-.06a.129.129,0,0,1,.04-.083H159l.023-.113c.047-.2.1-.412.133-.628v-.266h.03a.106.106,0,0,0,.08-.047l.047-.056-.056-.053-.056-.05a.332.332,0,0,1-.1-.106v-.063c.136.116.276.229.418.332.043.037.09.07.136.1l.123.093a.266.266,0,0,1,.043.043c.023.023.043.047.066.066s.166.126.239.056l.053-.056-.053-.056c-.219-.249-.465-.478-.7-.7l-.3-.286a.04.04,0,0,1,.017-.017l.12.1a1.482,1.482,0,0,1,.189.156l.063.043c.07.043.156.1.2.136a.123.123,0,0,1,.03.03.189.189,0,0,0,.123.08.1.1,0,0,0,.08-.027l.07-.06-.239-.229c-.156-.146-.309-.292-.448-.432l-.017-.017a1.26,1.26,0,0,1-.126-.139h0c.242.223.508.422.764.618l.04.033a.522.522,0,0,0,.116.083.259.259,0,0,0,.166.113.093.093,0,0,0,.09-.05l.037-.056-.05-.046c-.149-.133-.292-.276-.428-.415s-.282-.286-.432-.418l-.08-.073-.073-.066.046.037.046.033c.086.063.169.133.252.2a3.5,3.5,0,0,0,.332.252h0a.2.2,0,0,1,.046.033.289.289,0,0,0,.113.073h0a.262.262,0,0,0,.159.1.123.123,0,0,0,.083-.04l.056-.063-.063-.056a2.937,2.937,0,0,1-.352-.352c.06.047.12.093.179.133l.076.066.076.063.02.02h0a.1.1,0,0,0,.063.043.123.123,0,0,0,.106.06.093.093,0,0,0,.086-.086v-.033l-.02-.027a1.438,1.438,0,0,0-.209-.216l-.1-.1a1.1,1.1,0,0,1-.083-.09c-.033-.037-.066-.076-.106-.113h.046l.056.06a.512.512,0,0,0,.086.083.308.308,0,0,0,.063.037h0a.1.1,0,0,0,.033.05.1.1,0,0,0,.066.02l.043.04a.362.362,0,0,0,.123.093.269.269,0,0,0,.1.09h0a.12.12,0,0,0,.106.056.1.1,0,0,0,.08-.073v-.047l-.033-.037c-.179-.189-.375-.382-.581-.585.053.043.11.083.163.12a2.133,2.133,0,0,0,.262.2l.033.03a.113.113,0,0,0,.193,0l.046-.056-.053-.05-.223-.213c-.093-.086-.186-.173-.259-.249a.126.126,0,0,0-.033-.076.189.189,0,0,0-.08-.05l-.03-.017-.13-.13c.07.046.136.1.206.156l.1.08a1.107,1.107,0,0,1,.159.12h.027l.037.03c.037.033.133.126.223.04l.066-.066-.073-.056a3.8,3.8,0,0,1-.289-.279,2.883,2.883,0,0,0-.389-.362,1.123,1.123,0,0,0-.229-.223l-.12-.1h-.02l-.126-.123.189.156c.12.1.242.2.362.3a6.249,6.249,0,0,0,.585.452l.066.05h0a.14.14,0,0,0,.139.056l.056-.03v-.09l-.113-.106-.11-.1.07.04a.156.156,0,0,0,.076.06v.033h.056a.133.133,0,0,0,.126.047.093.093,0,0,0,.07-.066l.017-.05-.04-.037-.046-.046.06-.023a.116.116,0,0,0,.1.056.1.1,0,0,0,.08-.066l.023-.05-.04-.04h.07c.113.086.229.173.332.252l.02.02a.169.169,0,0,0,.189.053l.116-.05-.093-.086-.149-.143.046.033.2.153-.076-.242a.3.3,0,0,0-.04-.08l.056.037a.222.222,0,0,0,.063.047v.066h.063a.116.116,0,0,0,.113.04.086.086,0,0,0,.066-.066l.017-.05-.073-.07a3.817,3.817,0,0,1-.4-.405h0l.113.1a2.174,2.174,0,0,0,.309.226.256.256,0,0,0,.156.116.1.1,0,0,0,.1-.046l.043-.063-.056-.046a2.959,2.959,0,0,1-.292-.286l-.02-.02.136.1.02.02c.033.033.07.076.13.063h.053l.04-.093-.04-.037-.375-.379.06.033a.1.1,0,0,0,.1.027.106.106,0,0,0,.07-.076h0l.136.106c.116.093.236.189.349.289l.02.017h.023l.023.02a.206.206,0,0,0,.093.06c.033.046.076.11.146.11a.1.1,0,0,0,.093-.046l.046-.06-.053-.05c-.2-.189-.4-.385-.6-.585h.056a.143.143,0,0,1,.033.03.156.156,0,0,0,.176.066l.11-.043-.08-.086a3.483,3.483,0,0,0-.332-.332l.1.083a1.065,1.065,0,0,1,.1.07c.037.027.073.056.116.083a.292.292,0,0,1,.056.047c.056.053.143.133.239.08l.1-.053-.08-.076-.133-.126.116.07a.166.166,0,0,0,.083.073h0v.04h.05l.03.023a.159.159,0,0,0,.126.053h.053l.043-.086-.04-.043c-.04-.047-.083-.09-.126-.136l.1.083h.02a.973.973,0,0,1,.09.07c.073.066.159.143.252.106l.123-.047-.1-.09-.306-.3.252.193.023.023a.256.256,0,0,0,.1.066c.03.04.073.093.136.09a.106.106,0,0,0,.093-.06l.03-.056-.046-.043-.352-.332.1.08h0a1.4,1.4,0,0,1,.206.14l.056.043.063.043a.058.058,0,0,1,.043.033v.06h.066l.03.027a.146.146,0,0,0,.113.05.12.12,0,0,0,.073-.043l.04-.06-.053-.05a4.692,4.692,0,0,1-.332-.352l-.046-.05a.169.169,0,0,0,.209.063l.083-.046.282.213.223.163-.1-.259a.618.618,0,0,0-.149-.2l-.13-.133-.063-.063.156.11.2.136-.073-.229a.5.5,0,0,0-.133-.189h0l-.236-.232c.07.053.146.1.213.139l.056.037a.163.163,0,0,0,.126.063.123.123,0,0,0,.086-.053l.037-.056-.046-.046c-.076-.076-.153-.156-.226-.236l-.05-.053.043.027.106.063.053.046a.256.256,0,0,0,.223.1l.156-.033-.116-.106-.08-.073-.066-.06h.027l.04.033a.179.179,0,0,0,.186.06l.106-.047-.08-.086-.09-.093.037.023.033.023a.113.113,0,0,0,.056.02.156.156,0,0,0,.053.066.077.077,0,0,0,.056,0,.13.13,0,0,0,.13.06.1.1,0,0,0,.07-.086v-.073l-.023-.027q-.1-.11-.209-.219a.126.126,0,0,0,.113-.03l.076-.066-.076-.06h-.017l.139.083.189.11-.073-.206a.223.223,0,0,0-.02-.05.189.189,0,0,0,.2.037l.08-.05-.063-.073-.066-.073.206.116.176.086-.063-.186a.482.482,0,0,0-.13-.189l-.017-.017c-.13-.133-.266-.249-.4-.362h.027a.379.379,0,0,0,.209.06h.166l-.113-.126-.113-.116c-.063-.066-.126-.133-.186-.2v-.017h-.02a.332.332,0,0,1-.086-.056l-.08-.06-.027-.027.624-.076a.145.145,0,0,0,.027.037h0a.219.219,0,0,0,.11.146l.063.023.037-.056a.08.08,0,0,0,0-.1.872.872,0,0,0-.033-.09c.126,0,.246-.02.355-.027a.58.58,0,0,0,.043.066l.033.06c0,.734-.046,1.428-.083,2.192,0,.216-.033.465-.053.711,0,.163-.027.316-.033.452l-.033.478c-.066,1-.133,2.049-.2,3.022-.027.359-.063.727-.1,1.079-.027.3-.053.588-.076.877-.126,1.558-.252,2.989-.389,4.364-.1.97-.2,1.94-.3,2.876l-.083.777c-.037.332-.07.664-.106,1-.093.92-.183,1.787-.3,2.657-.173,1.255-.332,2.385-.538,3.5-.193,1.046-.435,2.073-.664,3.069l-.023.256a51.094,51.094,0,0,1-1.887,6.2c-.415,1.093-.774,1.993-1.179,2.876a10.5,10.5,0,0,1-.555.97,5.322,5.322,0,0,0-.83,1.744.62.62,0,0,0,0,.136.583.583,0,0,1,0,.076v.027a1.265,1.265,0,0,0,.555.787h.023l.043.03a1.561,1.561,0,0,0,.332.136,1.2,1.2,0,0,0,.359.05h.136a1.329,1.329,0,0,0,.412-.183h.017v-.02c2.989-5.424,4.733-12.1,5.513-21.014.027-.312.05-.641.073-.97.02-.256.037-.508.056-.751.143-1.75.262-3.448.332-4.9l.06-1.069c.05-.79.1-1.611.133-2.371,0-.3.023-.588.033-.867s.017-.541.03-.81c0-.166.017-.332.023-.5l.02-.485.02-.332c0-.113.02-.229.023-.332v-1.053a2.287,2.287,0,0,1,.02-.369c.156,1.853.286,3.826.309,5.922l-.126.053.126.033v.216l-.106.053.106.03v.193l-.113.053.113.033h0a.093.093,0,0,0,.06.076h.053l.033-.03a.07.07,0,0,0,0-.02,8.585,8.585,0,0,1,1.179.488c.156.076.312.149.472.219l.133.06-.02-.146a.2.2,0,0,0-.11-.139h-.023a.31.31,0,0,1-.046-.046h.02l.053.033a.292.292,0,0,0,.163.07.21.21,0,0,0,.07-.017l.113-.053-.093-.083-.106-.086a.1.1,0,0,1,.033.017.206.206,0,0,0,.106.073h.053l.02.017a.173.173,0,0,0,.133.05.12.12,0,0,0,.08-.06l.04-.073h-.027l.163-.023-.116-.116c-.056-.056-.113-.113-.176-.169h0a.1.1,0,0,0,.073-.056l.03-.056-.043-.04a.163.163,0,0,0,.113,0l.143-.037-.106-.1q-.076-.076-.149-.139a.182.182,0,0,0,.073,0l.133-.043-.1-.1-.076-.073a.223.223,0,0,0,.12.02h.093l.03.023a.289.289,0,0,0,.223.1l.173-.033-.136-.113c-.073-.06-.143-.133-.213-.2a.09.09,0,0,0,.066.02.1.1,0,0,0,.076-.053l.037-.056-.047-.047a4.332,4.332,0,0,0-.365-.332l.027.017.056.05a.272.272,0,0,0,.213.093l.163-.02-.113-.116c-.073-.076-.153-.149-.229-.219a.133.133,0,0,0,.106-.023l.116-.073-.123-.066a.664.664,0,0,1-.143-.113l.056.027h.027l.02.02a.166.166,0,0,0,.183.05l.126-.05-.189-.159c-.07-.063-.139-.12-.2-.183a.229.229,0,0,0,.143.033l.163-.03-.123-.113c-.143-.133-.282-.256-.415-.369l.1.07h.023l.033.023a.169.169,0,0,0,.123.053.106.106,0,0,0,.073-.043l.043-.06.136.116h.023l.04.03a.183.183,0,0,0,.133.07.1.1,0,0,0,.073-.037l.05-.06-.09-.083c-.126-.126-.259-.252-.4-.379a.136.136,0,0,0,.093.023.12.12,0,0,0,.073-.053l.03-.06-.05-.04-.123-.113h0a.173.173,0,0,0,.086.066h0a.1.1,0,0,0,.1.043c.027,0,.06-.023.073-.083v-.05l-.037-.03c-.08-.066-.156-.143-.232-.216l-.06-.06h0a.133.133,0,0,0,.116.046.1.1,0,0,0,.08-.06l.03-.06-.05-.04-.056-.05h.04l.2-.033-.166-.113-.037-.027h.163a.09.09,0,0,0,.073-.083v-.046l-.037-.033c-.06-.05-.12-.106-.176-.159h0a.11.11,0,0,0,.08-.063l.04-.07-.073-.04a1,1,0,0,1-.189-.153l-.05-.05h0a.1.1,0,0,0,.056,0l.166-.033-.126-.11-.176-.149a.163.163,0,0,0,.126,0l.163-.056-.146-.09-.056-.04h.037l.12-.076-.126-.066a.392.392,0,0,1-.063-.037h.027l.173-.043h0l.156-.037-.123-.106-.113-.1.046-.08h0l.133-.046-.1-.093-.076-.073h.02l.163-.037-.13-.106-.136-.113.213-.02-.193-.13a2.087,2.087,0,0,1-.193-.156l-.083-.07h.037l.063.03.017.02a.169.169,0,0,0,.05.046l.053.027.03.017.027.023a.193.193,0,0,0,.2.073h0v-.007l.133-.04-.12-.093.047-.425a2.123,2.123,0,0,1,.047-.219v-.04a.829.829,0,0,1,0,.09.372.372,0,0,0,.023.279l.136.229v-.266a.564.564,0,0,1,.02-.1.462.462,0,0,0,.023-.159,2.458,2.458,0,0,0,.126-.246,1.328,1.328,0,0,1-.086.183v.056a.416.416,0,0,1,0,.139.332.332,0,0,0,.023.256l.136.209.017-.249a.372.372,0,0,1,.017-.1.508.508,0,0,0,.027-.156V133.7a.611.611,0,0,1,0,.13.365.365,0,0,0,.02.269l.159.259v-.3a.475.475,0,0,1,.023-.126.461.461,0,0,0,.023-.159c.03-.05.056-.1.083-.149l-.07.186v.04a1.123,1.123,0,0,1,0,.146.417.417,0,0,0,.017.166l.09.136.056-.153a1.691,1.691,0,0,0,.053-.232h0a.266.266,0,0,1,0,.123.259.259,0,0,0,.023.229l.139.189v-.236a.751.751,0,0,1,.03-.176.9.9,0,0,0,.03-.143,3.985,3.985,0,0,0,.272-.545h0c-.053.136-.113.269-.176.4-.027.06-.056.12-.083.183v.047a.591.591,0,0,1,0,.153.3.3,0,0,0,0,.2l.106.173.043-.2c.027-.11.046-.206.063-.306l.027-.04V134a.452.452,0,0,0,0,.332l.159.286v-.166l.153.239V134.4a.448.448,0,0,1,.02-.116.532.532,0,0,0,.023-.139v-.017h0a.289.289,0,0,1,0,.116.266.266,0,0,0,.027.236l.133.183v-.226a.8.8,0,0,1,.043-.223v.046a.389.389,0,0,0,.027.286l.166.229-.017-.282a.375.375,0,0,1,.02-.136.144.144,0,0,1,0-.033v.02a.439.439,0,0,1,0,.066.248.248,0,0,0,.06.2l.153.09-.03-.173a.136.136,0,0,1,0-.073h0a.2.2,0,0,0,.06.2l.153.09-.027-.173a.1.1,0,0,1,0-.063.156.156,0,0,0,.066.146l.156.093-.033-.179a.073.073,0,0,1,0-.06.362.362,0,0,0,.017-.1,1.845,1.845,0,0,0,.12-.246c.02-.046.04-.093.063-.139h0a1.157,1.157,0,0,1-.063.219.784.784,0,0,0-.063.458l.083.355.076-.359a2.9,2.9,0,0,1,.478-1.046c-.04.063-.073.126-.11.189a2.738,2.738,0,0,1-.153.256v.037a.764.764,0,0,1-.056.2.664.664,0,0,0-.046.442l.116.369.043-.385a1.913,1.913,0,0,1,.309-.784l.023-.043.047-.083a.662.662,0,0,1,.06-.106c.043-.07.093-.136.143-.2l.05-.07.2-.086.1-.047-.043.043a1.1,1.1,0,0,0-.106.12l-.03.037-.033.047-.03.04c-.017.02-.04.037-.06.056a.638.638,0,0,0-.093.1.27.27,0,0,0-.033.06v.033l-.086.126a1.994,1.994,0,0,0-.2.332.11.11,0,0,0,0,.063.1.1,0,0,0-.037.046.086.086,0,0,0,0,.07.149.149,0,0,1-.02.04.272.272,0,0,0,0,.292l.113.156.037-.189a1.415,1.415,0,0,1,.2-.458,2.088,2.088,0,0,0,.1-.183.11.11,0,0,0,.05-.04.2.2,0,0,0,.027-.053.29.29,0,0,1,.023-.04c.033-.05.07-.1.093-.146a.1.1,0,0,0,.05-.037l.046-.073a.289.289,0,0,1,.093-.116c.332-.156.644-.332.953-.478l.1-.05c-.223.133-.448.279-.664.428h0l-.05-.02-.04.037c-.043.047-.093.09-.139.136a3.226,3.226,0,0,0-.382.412.193.193,0,0,0-.033.063.2.2,0,0,0,0,.027l-.07.09a.967.967,0,0,0-.106.153.787.787,0,0,0-.116.435l.03.312.126-.289a3.653,3.653,0,0,1,.79-1.1l.588-.286h0l-.053.037-.09.06a2.168,2.168,0,0,0-.289.226l-.106.11-.023.02c-.02.02-.023.02-.03.02h-.033l-.023.027-.1.106a2.494,2.494,0,0,0-.405.515v.027a.5.5,0,0,0-.08.276l.02.256.133-.223a3.237,3.237,0,0,1,.332-.458.881.881,0,0,0,.07-.086.349.349,0,0,1,.106-.113l.04-.023v-.037h0a.179.179,0,0,0,.07-.083l.017-.017a.149.149,0,0,0,.063-.13h0l.05-.02c.385-.153.754-.332,1.109-.5h-.02a1.556,1.556,0,0,1-.249.143h0c-.073.053-.149.1-.226.153a3.559,3.559,0,0,0-.425.309.126.126,0,0,0-.076.043.133.133,0,0,0-.063.037.1.1,0,0,0-.03.11.106.106,0,0,0,.093.06h.093v-.03c.232-.126.468-.242.7-.352s.4-.2.595-.3l.037-.02.037-.02-.09.066a2.029,2.029,0,0,0-.292.163,2.406,2.406,0,0,1-.236.136h-.033v.033c0,.02-.07.043-.086.053h-.02a.063.063,0,0,0-.04.037h-.027a.083.083,0,0,0-.04.037h-.027a.11.11,0,0,0-.05.06h-.033c-.053.023-.163.073-.133.189l.027.1.09-.047c.193-.1.385-.193.575-.292l.585-.3c-.047.027-.093.06-.136.09l-.113.076-.123.076c-.133.08-.266.159-.405.252a.332.332,0,0,1-.076.05l-.09.053-.08.07a.411.411,0,0,1-.07.06h-.027l-.06.03-.056.043-.03.023-.04.027c-.05.03-.136.086-.126.166a1.7,1.7,0,0,0-.385-.027,1.126,1.126,0,0,0,.272-.219l.13-.139H175.9a.83.83,0,0,0-.781.432l-.09.166.183-.05.143-.046c.03.09.126.113.186.126h.037a.547.547,0,0,0,.106.02l.1.02h.04a.333.333,0,0,1,.113,0,.332.332,0,0,0,.083,0h.286a.309.309,0,0,0,.233-.073l.083-.09-.113-.043a1.8,1.8,0,0,0-.249-.08c.611-.332,1.236-.664,1.843-.98l.153-.08a9.126,9.126,0,0,0-1.226.784l-.409.332.488-.176a7.277,7.277,0,0,0,.89-.418l.405-.209c.043-.02.09-.033.133-.05a1.332,1.332,0,0,0,.146-.056l.2-.1.226-.116A11.874,11.874,0,0,0,177.178,135l-.485.382.568-.239c.385-.166.744-.332,1.1-.521h0l-.1.076a6.464,6.464,0,0,0-.9.588l-.664.495.641-.269c.309-.13.6-.279.877-.425l.4-.2.166-.083a8.78,8.78,0,0,0-1.073.721l-.445.355.528-.216c.276-.113.535-.242.787-.372a8.8,8.8,0,0,0-.847.6l-.462.369.545-.229c.4-.166.771-.365,1.133-.558l.382-.2a11.4,11.4,0,0,0-1.425.943l-.472.369.551-.229a9.414,9.414,0,0,0,.864-.412v.02l-.063.03a.282.282,0,0,0-.1.056h-.017a.364.364,0,0,0-.046.037h-.017l-.043.03a.113.113,0,0,0-.037,0,.817.817,0,0,0-.113.1.482.482,0,0,1-.063.056c-.05.037-.1.066-.146.1a1.262,1.262,0,0,0-.252.2l-.259.279.352-.149c.213-.09.415-.193.614-.3l-.037.033-.306.276.389-.136c.2-.073.389-.153.571-.236-.126.093-.252.189-.372.289l-.352.292.432-.153a4.933,4.933,0,0,0,.468-.193,3.147,3.147,0,0,0-.355.272.183.183,0,0,0-.1.053.106.106,0,0,0-.027.11.1.1,0,0,0,.08.063h.046c.153-.076.306-.146.458-.216l.1-.043c-.113.083-.219.166-.332.249l-.332.289.418-.149c.106-.033.206-.073.306-.113l-.066.05a.617.617,0,0,0-.1.07.408.408,0,0,1-.083.056h-.033v.033a.245.245,0,0,1-.053.037c-.046.03-.093.06-.106.113a.1.1,0,0,0,.017.08l.043.063.066-.037a1.539,1.539,0,0,1,.269-.123h.037l-.166.133-.3.259.375-.116a5.774,5.774,0,0,0,.834-.355,3.047,3.047,0,0,0-.375.3l-.246.226.332-.086a3.852,3.852,0,0,0,.551-.2.432.432,0,0,0-.11.1h0a.223.223,0,0,0-.106.076.2.2,0,0,0-.123.123.1.1,0,0,0,.063.113h.05a7.97,7.97,0,0,0,.837-.312l.332-.136a.1.1,0,0,0,.027.027l.023.017a2.478,2.478,0,0,0-.957.724l-.193.206.272-.073a1.661,1.661,0,0,0,.349-.139,1.828,1.828,0,0,1,.219-.1l.023-.017a1.579,1.579,0,0,1,.189-.13c.056-.037.11-.07.153-.1h0l.023-.017a.213.213,0,0,0,.116-.146v-.037a.079.079,0,0,1,0-.027h0v-.043l-.066-.2c-.05-.146-.1-.292-.153-.438V137h0c-.136-.365-.286-.721-.448-1.063h0l-.12-.242v-.02h0a11.252,11.252,0,0,0-5.769-5.258l.1-.06-.156.037c-.365-.159-.747-.309-1.143-.445l.086-.445a2.481,2.481,0,0,0-.076-1.1c0,.02.017.04.023.056.03.189.073.369.113.541l.037.156a.919.919,0,0,1,0,.133.465.465,0,0,0,.037.266l.1.166.047-.193a1.97,1.97,0,0,0-.03-.84.72.72,0,0,0-.027-.143,4.8,4.8,0,0,1,.173,1h.163a3.773,3.773,0,0,1,.043-.379h0l-.027-.139a4.875,4.875,0,0,1-.083-.575v-.023c-.056-.143-.11-.289-.166-.432l-.03-.09c.04.093.08.2.113.286l.053.136c.027.073.05.133.07.2a1.473,1.473,0,0,1,.037.2,1.281,1.281,0,0,0,.027.163.585.585,0,0,0,.04.149,1.062,1.062,0,0,1,.043.186.642.642,0,0,1,0,.113.545.545,0,0,0,.03.256l.093.223.06-.232a1.528,1.528,0,0,0,0-.664l.03.043a1.8,1.8,0,0,1,.033.269,1.566,1.566,0,0,0,.053.359l.169.591v-.827a1.892,1.892,0,0,0,0-.206c.02.143.037.292.046.445l.037.644.126-.631a1.827,1.827,0,0,0,.033-.442l.02.07a.884.884,0,0,1,0,.133.465.465,0,0,0,.033.266l.1.159.05-.183a1.378,1.378,0,0,0,.04-.4c0,.11.027.229.033.359l.04.568.123-.555a2.178,2.178,0,0,0,.047-.515v-.017c-.027-.116-.05-.232-.073-.352s-.03-.146-.047-.216a.307.307,0,0,0,.027.09l.03.149a.756.756,0,0,0,.033.173.8.8,0,0,0,.04.126.878.878,0,0,1,.043.166.559.559,0,0,1,0,.13.638.638,0,0,0,.05.306l.159.332v-.359a2.393,2.393,0,0,1,.02-.276c0,.1.023.2.033.306l.046.628.116-.618v-.086a.239.239,0,0,0,.063.106l.159.159-.02-.223a.9.9,0,0,1,.02-.229,1.616,1.616,0,0,0,.023-.183.362.362,0,0,1,0,.06.481.481,0,0,1,0,.12.358.358,0,0,0,.08.286l.133.09v-.123a1.5,1.5,0,0,1,.033-.349c0,.116.03.232.037.355l.05.664.113-.664a2.773,2.773,0,0,0,.033-.279v.3l.053.02a.123.123,0,0,0,.11,0,.149.149,0,0,0,.043-.139.5.5,0,0,1,.02-.169,1.192,1.192,0,0,1,.02-.169v-.037a5.856,5.856,0,0,1-.123-.714,2.721,2.721,0,0,1,.1.385l.04.193v.043a1.328,1.328,0,0,1,.053.508v.083h.086a.13.13,0,0,0,.093-.023.116.116,0,0,0,.037-.09.03.03,0,0,1,0-.017,1.661,1.661,0,0,0,0-.555,2.663,2.663,0,0,1,.063.332.538.538,0,0,1,0,.073.3.3,0,0,0,.066.256l.156.156v-.223a.97.97,0,0,1,.02-.236,1.174,1.174,0,0,0,.023-.156v.063a.837.837,0,0,1,0,.09c0,.1,0,.213.083.272l.116.056v-.133a3.04,3.04,0,0,0,0-.595,3.107,3.107,0,0,1,.056.352.286.286,0,0,1,0,.05.242.242,0,0,0,.083.249l.153.1-.027-.179a.741.741,0,0,1,0-.239h0a.757.757,0,0,0,.063.3l.163.312V129.5a1.114,1.114,0,0,1,.03-.226.744.744,0,0,0,0-.475.622.622,0,0,0-.027-.106v-.05l.03.1c.02.073.043.149.053.213a.909.909,0,0,1,0,.189.621.621,0,0,0,.063.332l.169.3-.017-.332a1.036,1.036,0,0,1,.02-.249,1.186,1.186,0,0,0,.023-.246,1.179,1.179,0,0,1,.03.362v.12h.033a.086.086,0,0,0,.027.043.1.1,0,0,0,.1.02h.06v-.063a1.161,1.161,0,0,1,.023-.216,1.487,1.487,0,0,0,0-.332.245.245,0,0,1,0,.047v.149a.95.95,0,0,0,0,.1.234.234,0,0,1,0,.046.253.253,0,0,0,.09.232l.123.07v-.143a2.016,2.016,0,0,1,.023-.332.533.533,0,0,1,.017-.159,1.905,1.905,0,0,0,.033.213.443.443,0,0,1,0,.066.246.246,0,0,0,.073.226l.113.09.02-.143a2.819,2.819,0,0,0,.03-.618,3.119,3.119,0,0,1,.043.458v.09h.02a.086.086,0,0,0,.03.043.093.093,0,0,0,.093.02h.056v-.06a2.164,2.164,0,0,1,.037-.3,1.193,1.193,0,0,0,.04.242l.076.415.083-.412a2.443,2.443,0,0,0,.046-.286.548.548,0,0,0,.06.246l.139.236V129a.461.461,0,0,0,.046.139l.153.276V129.1a1.526,1.526,0,0,1,.03-.279.3.3,0,0,0,.073.256l.136.1v-.169a1.061,1.061,0,0,0,.11.083l.04.03.023.027a.219.219,0,0,0,.146.093h0a.143.143,0,0,0,.09-.043l.04-.046-.033-.053a1.077,1.077,0,0,0-.09-.116v-.053a.44.44,0,0,1,.027-.11.1.1,0,0,0,0,.033l.2.442-.043-.482a.234.234,0,0,1,0-.046.311.311,0,0,0,.017.033l.256.412-.106-.472a.127.127,0,0,1,0-.05l.03.037.13.136v-.252a.126.126,0,0,0,.053.02l.093.017v-.093h.02l.1.033v-.1a.717.717,0,0,1,0-.076.11.11,0,0,0,.02.033l.1.116.043-.146a.134.134,0,0,1,.017-.076.11.11,0,0,0,.07.027h.08v-.139h0l.076.053.043-.08a.362.362,0,0,0,.03-.076l.053.06.06-.083a.273.273,0,0,0,.04-.083h.09l.023-.043a.333.333,0,0,0,.033-.06h.037a.5.5,0,0,0,.163-.113.428.428,0,0,1,.116-.08h.03V127.7a1.269,1.269,0,0,1,.1-.156.9.9,0,0,0,.163-.289l.033-.123Zm-3.966-8.473Zm-.711,14.873.093-.037h.02Zm.332.242.03.023H179.2a.611.611,0,0,1-.136.02h0a1.694,1.694,0,0,1,.193-.043Zm.362.6.12-.04h-.043Zm.365.565.156-.06.023.023-.139.027Zm1.246,2.019h.02Zm-29.118-11.1.043.176c-.037-.056-.073-.113-.1-.166l.046-.159v-.03a.412.412,0,0,0,.027.179ZM158.9,115.633Zm12.92,12.674a.086.086,0,0,0,.03-.053l.033.113c.02.063.04.13.06.176l.04.266c.033.2.066.405.09.614v.066l-.2-.046v-.037a2.926,2.926,0,0,0-.043-1.1Zm-.252.033h0a5.439,5.439,0,0,1,.153,1.056h0l-.113-.023a2.727,2.727,0,0,0-.027-1.033Zm-.276.136h0l.053.05a4.849,4.849,0,0,1,.093.814l-.136-.027a3.239,3.239,0,0,0,0-.837Zm4.055,4.72.189-.09-.166.116h-.017a.149.149,0,0,0,0-.037Zm-13.906.917-.292-.282.216.156a.232.232,0,0,0,.066.05Zm-2.169.664.033-.023h0v.08h0a.461.461,0,0,1-.03-.043Zm-1.385,1.837h-.02c-.02-.02-.043-.04-.063-.063l.07.056h0Zm-.2-10.346v.02l-.04-.106h0a.418.418,0,0,1,.053.106Zm-1.239-.176-.03-.047a.1.1,0,0,1,0-.03.516.516,0,0,1,.043.09ZM152.4,125.4v.1l-.02-.027ZM155.623,120.041Zm10.911-1.1h.2l-.017.02h-.186Zm9.821-1.465Zm1.329,8.533Zm3.139,2.215Zm-2.282-1.608ZM174.69,132.8l.047-.02-.153.173c-.076.086-.149.173-.223.266.086-.116.173-.226.259-.332Zm.232.046h0a.133.133,0,0,0,.076-.12.106.106,0,0,0-.027-.05l.09-.04a6.312,6.312,0,0,0,.691-.332.456.456,0,0,0,.13-.037l-.056.033-.2.116a4.529,4.529,0,0,0-.717.458Zm-19.37-10.15v-.02h0Zm.511.332a1.714,1.714,0,0,1,.256-.458h.02c-.053.08-.1.166-.153.249s-.08.126-.123.193Zm-.521,2.677v.037a.209.209,0,0,1-.02-.09.169.169,0,0,0,.02.037Zm-.133-.794v.017h0v-.03Zm-.146.365v-.043a.332.332,0,0,1,.027.1.541.541,0,0,0-.027-.073Zm.2-.568h-.02l.03-.093c.04-.139.08-.282.13-.422a4.716,4.716,0,0,0-.139.5Zm.89-1.518a3.2,3.2,0,0,1,.286-.538v.017c-.06.133-.133.262-.209.4Zm.947-.418a.083.083,0,0,0,0-.033h.023l-.017.02v.017Zm1.923.372h-.013l-.017.023c-.043.073-.093.143-.139.213s-.11.156-.159.242c0-.04.037-.076.056-.116l.02-.043a.93.93,0,0,1,.216-.332l.037-.03Zm13.531-4.268h0l-.043-.02h0a.05.05,0,0,1,.043,0Zm-.482,3.507Zm.485-.279h0v-.017Zm0,0h0l0-.01Zm.8-.166Zm-6.36,5.593v.03h0v-.017Zm-.332.4-.027-.03h0a.168.168,0,0,1,.01.02Zm-.149,1.046ZM157.559,133h0l.03.03h-.037Zm.189-.173.053-.04.05.056h-.03a.11.11,0,0,1-.09-.027Zm.242-.2h.02l.037.04Zm1.81.06Zm0-.066.017.033-.017.033h0v-.066a.04.04,0,0,1,.033,0Zm-1.9,2.73.2.163h0a1,1,0,0,1-.166-.149Zm1.5-1.661Zm-.239.153Zm-.133-.066h.033c-.033.013-.047.017-.05,0Zm.256-.555c0,.017-.02,0-.02,0Zm-.475,1.119Zm.02,0a.027.027,0,0,1-.017.027Zm.176-.166Zm.355-.857-.033-.023v.05c-.017,0-.02-.017,0-.05s.043.017.043.023Zm.246-.558h0Zm-.774-.269-.063-.05a1.289,1.289,0,0,0-.312-.2.219.219,0,0,0,.056-.04c.116.106.239.209.359.309Zm-.5,0-.11-.056.033-.027a.907.907,0,0,0,.06.08Zm.379,3.551.027-.037.03.023h0l-.043.066-.033-.037ZM158.941,135.007Zm1.312-3.182c.017,0,.02,0,.02-.02v.02Zm-.259-1.661a.146.146,0,0,1,0,.033.172.172,0,0,1,0,.037v-.06Zm-1.189-6.975v-.023h0a.157.157,0,0,1-.02.03Zm.113-.143Zm-2.239-3.268a.332.332,0,0,0,.066-.07h0l-.056.083ZM166.779,114.54Zm4.009,8.529a.907.907,0,0,1,.106.123.446.446,0,0,0-.037.046l-.02.023h-.023l-.06-.146c-.02-.043-.04-.093-.056-.139v-.03h0Zm-6.908,6.742v.017Zm-3.361,1.92h0c0-.02.017-.017.02,0Zm-1.269-11.545-.03.033c-.023.03-.05.056-.076.086h0a.3.3,0,0,0,.037-.053Zm-.256.3-.033.056a.152.152,0,0,0-.023.023.389.389,0,0,1-.07.053v-.02a1.585,1.585,0,0,1,.11-.13Zm-1.71-.535a.374.374,0,0,0,.043-.053l.12-.116-.08.1a.22.22,0,0,0-.033.06v.02Zm5.646-1.036h0v-.02Zm7.878,9.7a1.82,1.82,0,0,0-.037-.246h.02a3.142,3.142,0,0,1,.086.757h0l-.027.023h0V129.1h-.02v-.189A2.711,2.711,0,0,0,170.808,128.613Zm-1.05,3.531h.066C169.845,132.19,169.745,132.193,169.758,132.144Zm-1.933-5.836H167.8Zm-.4-1.209a.063.063,0,0,1,0,.023h0a.037.037,0,0,1,0-.027ZM167.2,125.478Zm-3.653,4.407h-.023C163.524,129.862,163.547,129.885,163.547,129.885Zm0,0c0,.02-.02,0-.02,0Zm-2.787,1.757Zm.382-.88c0-.02.02,0,.02,0ZM161.063,131.307Zm-.266-.166h0a.113.113,0,0,1,0-.037Zm-3.265-11.93-.043.043.056-.063Zm5.646.13h.017s-.023.007-.03,0Zm7.38,1.468a.046.046,0,0,1,0,.03h-.01Zm-.465,11.655h.013Zm-5.052-4.211h0l-.013,0Zm-.591-.332h-.023v0h0v.02h.023Zm0,0v.023h0Zm-.289,1.269h0l-.013.01Zm-.027,0h0s-.013.007-.013,0Zm-4.016-3.653h-.02c-.007-.013.007,0,.007.01Zm-.023,0h.023C160.12,125.557,160.1,125.534,160.1,125.534Zm11.678.817h.023a.063.063,0,0,0-.03,0Zm-9.383,4.075Zm3.5-9.184Zm5.427,4.952H171.3a.265.265,0,0,0-.043-.136.276.276,0,0,1-.03-.066v-.02a1.919,1.919,0,0,1,.173.2.764.764,0,0,1-.1.037Zm-.163.063h0l-.037.017c-.017-.043-.03-.083-.046-.123l.09.1Zm-7.307,1.727h-.023c-.02-.017,0,0,0,.01Zm-1.584,2.75Zm3.072-7.769Zm3.205-3.112a.05.05,0,0,1,0,.02h-.03v-.02Zm1.661,1.528h0c0-.02,0-.02-.023-.023h.023v.027Zm-4.424,3.421Zm0-.03Zm-2.352,2.949h-.013Zm2.577-6.291h.149l-.136.02h0Zm4.361,7.639a.113.113,0,0,0-.066-.037h0l.023-.04v-.056a.093.093,0,0,0-.056-.07.1.1,0,0,1,0-.03l.017-.02.076-.023-.023-.076a.093.093,0,0,0-.07-.076.405.405,0,0,1,.053-.06l.023-.023a4.83,4.83,0,0,1,.027.5Zm-3.707-6.025Zm2.122-1.661Zm-.286.731h-.02a.05.05,0,0,0,.023,0Zm-.037,0Zm.02.631h-.013ZM170,125.292Zm.249,1.813Zm-.531-5.978h.007Zm-.608,1.8h0a.017.017,0,0,0,0,.017ZM169.738,122.067Zm.02.02c0-.017,0-.02-.02-.02h.02v.027ZM169.426,121.754Zm.837,5.351h0a.017.017,0,0,1-.01.007Zm-.246-1.813Zm-1.631-1.1Zm.6.691h0l.056.027H169Zm-.967-3.042Zm-1.455.113-.316.05v-.03Zm-.644,2.059v0Zm.066.422h-.02Zm2.122-1.365Zm-5.141,4.879a.03.03,0,0,1,.033,0Zm-.08-.432-.03.023h0Zm-.545,1.561h0v.027h.033a.03.03,0,0,1-.033,0Zm-.06-.425Zm-1.309-3.255Zm.7-1.561ZM161.717,128.679Zm.694-3.009h-.027c.02,0,.02,0,.023-.023ZM162.106,128h0s0,.013,0,.017Zm0,0Zm-.262-3.584h0l-.033.027Zm.262,3.653h0Zm-.6-2.511Zm.126,1.9h0l0-.007Zm-.236-.163h.023C161.415,127.318,161.392,127.291,161.392,127.291Zm.023,0h-.02C161.4,127.274,161.415,127.291,161.415,127.291Zm.581,1.226ZM161.285,125.484Zm.428,3.205h.017a.023.023,0,0,0-.013-.007Zm.409-.027Zm.083.113v0Zm.126-.166Zm3.086-4.451h0s.007,0,0-.007Zm.139.644Zm0,0Zm-4.819.488h0v.017Zm.664,2.916h0Zm-.02,0Zm2.288-2.607-.043.02h0a.08.08,0,0,1,.037-.02s-.007-.01,0-.007Zm0,.033v-.01Zm6.287,2.554a.332.332,0,0,1-.093.106h0a.386.386,0,0,1,.06-.09l.033-.037a.063.063,0,0,1-.007.013Zm.664-1.777.053.056v.02a.153.153,0,0,1-.053.023l-.04-.083ZM164.275,121.9Zm-3.74,3.926h-.023a.036.036,0,0,0,.023,0Zm.332,1.375h0v.017h0Zm.515,1.259h0s-.017,0-.01,0Zm.02,0h-.02a.037.037,0,0,0,.023,0Zm1.936-.332Zm2.265-2.6v-.043h0l-.02.043h0Zm2.561-1.265Zm.521,2.919h.02Zm1.926,2.009h-.03l.04-.05a.061.061,0,0,0-.02.05Zm.193-2.989c.046.053.093.11.143.159l-.027.017-.043.023c-.033-.07-.056-.136-.083-.2Zm-5.118-3.607h0Zm-.883.047h.03c-.023.017-.037.02-.04-.007Zm-4.281,3.172h0s-.017,0-.01,0Zm.95,5.211v-.063h0v.063h.03a.02.02,0,1,1-.04,0Zm.707-.422h0v.05h-.02v-.046h.01Zm.216-.206Zm.239-1.661Zm.648-.332h0v.017Zm.08-.116Zm.452-.279h.02s-.03,0-.03-.013Zm6.756.887h0a3.917,3.917,0,0,0-.033-.528l.023.027c0,.07.023.153.03.229s.017.156.03.229A.126.126,0,0,1,170.569,128.9Zm1.016-2.415h.023Zm-.017-.385c-.05-.093-.09-.193-.133-.3l-.086-.206h0a.711.711,0,0,1,.086.153v.02a.838.838,0,0,1,.083.173,1.2,1.2,0,0,0,.066.149ZM160.724,127.311Zm.365,1.94Zm.316-.488h0s-.017-.007-.01,0Zm-.02,2.508a.1.1,0,0,0,.02-.033h0v.027h0Zm.332-.4h0v.027h0Zm.664-.405Zm.186-.754c.023-.023.033,0,.02.02s-.043-.01-.03-.02Zm.332-1.272Zm.711-.432h0Zm.545,1.186Zm1.993-.774h0v.017a.027.027,0,0,1-.02-.017Zm.521-1.329h0v0Zm1.166-2.431h0a.079.079,0,0,1,0-.04.053.053,0,0,1-.02.027Zm3.042-3.793h.023a.106.106,0,0,0-.043-.013Zm-7.307-1h0a.026.026,0,0,1,0,.02s0-.037,0-.043Zm0-.04v.017h0Zm-2.528,1.644.03-.033-.2.229h0a1.591,1.591,0,0,1,.149-.219Zm-.02,7.7h0l-.017-.023Zm.286,2.049a.04.04,0,0,1,0-.027h0Zm4.354-2.474Zm0,0h0a.023.023,0,0,1,0,.017Zm-.02-.02h.01a.234.234,0,0,1-.023-.03Zm.751-.219Zm2.956-.332a.093.093,0,0,0-.043,0l-.093-.027a.113.113,0,0,0-.066,0l-.03-.027a.113.113,0,0,0-.05-.023.532.532,0,0,1,.06-.1h0a1.076,1.076,0,0,1,.332.116l.053.027a.19.19,0,0,0-.05.053h0l-.066-.027Zm.492,4.318h-.017Zm.1-.259Zm.727-8.941-.1.017.037.093c0,.023,0,.03-.03.06v-.043a.887.887,0,0,0-.08-.206.773.773,0,0,1-.07-.179v-.03l-.023-.017a.243.243,0,0,1-.023-.056h0a2.187,2.187,0,0,0,.242.269l.1.1ZM165.394,121.306Zm-.083-.412c0-.017,0,0,.017,0Zm-2.149-1.568h0c0-.023.023,0,.023,0h-.02Zm-.03-.169a.033.033,0,0,1,0-.023Zm-6.138.644.046-.053a1.08,1.08,0,0,1,.116-.13l.2-.223a.185.185,0,0,0-.017.027c0,.023-.03.043-.05.066l-.02.02a.3.3,0,0,0-.043.046c-.027.033-.046.063-.07.1l-.043.056-.03.053a.332.332,0,0,1-.086.1h-.056Zm.644.153.076-.076.252-.279.037-.043c-.136.166-.276.332-.405.515h-.05a.788.788,0,0,1,.09-.113Zm3.109,9.084Zm-.183-.13h.02Zm.12,2.657h-.023s0,0,.023,0Zm.066.086h0v0Zm1.88-1.5-.03.023h0Zm.09.037v.017h0s0-.017,0-.02Zm.7-.113v.027h0a.088.088,0,0,1,0-.03Zm.857-.375Zm.309-1.544.023.023h0l-.027-.02h0Zm.2.448s-.03,0-.02-.02c.037-.073.086.013.02.033Zm2.611-3.115Zm.874,2.511.2-.362a.665.665,0,0,0,.1.047.3.3,0,0,0,.066.086l-.056.043h0l-.033-.1-.1.1-.139.156c-.02.023-.04.05-.063.073Zm1.661,4.74Zm.123.063ZM170.11,132.8Zm1.86-6.842a.093.093,0,0,0-.086-.033.1.1,0,0,0-.076.076h0c-.017-.023-.03-.05-.046-.076a.073.073,0,0,0,.023-.03v-.07c-.04-.093-.086-.2-.136-.3.07.093.143.179.216.259l.133.156ZM168.533,113.059Zm-6.792,4.713Zm-2.365-1.089-.02.093h-.033a.361.361,0,0,1,.027-.093,1.471,1.471,0,0,0,.076-.306,1.238,1.238,0,0,1-.05.3Zm-1.465,3.464a.665.665,0,0,0,.106-.126.541.541,0,0,0,.13-.133c.02-.023.033-.043.053-.063l-.136.173-.05.063a.846.846,0,0,1-.106.133h-.03Zm.289.126a.492.492,0,0,0,.1-.113l.369-.4.229-.246c.056-.063.116-.126.176-.186-.073.08-.143.166-.216.252l-.149.176a4.853,4.853,0,0,0-.452.581l-.056-.023-.033-.02Zm.5-.03.11-.11q-.133.159-.259.332h-.03a2.1,2.1,0,0,1,.179-.229Zm.565.385-.02.033a.378.378,0,0,1-.073.083h0Zm1.432,3.125h-.027l.02-.02Zm-2.159,1.624ZM159.2,125.979Zm1.677,5.5h0v.027a.027.027,0,0,1,0-.033Zm2.152-1.056Zm0,0h0a.023.023,0,0,1,0-.017c0-.027,0,0,.02,0Zm.083.106v-.043h0a.119.119,0,0,0,0,.033Zm.086-.216Zm4.667-2.518c.027-.11.053-.223.083-.332a.9.9,0,0,1,.13,0,4.265,4.265,0,0,1-.213.385l-.02.037Zm.973,4.55h0Zm.033,0Zm.771.223Zm.349.428Zm.259-.09a.086.086,0,0,1-.017.06l.017-.063Zm2.438-1.837Zm-.213-4.929h.017a.017.017,0,0,1-.017,0Zm.156-2.591Zm.193-.91v-.017h0v.007Zm-.1-.166v.027h0v-.02Zm.644-.332h0a.031.031,0,0,1,0-.007Zm1.993.156h-.027c.02,0,.02,0,.023-.02ZM175.272,122.11Zm-.664-.1.017-.04h0a.043.043,0,0,1-.007.033Zm-.844.432-.017.03h.033a.03.03,0,0,1-.033,0v-.063a.03.03,0,0,1,.033,0h-.033Zm-.146.279h0v-.033h0v-.033h0Zm-.113-.209h-.017v-.023h.02Zm2.657-1.05Zm-.066-.063h.01Zm-.276.385h0Zm-1.757-.173Zm-.442.528h0l.02-.043h0a.13.13,0,0,1,.007.037Zm-.392.409v.027h0v-.017Zm-1-3.268Zm-.239.213Zm.272-.262h0Zm-6.311,1.455.266-.03a4.194,4.194,0,0,0-.561.126.332.332,0,0,1-.037-.056c.086-.017.2-.027.3-.04Zm-4.178-2.929Zm-3.431,5.108s-.017,0,0,.017h-.033l.027-.03h.03Zm-.664-.13.02-.027h.023Zm-.159.242c0-.037.033-.076.047-.113a.351.351,0,0,0,.05-.05,1.163,1.163,0,0,1-.086.149Zm-.169-.282v-.027l.017-.017h.033Zm-.193.3-.043.08a.431.431,0,0,1,.027-.056l.037-.09a.3.3,0,0,1,.053-.12.08.08,0,0,0,.05-.033,1.717,1.717,0,0,1-.113.219Zm-.133-.372v-.02h.023Zm-.189.306c.027-.063.056-.126.08-.189l.037-.03a2.284,2.284,0,0,1-.106.219Zm-.193-.312a.57.57,0,0,1,.037-.047h.066l-.076.037Zm2.249,3.288h.03a.056.056,0,0,1,0,.017h-.03Zm1.412,1.478v.06l-.046.063a.292.292,0,0,0,.056-.123Zm-.684,3.149h0a.112.112,0,0,0,.04.02.09.09,0,0,0,.106-.063h0l.076.462-.236.139Zm.3-.1v-.1a.668.668,0,0,0,0-.08.206.206,0,0,0,.043.153l.143.179v-.262a.19.19,0,0,0,.027.043l.166.186-.023-.246v-.02l.02.046.163.269a6.839,6.839,0,0,0-.641.332Zm.558-.149a.3.3,0,0,1,0-.093.415.415,0,0,0,0-.1.249.249,0,0,0,.037.1l.146.229v-.349a.14.14,0,0,0,.037.133l.053.04.047-.027a.1.1,0,0,0,.05-.106.817.817,0,0,1,.086-.306.736.736,0,0,0,0,.116.414.414,0,0,1,0,.106l-.043.09h.07c-.136.149-.286.3-.448.458h-.02Zm-3.145,2.9c.08.076.163.149.246.219-.056-.04-.11-.08-.159-.123l-.023-.02h-.03a.159.159,0,0,1-.076-.023h-.017Zm-.027.428-.023-.023a.1.1,0,0,0-.05-.06,1.751,1.751,0,0,0-.169-.063l.027-.03.03-.037.143.126.176.149Zm-.053.355-.223-.163-.063-.047h-.017a.4.4,0,0,1-.106-.037h-.037a.366.366,0,0,0,.053-.05,1.568,1.568,0,0,0,.223.2.33.33,0,0,1,.179.1Zm-.548.02-.027-.023h-.033a.1.1,0,0,1-.063,0l.043-.047.02-.023c.179.139.359.286.545.442-.179-.133-.342-.249-.475-.349Zm-.093.309c.126.116.259.226.392.332l.03.023c-.09-.066-.183-.13-.272-.189l-.252-.173h-.02a.388.388,0,0,1-.083-.023h-.033v-.017a.479.479,0,0,0,.063-.073l.046.047a.332.332,0,0,0,.136.073Zm1.209,1.85a.531.531,0,0,1,.086.086l.017.02-.139-.126Zm.176.166h0l-.043-.043Zm.422.332v.027a.153.153,0,0,0,0,.046.3.3,0,0,0-.043-.033l-.07-.083-.027-.023a.136.136,0,0,0,.023-.037l.073.056Zm.13-.306v.027a.332.332,0,0,0-.076-.073h0l.056.04Zm.332-.515h0l.033-.023h0Zm3.886-5.364h-.02a.02.02,0,0,0,.02,0Zm.359,0H163.1a.027.027,0,0,1,.046,0Zm.488-.518v.037h0a.05.05,0,0,1,.023-.043Zm3.743-3.384Zm2.8,6.5Zm4.185-7.287-.017-.017h.023Zm2.142-3.524h0a.189.189,0,0,0,.033.07l-.023.04h0a.476.476,0,0,0-.03-.09Zm.256-.249h.02l-.023.037v-.027Zm.448.023h0v.02a.249.249,0,0,1-.05.076h0l-.02-.043a.17.17,0,0,1,.093-.053Zm-1.445-.721v.017h-.027l.017-.03h0Zm-8.748-4.016a.246.246,0,0,1-.113,0H167Zm-.664,1.368.2-.027h.023a.97.97,0,0,1-.219.037Zm-.85,1.8.312-.023-.332.083-.033-.056Zm-6.108-4.564h0a.166.166,0,0,0,0-.04h.02C159.412,115.852,159.379,115.889,159.372,115.892Zm-.223-.153Zm-.1.186a.139.139,0,0,0,.046.02l-.023.02h0a.446.446,0,0,0-.023-.06Zm.033.176h.027l-.04.159a2.145,2.145,0,0,1-.1.332h-.047A.86.86,0,0,0,159.087,116.1Zm1.468,7.088c.04-.046.086-.093.133-.139h0a1.15,1.15,0,0,1-.149.213l-.043-.02Zm-7.676,2.3a.524.524,0,0,1,0,.126l-.023-.043a.379.379,0,0,1,.023-.083Zm.116.332.03-.027a.333.333,0,0,0,.06.106.731.731,0,0,0,.063.183.59.59,0,0,1,.04.1v.063a3.414,3.414,0,0,0-.2-.418Zm2.425.445v-.007Zm4.285,2.262.03.02h-.043Zm-3.288,6.068-.113-.073-.027-.017h-.03a.12.12,0,0,1-.073-.017h0l.027-.03.023-.03Zm-.033.385h0a2.43,2.43,0,0,1-.272-.183l-.023-.017h-.027a.249.249,0,0,1-.076,0,.688.688,0,0,1,.056-.08c.1.08.223.183.342.286Zm-.448.063-.056-.017L155.8,135l.033-.056Zm2.866,1.551v.02l-.023-.023.027-.033.02-.023a.4.4,0,0,1-.023.053Zm1.3-1.83a.781.781,0,0,0-.1-.11l.113.09.06.05v.027Zm8.024.691h0Zm-.056-.7.139.033h-.133a.12.12,0,0,0-.007-.027Zm.08.249h-.066v-.017Zm0,.219.083.02h-.139v-.033Zm-.1-.727.223.056h-.219v-.02a.15.15,0,0,1,.01-.03Zm-.06-1.053h.083A.219.219,0,0,1,167.981,133.439Zm.232,2.843h-.083v-.02a.252.252,0,0,0,0-.05h.07a1.173,1.173,0,0,0,.236.053l.05.023a1.661,1.661,0,0,0-.242,0Zm-.11-.332a1.179,1.179,0,0,0,.309.066h-.153a1.1,1.1,0,0,1-.149,0v-.073Zm.136.578a2.053,2.053,0,0,0,.232.047l.08.043-.12-.03h-.289a.142.142,0,0,1,0-.037V136.5Zm.05-.764a.608.608,0,0,1-.176,0,.369.369,0,0,0,0-.063c.086.02.173.046.256.07Zm.1,1.956h-.056a.876.876,0,0,1-.163,0,.114.114,0,0,0,0-.033v-.023Zm.06-.286.09.04h-.213a.818.818,0,0,1-.156,0,.254.254,0,0,0,0-.05v-.043a1.724,1.724,0,0,0,.292.046Zm-.3-.332a1.414,1.414,0,0,1,.266.066,1.632,1.632,0,0,0-.183,0h-.066v-.046Zm.262.89.056.02h-.1a1.054,1.054,0,0,1-.179,0,.525.525,0,0,0-.017-.083v-.017a1.722,1.722,0,0,1,.249.073Zm-.223.289v-.066l.219.066Zm0,.445v-.037l.106.037Zm0,.213.11.033H168.2a.321.321,0,0,0,.007-.04Zm.05.289H168.2v-.033a1.053,1.053,0,0,1,.146.04Zm-.05.206h0Zm.02.239h-.033v-.017h.027Zm.229-2.783h-.286a.122.122,0,0,1,0-.037v-.063a4.206,4.206,0,0,1,.535.179c-.076-.037-.163-.053-.239-.086Zm5.7-3.384.07-.11.033-.033a1.76,1.76,0,0,0-.106.166.13.13,0,0,0,.013-.03Zm-3.026-4.341h0v-.03a2.09,2.09,0,0,0-.02-.289,1.461,1.461,0,0,0-.033-.382,6.79,6.79,0,0,1,.09.7Zm1.348-.917.027.043v.037a.806.806,0,0,0-.017-.086Zm.4.581c.017.076.033.149.046.229h0a1.613,1.613,0,0,1-.066-.312.183.183,0,0,1,.03.076Zm7.729-.448Zm-8.347-2.521h-.04l-.08-.136-.03-.053.179.166ZM177.61,121.306Zm.445.179a.165.165,0,0,1,0-.043.2.2,0,0,0,.023.047Zm-6.772,1.388a.574.574,0,0,0-.163.12l-.05.046c-.037-.08-.08-.153-.12-.223a1.992,1.992,0,0,1-.116-.219.11.11,0,0,0,.12,0l.123-.056-.106-.083a.2.2,0,0,1-.037-.08.185.185,0,0,1,0-.04h0c.08.1.166.2.252.3l.156.173Zm5.51-5.729-.027-.04.043.04Zm-11.206,3.119-.126.043-.09.033-.04-.066C165.411,120.273,165.5,120.27,165.587,120.263ZM152.6,125.707a.434.434,0,0,0-.017.07.8.8,0,0,0-.043-.07l.033-.093v-.023a.332.332,0,0,1,.03.086A.053.053,0,0,1,152.6,125.707Zm3.2.555v.033l-.04-.143v-.03a.046.046,0,0,0,0-.023.972.972,0,0,1,.063.133Zm1.534.186a.508.508,0,0,0-.023-.1v0A.509.509,0,0,1,157.333,126.447Zm1.179.126h0V126.5l.017.05Zm-1.465,6.025v-.027a.113.113,0,0,1,0-.033V132.5l.017-.03c.023-.033.1-.143,0-.219h0a2.18,2.18,0,0,1,.216-.422l.066-.093H157.3a.349.349,0,0,0,.04-.07l.116.093V131.6h.056l.027-.07v-.02l.08.08.043-.123a.894.894,0,0,0,.023-.09l.13.169v-.189l.12.332v-.445a.163.163,0,0,1,0-.04l.163.256v-.279l.136.229v-.349l.136.2V131a.362.362,0,0,1,0-.086.137.137,0,0,0,.017.03l.149.176v-.186l.163.246v-.349a.249.249,0,0,0,.023.04l.143.193v-.239a.926.926,0,0,1,.08-.223h0a.189.189,0,0,0,.05.163l.166.146-.03-.219v-.03l.02.02.163.123-.033-.2h0a.088.088,0,0,0,.169-.013v-.09a.365.365,0,0,0,0,.06l.116.545-.053.033-.076.037a.874.874,0,0,0-.1.05.13.13,0,0,0-.053.05l-.01-.01h-.033a.213.213,0,0,0-.073.03,13.209,13.209,0,0,0-1.661,1.255c-.106.093-.216.2-.332.3A.382.382,0,0,0,157.047,132.6Zm.306,5.314v.043l-.193-.183c.05.037.1.066.156.1a.169.169,0,0,0,.037.063Zm-2.76-.744a.48.48,0,0,1,.033-.083l.126.116-.027-.017h-.04a.259.259,0,0,1-.093.007Zm.229-.5h0l.027.023Zm.11-.226h0v-.04l.06.053Zm.126-.239h0l.02-.037.053.05h-.073Zm.133-.246.02-.04.063.056h0Zm.259-.432.017-.037.017-.033a.43.43,0,0,1,.056.053l.043.04h0a.663.663,0,0,1-.133,0Zm.252.1Zm.379-.1a2.958,2.958,0,0,1-.309-.209l-.023-.02h-.03a.279.279,0,0,1-.11-.023h0l.05-.073.438.352Zm-1.608,1.94c0-.02.017-.04.023-.063l.113.1h-.136Zm13.734,2.7.186.056a.7.7,0,0,0-.186,0Zm0-.216a.748.748,0,0,0,0-.086l.246.076a.7.7,0,0,0-.239.033Zm2.262-1.362h.017v.02Zm.126-4.557-.2-.173.146-.037-.08-.06v-.13a.123.123,0,0,1,0-.037h0v-.023l.017-.02a.249.249,0,0,0,.04.173l.176.229-.03-.286a.283.283,0,0,1,.02-.12h0a1.012,1.012,0,0,0,0,.262l.053.375Zm.123-.628Zm3.295.3a.106.106,0,0,0,.02-.063l.03-.027.04-.037-.033.053a.412.412,0,0,0-.056.076Zm.727-.618a.13.13,0,0,0,.027-.063l.037-.023h.023l-.076.09a3.692,3.692,0,0,0-.286.362,1.774,1.774,0,0,0-.116.159c.1-.146.209-.286.309-.422Zm.332-.11.043-.027a.166.166,0,0,1,.1-.007h.03l.02-.02a.5.5,0,0,1,.139-.07.841.841,0,0,0,.146-.07.226.226,0,0,0,.093-.04c-.236.143-.468.3-.7.465a.332.332,0,0,0,.116-.209Zm3.607.332a.543.543,0,0,1,.093-.023h0Zm-6.45-3.773.017-.1a3.3,3.3,0,0,0-.176-1.441,2.017,2.017,0,0,1,.226.531,2.8,2.8,0,0,0,.056.359,1.932,1.932,0,0,1,.053.538.093.093,0,0,0,.083.1.1.1,0,0,0,.1-.1v-.056a1.683,1.683,0,0,0-.02-.621,2.77,2.77,0,0,1-.043-.332l.03.116a2.886,2.886,0,0,1,.13.88c0,.106.043.133.073.139a.093.093,0,0,0,.106-.06v-.126a1.694,1.694,0,0,1,.033-.276v-.017a1.585,1.585,0,0,1,.027.289.176.176,0,0,0,.04.153l.043.037.05-.02a.113.113,0,0,0,.053-.106,2.471,2.471,0,0,0-.027-.688v.023a2.136,2.136,0,0,1,.093.757v.073h.073a.123.123,0,0,0,.1-.03.173.173,0,0,0,.033-.159h.023v-.066a.611.611,0,0,1,0-.2v-.053c-.037-.133-.06-.272-.083-.409s-.04-.229-.066-.332a1.5,1.5,0,0,0,.1.153c.02.113.047.216.073.332a2.269,2.269,0,0,1,.093.7.1.1,0,0,0,.086.1.1.1,0,0,0,.1-.1v-.076a1.427,1.427,0,0,0,.023-.332v-.08a1.509,1.509,0,0,1-.063-.332,1.1,1.1,0,0,0-.037-.229l.033.043.06.3a4.231,4.231,0,0,1,.106.767V130A14.643,14.643,0,0,0,172.229,129.523Zm2.411-4.059h0s0,0,0,0Zm-2.126.246h0l-.03.063h-.04a.176.176,0,0,1-.033-.04.37.37,0,0,1-.03-.063c-.02-.06-.053-.076-.083-.076h-.023a.08.08,0,0,0-.056.056l-.037-.1c-.027-.08-.06-.163-.093-.242a1.813,1.813,0,0,0,.176.183Zm.226-.614Zm4.866-2.89a.775.775,0,0,0-.037-.093l.08-.083h0l.03.037a.116.116,0,0,0-.017.027.528.528,0,0,0-.053.113Zm-6.228.578-.06-.209a1.883,1.883,0,0,0-.086-.272,1.286,1.286,0,0,1,.106.123c.04.047.076.093.12.136l.093.09Zm6.437-7.1ZM155.523,116.945Zm-3.577,8.3c.033-.11.073-.223.113-.332v.04l-.027.123a.431.431,0,0,1-.027.113,1.737,1.737,0,0,0-.063.515v.047a.2.2,0,0,0-.063-.053.411.411,0,0,0-.047-.06Zm2.577,1.093.033-.04h.027a.147.147,0,0,1,0,.033h0a.063.063,0,0,1-.056.023Zm2.474.236v.033a1.276,1.276,0,0,1-.027-.183c0,.04.03.076.043.116Zm2.657.488h0v0Zm.3.455a2.267,2.267,0,0,1,0-.262v-.063a.761.761,0,0,1,.053.246.688.688,0,0,1-.04.193l-.02.076Zm-2.973,11.123h0a.865.865,0,0,1-.1-.09l.056.033h.017a.086.086,0,0,0,.04.037Zm1.727-1.176-.037-.073a.877.877,0,0,0-.316-.332c-.053-.056-.106-.116-.163-.173l-.139-.153c.1.08.206.159.316.229a.432.432,0,0,0,.07.053l.027.017h0a.14.14,0,0,0,.139.056l.056-.03v-.083l-.02-.027a.8.8,0,0,0-.113-.123.3.3,0,0,0,.056-.056h0a.331.331,0,0,0,.063.04c.043.027.066.043.076.066a3.165,3.165,0,0,0-.017.588Zm12.242-4.045Zm2.1.864h0a.192.192,0,0,0,0-.063.666.666,0,0,0,.04-.07A.371.371,0,0,1,173.056,134.286Zm.794-.332c.03-.053.07-.11.106-.163l.043-.056-.047.076a.511.511,0,0,1-.1.149h0Z" transform="translate(-44.182 -17.505)" fill="#1c1c1c"/><path d="M154.69,159.143V159.1a.545.545,0,0,1-.076-.246v-.037a4.93,4.93,0,0,0-.482-.744l-.02-.023h-.02a.133.133,0,0,0-.086-.063c-.043-.063-.083-.086-.13-.08a.1.1,0,0,0-.08.07l-.027.08.056.017a.212.212,0,0,0,.02.053.276.276,0,0,0,.05.056h0a.355.355,0,0,1,.04.09c.017.037.03.07.047.1a.576.576,0,0,0,.063.086l.047.063c.1.179.2.359.276.531l.04.1a.917.917,0,0,0,.169.289l.186.189-.05-.266A.748.748,0,0,1,154.69,159.143Z" transform="translate(-46.724 -49.487)" fill="#1c1c1c"/><path d="M163.077,195.279c-.063-.076-.126-.153-.186-.232l-.027-.023a.512.512,0,0,1-.13-.136,1.326,1.326,0,0,0-.11-.13.219.219,0,0,0-.066-.037h-.023l-.04-.04c-.056-.063-.159-.176-.292-.1l-.083.046.06.076a.768.768,0,0,1,.1.143,1.1,1.1,0,0,0,.123.183c.173.189.355.372.538.538a.681.681,0,0,0,.106.08l.056.037.033.03a.226.226,0,0,0,.143.08.126.126,0,0,0,.063-.02l.076-.043-.05-.073A3.831,3.831,0,0,0,163.077,195.279Z" transform="translate(-52.301 -73.964)" fill="#1c1c1c"/><path d="M204.612,202h-.03a.314.314,0,0,1-.076,0,.27.27,0,0,0-.209.056l-.076.1.12.03a.85.85,0,0,1,.223.1,1.8,1.8,0,0,0,.179.09l.05.023a1.856,1.856,0,0,0-.332-.1h-.02a.091.091,0,0,0-.1.1v.046l.04.027c.173.113.365.232.555.349l.369.232.05.023.037.017.043.033a.362.362,0,0,0,.2.1.143.143,0,0,0,.063,0l.12-.043-.09-.09a3.249,3.249,0,0,0-.608-.525l.053.03a3.788,3.788,0,0,0,.365.193,1,1,0,0,0,.179.13.664.664,0,0,0,.242.076h.023l.163-.027-.12-.113A2.737,2.737,0,0,0,204.612,202Z" transform="translate(-80.418 -78.935)" fill="#1c1c1c"/><path d="M204.663,203.84h-.053a.1.1,0,0,0-.06.08.141.141,0,0,0,.063.11h0l.023.023a1.6,1.6,0,0,0,.176.13.917.917,0,0,1,.186.143l.017.02h.023a.252.252,0,0,1,.1.06.475.475,0,0,0,.153.086.488.488,0,0,0,.279.14h.05l.12-.043-.106-.113A1.887,1.887,0,0,0,204.663,203.84Z" transform="translate(-80.638 -80.164)" fill="#1c1c1c"/><path d="M122.4,160.992A38.591,38.591,0,1,1,160.992,122.4,38.591,38.591,0,0,1,122.4,160.992Zm0-73.535A34.944,34.944,0,1,0,157.345,122.4,34.944,34.944,0,0,0,122.4,87.457Z" fill="#1c1c1c"/></g></g></svg>