<?xml version="1.0" standalone="no"?>
<!DOCTYPE svg PUBLIC "-//W3C//DTD SVG 20010904//EN"
 "http://www.w3.org/TR/2001/REC-SVG-20010904/DTD/svg10.dtd">
<svg version="1.0" xmlns="http://www.w3.org/2000/svg"
 width="375.000000pt" height="375.000000pt" viewBox="0 0 375.000000 375.000000"
 preserveAspectRatio="xMidYMid meet">
<metadata>
Created by potrace 1.14, written by Peter Selinger 2001-2017
</metadata>
<g transform="translate(0.000000,375.000000) scale(0.100000,-0.100000)"
fill="#000000" stroke="none">
<path d="M135 3726 c-57 -27 -89 -60 -116 -121 -18 -42 -19 -98 -17 -1741 l3
-1699 23 -43 c26 -48 87 -97 141 -112 23 -6 618 -10 1713 -10 1508 0 1680 2
1715 16 58 24 101 61 126 107 l22 42 3 1689 c1 1111 -1 1701 -8 1725 -16 62
-65 120 -123 146 l-52 24 -1690 0 -1690 1 -50 -24z"/>
</g>
</svg>
